G04*
G04 #@! TF.GenerationSoftware,Altium Limited,Altium Designer,19.0.15 (446)*
G04*
G04 Layer_Color=16711935*
%FSLAX25Y25*%
%MOIN*%
G70*
G01*
G75*
%ADD16C,0.00050*%
%ADD82C,0.07874*%
%ADD83C,0.01575*%
%ADD84C,0.01968*%
%ADD85R,0.06000X0.02000*%
D16*
X86639Y387820D02*
X86550Y388846D01*
X86283Y389840D01*
X85848Y390773D01*
X85258Y391616D01*
X84530Y392344D01*
X83686Y392935D01*
X82753Y393370D01*
X81759Y393636D01*
X80734Y393726D01*
X5931D02*
X4905Y393636D01*
X3911Y393370D01*
X2978Y392935D01*
X2135Y392344D01*
X1407Y391616D01*
X816Y390773D01*
X381Y389840D01*
X115Y388846D01*
X25Y387820D01*
Y62227D02*
X51Y61225D01*
X127Y60226D01*
X254Y59232D01*
X432Y58246D01*
X659Y57270D01*
X936Y56307D01*
X1262Y55360D01*
X1635Y54430D01*
X2055Y53520D01*
X2521Y52633D01*
X3031Y51771D01*
X3585Y50936D01*
X36882Y3383D02*
X37511Y2596D01*
X38236Y1897D01*
X39044Y1295D01*
X39922Y802D01*
X40855Y425D01*
X41830Y170D01*
X42829Y41D01*
X43836D01*
X44835Y170D01*
X45809Y425D01*
X46743Y802D01*
X47621Y1295D01*
X48428Y1897D01*
X49153Y2596D01*
X49782Y3383D01*
X83079Y50936D02*
X83633Y51771D01*
X84143Y52633D01*
X84609Y53520D01*
X85029Y54430D01*
X85403Y55360D01*
X85728Y56307D01*
X86005Y57270D01*
X86233Y58246D01*
X86410Y59232D01*
X86537Y60226D01*
X86614Y61225D01*
X86639Y62227D01*
X84696Y237000D02*
X83704Y236748D01*
X82973Y236032D01*
X82700Y235045D01*
X82959Y234055D01*
X83680Y233329D01*
X84668Y233063D01*
X2000D02*
X2988Y233329D01*
X3709Y234055D01*
X3968Y235045D01*
X3696Y236032D01*
X2965Y236748D01*
X1973Y237000D01*
X5931Y393726D02*
X80734D01*
X3585Y50936D02*
X36882Y3383D01*
X49782D02*
X83079Y50936D01*
X86639Y237000D02*
X86639Y387820D01*
X84668Y233063D02*
X86637D01*
X84696Y237000D02*
X86664D01*
X86637Y62227D02*
X86637Y233063D01*
X25D02*
X25Y62227D01*
X4Y237000D02*
X1973D01*
X0Y233063D02*
X1969D01*
X4Y387820D02*
X4Y237000D01*
D82*
X36882Y3383D02*
X37511Y2596D01*
X38236Y1897D01*
X39044Y1295D01*
X39922Y802D01*
X40855Y425D01*
X41830Y170D01*
X42829Y41D01*
X43836D01*
X44835Y170D01*
X45809Y425D01*
X46743Y802D01*
X47621Y1295D01*
X48428Y1897D01*
X49153Y2596D01*
X49782Y3383D01*
X83079Y50936D02*
X83633Y51771D01*
X84143Y52633D01*
X84609Y53520D01*
X85029Y54430D01*
X85403Y55360D01*
X85728Y56307D01*
X86005Y57270D01*
X86233Y58246D01*
X86410Y59232D01*
X86537Y60226D01*
X86614Y61225D01*
X86639Y62227D01*
X25Y62227D02*
X51Y61225D01*
X127Y60226D01*
X254Y59232D01*
X432Y58246D01*
X659Y57270D01*
X936Y56307D01*
X1262Y55360D01*
X1635Y54430D01*
X2055Y53520D01*
X2521Y52633D01*
X3031Y51771D01*
X3585Y50936D01*
X36882Y3383D01*
X49782D02*
X83079Y50936D01*
X86637Y62227D02*
X86637Y233063D01*
X25D02*
X25Y62227D01*
D83*
X84696Y237000D02*
X83704Y236748D01*
X82973Y236032D01*
X82700Y235045D01*
X82959Y234055D01*
X83680Y233329D01*
X84668Y233063D01*
X86639Y387820D02*
X86550Y388846D01*
X86283Y389840D01*
X85848Y390773D01*
X85258Y391616D01*
X84530Y392344D01*
X83686Y392935D01*
X82753Y393370D01*
X81759Y393636D01*
X80734Y393726D01*
X5931D02*
X4905Y393636D01*
X3911Y393370D01*
X2978Y392935D01*
X2135Y392344D01*
X1407Y391616D01*
X816Y390773D01*
X381Y389840D01*
X115Y388846D01*
X25Y387820D01*
X2000Y233063D02*
X2988Y233329D01*
X3709Y234055D01*
X3968Y235045D01*
X3696Y236032D01*
X2965Y236748D01*
X1973Y237000D01*
X86637Y62227D02*
X86639D01*
X84668Y233063D02*
X86637D01*
X84696Y237000D02*
X86639D01*
X86639Y387820D01*
Y387820D01*
X80734Y393726D02*
X80734Y393726D01*
X5931D02*
X80734D01*
X5931D02*
X5931Y393726D01*
X4Y387820D02*
X25Y387820D01*
X4Y387820D02*
X4Y237000D01*
X1973D01*
X25Y233063D02*
X2000D01*
D84*
X73469Y181694D02*
Y194446D01*
X14413Y181694D02*
X73469D01*
X14413Y168943D02*
Y181694D01*
Y168943D02*
X73469D01*
Y156191D02*
Y168943D01*
X14413Y156191D02*
X73469D01*
X14413Y143439D02*
Y156191D01*
Y143439D02*
X73469D01*
Y130688D02*
Y143439D01*
X14413Y130688D02*
X73469D01*
X14413Y117936D02*
Y130688D01*
Y117936D02*
X73469D01*
Y105184D02*
Y117936D01*
X14413Y105184D02*
X73469D01*
X14413Y92432D02*
Y105184D01*
Y92432D02*
X73469D01*
Y79681D02*
Y92432D01*
X14413Y79681D02*
X73469D01*
X14413Y66929D02*
Y79681D01*
Y66929D02*
X72201D01*
Y54177D02*
Y66929D01*
X24610Y54177D02*
X72201D01*
X24610Y41426D02*
Y54177D01*
Y41426D02*
X54343D01*
Y28674D02*
Y41426D01*
X20562Y28674D02*
X54343D01*
X14413Y194446D02*
X73469D01*
X14413D02*
Y207198D01*
X73469D02*
Y219949D01*
X14413Y207198D02*
X73469D01*
X14413Y219949D02*
X73469D01*
X14413D02*
Y233829D01*
D85*
X68000Y308000D02*
D03*
M02*
