M48
;Layer_Color=9474304
;FILE_FORMAT=2:5
INCH,TZ
;TYPE=PLATED
T1F00S00C0.01181
T2F00S00C0.01575
T3F00S00C0.02362
T4F00S00C0.02756
%
T01
X35504Y21500
Y34500
Y47500
Y60500
Y73500
Y86000
Y98500
Y111500
Y124500
Y137000
Y150000
X19756
Y137000
Y124500
Y111500
Y98500
Y86000
Y73500
Y60500
X51252
Y47500
Y34500
Y21500
Y73500
Y86000
Y98500
Y111500
Y124500
Y137000
Y150000
X67000
Y137000
Y124500
Y111500
Y98500
Y86000
Y73500
Y60500
Y162500
Y175500
Y188000
Y201000
X66929Y213500
X66858Y226000
X51110
X51181Y213500
X51252Y201000
Y188000
Y175500
Y162500
X35504
Y175500
Y188000
Y201000
X35433Y213500
X35362Y226000
X19614
X19685Y213500
X19756Y201000
Y188000
Y175500
Y162500
X13100Y237700
X3800Y240100
X8800Y253700
X16000Y257000
X14100Y259500
X18600Y269100
Y271800
Y274500
X23400Y279000
X22300Y283600
X25200Y284000
X24900Y290600
X26500Y293100
X24400Y295400
X31600
X37147Y293047
X44669Y291669
Y296000
Y300331
X49000
X53331
Y296000
X49000
Y291669
X53331
X58781Y286400
X65300Y286100
X71700Y286200
X71400Y280100
X65800Y278100
X71400Y269700
X72100Y254600
X68950
X65800
X68950Y251300
X72100
X76200Y247500
X83400
X73200Y237700
X58200Y236400
X48800Y241600
Y244800
X43300
Y241600
X43200Y236400
X37800Y241600
Y244800
X39200Y259100
X42700
X48900Y260400
X52400
X55800Y257300
X61100
Y251800
X55700Y273500
X49700Y277000
X42400
X39300Y279600
X33000Y278900
X31769Y267400
X38900Y267800
X41400
X48104Y266800
X46600Y281600
X43200Y283100
X33300Y302600
X28032Y300000
X21500Y301800
Y306300
X14600Y304000
X12900Y301600
X10000Y295000
X16300Y292200
X2600Y300700
X4900Y310900
X27500Y310000
X39400Y312200
X47000
X56400Y311100
X58900Y309100
X58500Y305700
X82900Y306600
X83800Y291600
X72300Y292900
X25800Y265000
X24800Y252500
X28125Y237700
X27400Y313000
X27000Y322800
X31300Y320200
X43300
X50200Y319400
X55600Y319100
X54900Y314700
X51886Y313800
X59500Y317400
X63000Y314200
X71500Y323000
X82900Y321600
X83000Y337000
X60800Y337200
X57100Y325900
X46900Y325689
X39800
X43300Y330095
X46800Y334500
X39700
X26933Y337200
X10000
X16800Y328100
X13800Y317400
X10500Y317900
X5200Y321200
T02
X7874Y365316
X15748
X23622
X31496
X39370
X47244
X55118
X62992
X70866
Y389332
X62992
X55118
X47244
X39370
X31496
X23622
X15748
X78740
T03
X4101Y336300
X16699
T04
X5000Y259000
Y264000
Y274000
Y279000
Y284000
Y289000
Y294000
M30
