G04*
G04 #@! TF.GenerationSoftware,Altium Limited,Altium Designer,19.0.15 (446)*
G04*
G04 Layer_Color=32896*
%FSLAX25Y25*%
%MOIN*%
G70*
G01*
G75*
%ADD15C,0.01000*%
%ADD16C,0.00050*%
D15*
X68896Y261373D02*
X69666Y261943D01*
X70424Y262528D01*
X71168Y263130D01*
X71899Y263748D01*
X72616Y264382D01*
X73320Y265031D01*
X74009Y265696D01*
X12591Y265696D02*
X13280Y265031D01*
X13984Y264382D01*
X14701Y263748D01*
X15432Y263130D01*
X16176Y262528D01*
X16934Y261942D01*
X17704Y261373D01*
X74009Y328025D02*
X73286Y328716D01*
X72548Y329391D01*
X71794Y330049D01*
X71026Y330690D01*
X70243Y331312D01*
X69447Y331917D01*
X68636Y332504D01*
X67813Y333072D01*
X66977Y333621D01*
X66128Y334151D01*
X65268Y334661D01*
X64397Y335152D01*
X63514Y335623D01*
X62621Y336073D01*
X61718Y336503D01*
X60805Y336912D01*
X59883Y337301D01*
X58953Y337668D01*
X58014Y338014D01*
X57068Y338339D01*
X56115Y338642D01*
X55155Y338923D01*
X54189Y339182D01*
X53217Y339419D01*
X52240Y339634D01*
X51258Y339826D01*
X50273Y339996D01*
X49283Y340144D01*
X48291Y340269D01*
X47296Y340371D01*
X46299Y340451D01*
X45300Y340508D01*
X44300Y340542D01*
X43300Y340554D01*
X42300Y340542D01*
X41300Y340508D01*
X40301Y340451D01*
X39304Y340371D01*
X38309Y340269D01*
X37317Y340144D01*
X36327Y339996D01*
X35342Y339826D01*
X34360Y339634D01*
X33383Y339419D01*
X32412Y339182D01*
X31445Y338923D01*
X30485Y338642D01*
X29532Y338339D01*
X28586Y338014D01*
X27647Y337668D01*
X26717Y337301D01*
X25795Y336912D01*
X24882Y336503D01*
X23979Y336073D01*
X23086Y335623D01*
X22204Y335152D01*
X21332Y334661D01*
X20471Y334151D01*
X19623Y333621D01*
X18787Y333072D01*
X17964Y332504D01*
X17153Y331917D01*
X16357Y331312D01*
X15574Y330690D01*
X14806Y330049D01*
X14052Y329391D01*
X13314Y328716D01*
X12591Y328025D01*
X68891Y245843D02*
Y261268D01*
X17709Y245843D02*
Y261268D01*
Y245843D02*
X30907D01*
Y251468D01*
X23407D02*
X30907D01*
X23407D02*
Y256968D01*
X28907D01*
Y259968D01*
X26907D02*
X28907D01*
X26907D02*
Y263469D01*
X59800D01*
Y259968D02*
Y263469D01*
X57800Y259968D02*
X59800D01*
X57800Y256968D02*
Y259968D01*
Y256968D02*
X63300D01*
Y251468D02*
Y256968D01*
X55800Y251468D02*
X63300D01*
X55800Y245843D02*
Y251468D01*
Y245843D02*
X68891D01*
X12591Y265696D02*
Y328219D01*
X74009Y265696D02*
Y328219D01*
D16*
X86639Y387820D02*
X86550Y388846D01*
X86283Y389840D01*
X85848Y390773D01*
X85258Y391616D01*
X84530Y392344D01*
X83686Y392935D01*
X82753Y393370D01*
X81759Y393636D01*
X80734Y393726D01*
X5931D02*
X4905Y393636D01*
X3911Y393370D01*
X2978Y392935D01*
X2135Y392344D01*
X1407Y391616D01*
X816Y390773D01*
X381Y389840D01*
X115Y388846D01*
X25Y387820D01*
Y62227D02*
X51Y61225D01*
X127Y60226D01*
X254Y59232D01*
X432Y58246D01*
X659Y57270D01*
X936Y56307D01*
X1262Y55360D01*
X1635Y54430D01*
X2055Y53520D01*
X2521Y52633D01*
X3031Y51771D01*
X3585Y50936D01*
X36882Y3383D02*
X37511Y2596D01*
X38236Y1897D01*
X39044Y1295D01*
X39922Y802D01*
X40855Y425D01*
X41830Y170D01*
X42829Y41D01*
X43836D01*
X44835Y170D01*
X45809Y425D01*
X46743Y802D01*
X47621Y1295D01*
X48428Y1897D01*
X49153Y2596D01*
X49782Y3383D01*
X83079Y50936D02*
X83633Y51771D01*
X84143Y52633D01*
X84609Y53520D01*
X85029Y54430D01*
X85403Y55360D01*
X85728Y56307D01*
X86005Y57270D01*
X86233Y58246D01*
X86410Y59232D01*
X86537Y60226D01*
X86614Y61225D01*
X86639Y62227D01*
X84696Y237000D02*
X83704Y236748D01*
X82973Y236032D01*
X82700Y235045D01*
X82959Y234055D01*
X83680Y233329D01*
X84668Y233063D01*
X2000D02*
X2988Y233329D01*
X3709Y234055D01*
X3968Y235045D01*
X3696Y236032D01*
X2965Y236748D01*
X1973Y237000D01*
X5931Y393726D02*
X80734D01*
X3585Y50936D02*
X36882Y3383D01*
X49782D02*
X83079Y50936D01*
X86639Y237000D02*
X86639Y387820D01*
X84668Y233063D02*
X86637D01*
X84696Y237000D02*
X86664D01*
X86637Y62227D02*
X86637Y233063D01*
X25D02*
X25Y62227D01*
X4Y237000D02*
X1973D01*
X0Y233063D02*
X1969D01*
X4Y387820D02*
X4Y237000D01*
M02*
