M48
;Layer_Color=9474304
;FILE_FORMAT=2:5
INCH,TZ
;TYPE=PLATED
T1F00S00C0.01181
T2F00S00C0.01575
T3F00S00C0.03543
%
T01
X317000Y219000
X288500
X277000Y267500
Y286000
X253000
X243000Y276000
X227000Y273000
Y261000
X253000Y264500
X244000Y305500
X220500
X200000Y310000
X195000
X176000Y305000
X162000
X169500Y293000
X203000Y286000
X206500Y235000
Y226500
X185000Y231000
X166500Y224500
X162500Y236000
X163000Y253500
X179000Y253000
X302000Y267500
X303000Y286000
X296500Y308000
X270000
X270500Y327500
X287500Y326000
X306500Y338000
X309000Y312500
X295500Y357500
X272000Y356500
X262500Y384000
X283000
X310000
X300500Y410500
X280500Y410000
X207500Y409500
X189500
X181000Y399000
X175000Y391000
X186000Y386000
X176500Y374000
X174500Y366500
X172000Y364000
X169500Y361500
X167000Y359000
X164500Y356500
X162000Y354000
X162500Y332000
X179984Y321291
X183984
Y317291
X179984
X191000Y326000
X207000Y327000
X201500Y314500
X203500Y349500
X207500
X211500
X215500
X199500
X198000Y372500
X213000Y368500
X199000Y398000
X169000Y405000
X317500Y410500
X316500Y364500
T02
X209500Y303592
X213500Y312000
X218000
X222500
X234500Y303592
X259500
X284500
X309500
X194500Y316000
T03
X315740Y224961
Y234961
X315441Y249724
X305441
X290441
X280441
X265441
X255441
X240441
X230441
X215441
X205441
X225740Y234961
Y224961
X235740
X245740
X255740
Y234961
X265740
Y224961
X275740
X285740
X295740
Y234961
X305740
Y224961
X285740Y234961
X275740
X245740
X235740
X147000Y230000
Y240000
Y250000
Y260000
Y270000
Y280000
Y290000
Y300000
Y310000
X137000
Y300000
Y290000
Y280000
Y270000
Y260000
Y250000
Y240000
Y230000
Y220000
X147000
Y320000
Y330000
Y340000
Y350000
Y360000
Y370000
Y380000
Y390000
Y400000
Y410000
X137000
Y400000
Y390000
Y380000
Y370000
Y360000
Y350000
Y340000
Y330000
Y320000
X160000Y375000
Y385000
Y400000
Y410000
X225740Y404961
Y394961
X235740
X245740
X255740
Y404961
X265740
Y394961
X275740
X285740
X295740
Y404961
X305740
Y394961
X285740Y404961
X275740
X245740
X235740
X315740
Y394961
M30
