G04*
G04 #@! TF.GenerationSoftware,Altium Limited,Altium Designer,19.0.15 (446)*
G04*
G04 Layer_Physical_Order=1*
G04 Layer_Color=255*
%FSLAX25Y25*%
%MOIN*%
G70*
G01*
G75*
%ADD13C,0.01000*%
%ADD33R,0.03543X0.03740*%
%ADD34R,0.01968X0.02362*%
%ADD35R,0.03740X0.02953*%
%ADD36R,0.07087X0.05118*%
%ADD37R,0.02362X0.01968*%
%ADD38R,0.03937X0.08465*%
%ADD39R,0.12795X0.08465*%
%ADD40R,0.04528X0.11024*%
%ADD41R,0.00984X0.02362*%
%ADD42R,0.02362X0.00984*%
%ADD43R,0.06614X0.06614*%
%ADD44R,0.03937X0.13386*%
%ADD45R,0.03937X0.02362*%
%ADD46C,0.00700*%
%ADD47R,0.05906X0.05906*%
%ADD48C,0.05906*%
%ADD49O,0.19685X0.07874*%
%ADD50O,0.07874X0.19685*%
%ADD51R,0.05906X0.05906*%
%ADD52C,0.02362*%
%ADD53C,0.02756*%
G36*
X232453Y411335D02*
X232518Y410880D01*
X232279Y410721D01*
X230279Y408721D01*
X230058Y408390D01*
X229980Y408000D01*
Y406359D01*
X229480Y406260D01*
X229193Y406954D01*
X228559Y407780D01*
X227734Y408413D01*
X226772Y408812D01*
X226240Y408882D01*
Y404961D01*
Y401040D01*
X226772Y401110D01*
X227734Y401508D01*
X228559Y402142D01*
X229193Y402967D01*
X229480Y403661D01*
X229980Y403562D01*
Y392422D01*
X227578Y390020D01*
X204669D01*
X204448Y390465D01*
X204444Y390502D01*
X225322Y411380D01*
X232435D01*
X232453Y411335D01*
D02*
G37*
G36*
X321487Y215513D02*
X132513Y215513D01*
X132513Y414487D01*
X140480D01*
X140980Y414487D01*
Y395000D01*
X141058Y394610D01*
X141279Y394279D01*
X141610Y394058D01*
X142000Y393980D01*
X144974D01*
X145073Y393480D01*
X145007Y393453D01*
X144181Y392819D01*
X143547Y391993D01*
X143149Y391032D01*
X143079Y390500D01*
X147000D01*
Y390000D01*
X147500D01*
Y386079D01*
X148032Y386149D01*
X148993Y386547D01*
X149819Y387181D01*
X150453Y388007D01*
X150480Y388073D01*
X150980Y387974D01*
Y352026D01*
X150480Y351927D01*
X150453Y351993D01*
X149819Y352819D01*
X148993Y353453D01*
X148032Y353851D01*
X147500Y353921D01*
Y350000D01*
Y346079D01*
X148032Y346149D01*
X148993Y346547D01*
X149819Y347181D01*
X150453Y348007D01*
X150851Y348968D01*
X150974Y349904D01*
X151249Y350081D01*
X151471Y350150D01*
X151610Y350058D01*
X152000Y349980D01*
X160385D01*
X160576Y349518D01*
X154279Y343221D01*
X154058Y342890D01*
X153980Y342500D01*
Y330422D01*
X149578Y326020D01*
X142000D01*
X141610Y325942D01*
X141279Y325721D01*
X138623Y323065D01*
X137901Y323364D01*
X137000Y323482D01*
X136099Y323364D01*
X135259Y323016D01*
X134537Y322463D01*
X133984Y321741D01*
X133636Y320901D01*
X133518Y320000D01*
X133636Y319099D01*
X133984Y318259D01*
X134537Y317537D01*
X135259Y316984D01*
X136099Y316636D01*
X137000Y316517D01*
X137901Y316636D01*
X138741Y316984D01*
X139462Y317537D01*
X140016Y318259D01*
X140364Y319099D01*
X140482Y320000D01*
X140364Y320901D01*
X140065Y321623D01*
X142422Y323980D01*
X144974D01*
X145073Y323480D01*
X145007Y323453D01*
X144181Y322819D01*
X143547Y321993D01*
X143149Y321032D01*
X143079Y320500D01*
X147000D01*
X150921D01*
X150851Y321032D01*
X150453Y321993D01*
X149819Y322819D01*
X148993Y323453D01*
X148927Y323480D01*
X149026Y323980D01*
X150000D01*
X150390Y324058D01*
X150721Y324279D01*
X155480Y329039D01*
X155980Y328831D01*
Y320422D01*
X151578Y316020D01*
X149026D01*
X148927Y316520D01*
X148993Y316547D01*
X149819Y317181D01*
X150453Y318007D01*
X150851Y318968D01*
X150921Y319500D01*
X147000D01*
X143079D01*
X143149Y318968D01*
X143547Y318007D01*
X144181Y317181D01*
X145007Y316547D01*
X145073Y316520D01*
X144974Y316020D01*
X142000D01*
X141610Y315942D01*
X141279Y315721D01*
X138623Y313065D01*
X137901Y313364D01*
X137000Y313482D01*
X136099Y313364D01*
X135259Y313016D01*
X134537Y312462D01*
X133984Y311741D01*
X133636Y310901D01*
X133518Y310000D01*
X133636Y309099D01*
X133984Y308259D01*
X134537Y307538D01*
X135259Y306984D01*
X136099Y306636D01*
X137000Y306518D01*
X137901Y306636D01*
X138741Y306984D01*
X139462Y307538D01*
X140016Y308259D01*
X140364Y309099D01*
X140482Y310000D01*
X140364Y310901D01*
X140065Y311623D01*
X142422Y313980D01*
X152000D01*
X152390Y314058D01*
X152721Y314279D01*
X157480Y319039D01*
X157980Y318831D01*
Y312422D01*
X148623Y303065D01*
X147901Y303364D01*
X147000Y303483D01*
X146099Y303364D01*
X145259Y303016D01*
X144537Y302463D01*
X143984Y301741D01*
X143636Y300901D01*
X143517Y300000D01*
X143636Y299099D01*
X143984Y298259D01*
X144537Y297537D01*
X145259Y296984D01*
X146099Y296636D01*
X147000Y296517D01*
X147901Y296636D01*
X148741Y296984D01*
X149462Y297537D01*
X150016Y298259D01*
X150364Y299099D01*
X150482Y300000D01*
X150364Y300901D01*
X150065Y301623D01*
X159721Y311279D01*
X159942Y311610D01*
X160020Y312000D01*
Y340078D01*
X205922Y385980D01*
X236000D01*
X236390Y386058D01*
X236721Y386279D01*
X240779Y390338D01*
X255980Y375137D01*
Y361453D01*
X255319D01*
Y358484D01*
X258681D01*
Y361453D01*
X258020D01*
Y375559D01*
X257942Y375949D01*
X257721Y376280D01*
X241799Y392202D01*
Y394613D01*
X242299Y394645D01*
X242376Y394059D01*
X242724Y393219D01*
X243278Y392498D01*
X243999Y391945D01*
X244839Y391597D01*
X245740Y391478D01*
X246641Y391597D01*
X247481Y391945D01*
X248203Y392498D01*
X248756Y393219D01*
X249104Y394059D01*
X249223Y394961D01*
X249104Y395862D01*
X248756Y396702D01*
X248203Y397423D01*
X247481Y397977D01*
X246641Y398324D01*
X245740Y398443D01*
X244839Y398324D01*
X243999Y397977D01*
X243278Y397423D01*
X242724Y396702D01*
X242376Y395862D01*
X242299Y395276D01*
X241799Y395309D01*
Y399578D01*
X244117Y401896D01*
X244839Y401597D01*
X245740Y401478D01*
X246641Y401597D01*
X247481Y401945D01*
X248203Y402498D01*
X248756Y403219D01*
X249104Y404059D01*
X249223Y404961D01*
X249104Y405862D01*
X248756Y406702D01*
X248203Y407423D01*
X247481Y407977D01*
X246641Y408324D01*
X245740Y408443D01*
X244839Y408324D01*
X243999Y407977D01*
X243278Y407423D01*
X242724Y406702D01*
X242376Y405862D01*
X242258Y404961D01*
X242376Y404059D01*
X242675Y403338D01*
X240059Y400721D01*
X239838Y400390D01*
X239760Y400000D01*
Y392202D01*
X235578Y388020D01*
X229169D01*
X228961Y388520D01*
X231721Y391279D01*
X231942Y391610D01*
X232020Y392000D01*
Y393614D01*
X232520Y393713D01*
X232724Y393219D01*
X233278Y392498D01*
X233999Y391945D01*
X234839Y391597D01*
X235740Y391478D01*
X236642Y391597D01*
X237481Y391945D01*
X238203Y392498D01*
X238756Y393219D01*
X239104Y394059D01*
X239223Y394961D01*
X239104Y395862D01*
X238756Y396702D01*
X238203Y397423D01*
X237481Y397977D01*
X236642Y398324D01*
X235740Y398443D01*
X234839Y398324D01*
X233999Y397977D01*
X233278Y397423D01*
X232724Y396702D01*
X232520Y396208D01*
X232020Y396307D01*
Y403614D01*
X232520Y403713D01*
X232724Y403219D01*
X233278Y402498D01*
X233999Y401945D01*
X234839Y401597D01*
X235740Y401478D01*
X236642Y401597D01*
X237481Y401945D01*
X238203Y402498D01*
X238756Y403219D01*
X239104Y404059D01*
X239223Y404961D01*
X239104Y405862D01*
X238756Y406702D01*
X238203Y407423D01*
X237481Y407977D01*
X236642Y408324D01*
X235740Y408443D01*
X234839Y408324D01*
X233999Y407977D01*
X233278Y407423D01*
X232724Y406702D01*
X232520Y406208D01*
X232020Y406307D01*
Y407578D01*
X233422Y408980D01*
X257578D01*
X259780Y406778D01*
Y402500D01*
X259858Y402110D01*
X260079Y401779D01*
X262579Y399279D01*
X262910Y399058D01*
X263300Y398980D01*
X280780D01*
X281170Y399058D01*
X281501Y399279D01*
X284117Y401896D01*
X284839Y401597D01*
X285740Y401478D01*
X286642Y401597D01*
X287481Y401945D01*
X288203Y402498D01*
X288756Y403219D01*
X289104Y404059D01*
X289223Y404961D01*
X289104Y405862D01*
X288756Y406702D01*
X288203Y407423D01*
X287481Y407977D01*
X286642Y408324D01*
X285740Y408443D01*
X284839Y408324D01*
X283999Y407977D01*
X283278Y407423D01*
X282724Y406702D01*
X282376Y405862D01*
X282258Y404961D01*
X282376Y404059D01*
X282675Y403338D01*
X280357Y401020D01*
X276088D01*
X276055Y401520D01*
X276642Y401597D01*
X277481Y401945D01*
X278203Y402498D01*
X278756Y403219D01*
X279104Y404059D01*
X279223Y404961D01*
X279104Y405862D01*
X278756Y406702D01*
X278203Y407423D01*
X277481Y407977D01*
X276642Y408324D01*
X275740Y408443D01*
X274839Y408324D01*
X274117Y408026D01*
X269022Y413121D01*
X268691Y413342D01*
X268301Y413420D01*
X224900D01*
X224510Y413342D01*
X224179Y413121D01*
X179865Y368807D01*
X179302Y368888D01*
X179270Y368919D01*
X179068Y369221D01*
X178737Y369442D01*
X178347Y369520D01*
X160020D01*
Y371520D01*
X160901Y371636D01*
X161741Y371984D01*
X162462Y372537D01*
X163016Y373259D01*
X163364Y374099D01*
X163482Y375000D01*
X163364Y375901D01*
X163016Y376741D01*
X162462Y377463D01*
X161741Y378016D01*
X160901Y378364D01*
X160020Y378480D01*
Y381547D01*
X163453D01*
Y388453D01*
X160020D01*
Y396520D01*
X160901Y396636D01*
X161741Y396984D01*
X162462Y397537D01*
X163016Y398259D01*
X163364Y399099D01*
X163482Y400000D01*
X163364Y400901D01*
X163016Y401741D01*
X162462Y402462D01*
X161741Y403016D01*
X160901Y403364D01*
X160020Y403480D01*
Y406547D01*
X163453D01*
Y413453D01*
X160020D01*
Y414487D01*
X160520Y414487D01*
X321487Y414487D01*
X321487Y215513D01*
D02*
G37*
G36*
X272675Y406584D02*
X272376Y405862D01*
X272258Y404961D01*
X272376Y404059D01*
X272724Y403219D01*
X273278Y402498D01*
X273999Y401945D01*
X274839Y401597D01*
X275425Y401520D01*
X275392Y401020D01*
X266088D01*
X266055Y401520D01*
X266641Y401597D01*
X267481Y401945D01*
X268203Y402498D01*
X268756Y403219D01*
X269104Y404059D01*
X269223Y404961D01*
X269104Y405862D01*
X268756Y406702D01*
X268203Y407423D01*
X267481Y407977D01*
X266641Y408324D01*
X265740Y408443D01*
X264839Y408324D01*
X263999Y407977D01*
X263278Y407423D01*
X262724Y406702D01*
X262376Y405862D01*
X262320Y405431D01*
X261820Y405464D01*
Y407200D01*
X261742Y407590D01*
X261521Y407921D01*
X258721Y410721D01*
X258482Y410880D01*
X258547Y411335D01*
X258565Y411380D01*
X267879D01*
X272675Y406584D01*
D02*
G37*
G36*
X159000Y413453D02*
X156547D01*
Y406547D01*
X159000D01*
Y403323D01*
X158259Y403016D01*
X157537Y402462D01*
X156984Y401741D01*
X156636Y400901D01*
X156518Y400000D01*
X156636Y399099D01*
X156984Y398259D01*
X157537Y397537D01*
X158259Y396984D01*
X159000Y396677D01*
Y388453D01*
X156547D01*
Y381547D01*
X159000D01*
Y378323D01*
X158259Y378016D01*
X157537Y377463D01*
X156984Y376741D01*
X156636Y375901D01*
X156518Y375000D01*
X156636Y374099D01*
X156984Y373259D01*
X157537Y372537D01*
X158259Y371984D01*
X159000Y371677D01*
Y368500D01*
X178347D01*
X178538Y368038D01*
X161500Y351000D01*
X152000D01*
Y395000D01*
X142000D01*
Y414487D01*
X159000D01*
Y413453D01*
D02*
G37*
%LPC*%
G36*
X225240Y408882D02*
X224708Y408812D01*
X223747Y408413D01*
X222921Y407780D01*
X222287Y406954D01*
X221889Y405993D01*
X221819Y405461D01*
X225240D01*
Y408882D01*
D02*
G37*
G36*
Y404461D02*
X221819D01*
X221889Y403929D01*
X222287Y402967D01*
X222921Y402142D01*
X223747Y401508D01*
X224708Y401110D01*
X225240Y401040D01*
Y404461D01*
D02*
G37*
G36*
X225740Y398443D02*
X224839Y398324D01*
X223999Y397977D01*
X223278Y397423D01*
X222724Y396702D01*
X222376Y395862D01*
X222258Y394961D01*
X222376Y394059D01*
X222724Y393219D01*
X223278Y392498D01*
X223999Y391945D01*
X224839Y391597D01*
X225740Y391478D01*
X226642Y391597D01*
X227481Y391945D01*
X228203Y392498D01*
X228756Y393219D01*
X229104Y394059D01*
X229223Y394961D01*
X229104Y395862D01*
X228756Y396702D01*
X228203Y397423D01*
X227481Y397977D01*
X226642Y398324D01*
X225740Y398443D01*
D02*
G37*
G36*
X140453Y413453D02*
X133547D01*
Y406547D01*
X140453D01*
Y413453D01*
D02*
G37*
G36*
X315740Y408443D02*
X314839Y408324D01*
X313999Y407977D01*
X313278Y407423D01*
X312724Y406702D01*
X312376Y405862D01*
X312258Y404961D01*
X312376Y404059D01*
X312724Y403219D01*
X313278Y402498D01*
X313999Y401945D01*
X314839Y401597D01*
X315740Y401478D01*
X316641Y401597D01*
X317481Y401945D01*
X318203Y402498D01*
X318756Y403219D01*
X319104Y404059D01*
X319223Y404961D01*
X319104Y405862D01*
X318756Y406702D01*
X318203Y407423D01*
X317481Y407977D01*
X316641Y408324D01*
X315740Y408443D01*
D02*
G37*
G36*
X305740D02*
X304839Y408324D01*
X303999Y407977D01*
X303278Y407423D01*
X302724Y406702D01*
X302376Y405862D01*
X302258Y404961D01*
X302376Y404059D01*
X302724Y403219D01*
X303278Y402498D01*
X303999Y401945D01*
X304839Y401597D01*
X305740Y401478D01*
X306642Y401597D01*
X307481Y401945D01*
X308203Y402498D01*
X308756Y403219D01*
X309104Y404059D01*
X309223Y404961D01*
X309104Y405862D01*
X308756Y406702D01*
X308203Y407423D01*
X307481Y407977D01*
X306642Y408324D01*
X305740Y408443D01*
D02*
G37*
G36*
X295740D02*
X294839Y408324D01*
X293999Y407977D01*
X293278Y407423D01*
X292724Y406702D01*
X292376Y405862D01*
X292258Y404961D01*
X292376Y404059D01*
X292724Y403219D01*
X293278Y402498D01*
X293999Y401945D01*
X294839Y401597D01*
X295740Y401478D01*
X296641Y401597D01*
X297481Y401945D01*
X298203Y402498D01*
X298756Y403219D01*
X299104Y404059D01*
X299223Y404961D01*
X299104Y405862D01*
X298756Y406702D01*
X298203Y407423D01*
X297481Y407977D01*
X296641Y408324D01*
X295740Y408443D01*
D02*
G37*
G36*
X255740D02*
X254839Y408324D01*
X253999Y407977D01*
X253278Y407423D01*
X252724Y406702D01*
X252376Y405862D01*
X252258Y404961D01*
X252376Y404059D01*
X252724Y403219D01*
X253278Y402498D01*
X253999Y401945D01*
X254839Y401597D01*
X255740Y401478D01*
X256642Y401597D01*
X257481Y401945D01*
X258203Y402498D01*
X258756Y403219D01*
X259104Y404059D01*
X259223Y404961D01*
X259104Y405862D01*
X258756Y406702D01*
X258203Y407423D01*
X257481Y407977D01*
X256642Y408324D01*
X255740Y408443D01*
D02*
G37*
G36*
X137000Y403482D02*
X136099Y403364D01*
X135259Y403016D01*
X134537Y402462D01*
X133984Y401741D01*
X133636Y400901D01*
X133518Y400000D01*
X133636Y399099D01*
X133984Y398259D01*
X134537Y397537D01*
X135259Y396984D01*
X136099Y396636D01*
X137000Y396517D01*
X137901Y396636D01*
X138741Y396984D01*
X139462Y397537D01*
X140016Y398259D01*
X140364Y399099D01*
X140482Y400000D01*
X140364Y400901D01*
X140016Y401741D01*
X139462Y402462D01*
X138741Y403016D01*
X137901Y403364D01*
X137000Y403482D01*
D02*
G37*
G36*
X315740Y398443D02*
X314839Y398324D01*
X313999Y397977D01*
X313278Y397423D01*
X312724Y396702D01*
X312376Y395862D01*
X312258Y394961D01*
X312376Y394059D01*
X312724Y393219D01*
X313278Y392498D01*
X313999Y391945D01*
X314839Y391597D01*
X315740Y391478D01*
X316641Y391597D01*
X317481Y391945D01*
X318203Y392498D01*
X318756Y393219D01*
X319104Y394059D01*
X319223Y394961D01*
X319104Y395862D01*
X318756Y396702D01*
X318203Y397423D01*
X317481Y397977D01*
X316641Y398324D01*
X315740Y398443D01*
D02*
G37*
G36*
X305740D02*
X304839Y398324D01*
X303999Y397977D01*
X303278Y397423D01*
X302724Y396702D01*
X302376Y395862D01*
X302258Y394961D01*
X302376Y394059D01*
X302724Y393219D01*
X303278Y392498D01*
X303999Y391945D01*
X304839Y391597D01*
X305740Y391478D01*
X306642Y391597D01*
X307481Y391945D01*
X308203Y392498D01*
X308756Y393219D01*
X309104Y394059D01*
X309223Y394961D01*
X309104Y395862D01*
X308756Y396702D01*
X308203Y397423D01*
X307481Y397977D01*
X306642Y398324D01*
X305740Y398443D01*
D02*
G37*
G36*
X295740D02*
X294839Y398324D01*
X293999Y397977D01*
X293278Y397423D01*
X292724Y396702D01*
X292376Y395862D01*
X292258Y394961D01*
X292376Y394059D01*
X292724Y393219D01*
X293278Y392498D01*
X293999Y391945D01*
X294839Y391597D01*
X295740Y391478D01*
X296641Y391597D01*
X297481Y391945D01*
X298203Y392498D01*
X298756Y393219D01*
X299104Y394059D01*
X299223Y394961D01*
X299104Y395862D01*
X298756Y396702D01*
X298203Y397423D01*
X297481Y397977D01*
X296641Y398324D01*
X295740Y398443D01*
D02*
G37*
G36*
X285740D02*
X284839Y398324D01*
X283999Y397977D01*
X283278Y397423D01*
X282724Y396702D01*
X282376Y395862D01*
X282258Y394961D01*
X282376Y394059D01*
X282724Y393219D01*
X283278Y392498D01*
X283999Y391945D01*
X284839Y391597D01*
X285740Y391478D01*
X286642Y391597D01*
X287481Y391945D01*
X288203Y392498D01*
X288756Y393219D01*
X289104Y394059D01*
X289223Y394961D01*
X289104Y395862D01*
X288756Y396702D01*
X288203Y397423D01*
X287481Y397977D01*
X286642Y398324D01*
X285740Y398443D01*
D02*
G37*
G36*
X275740D02*
X274839Y398324D01*
X273999Y397977D01*
X273278Y397423D01*
X272724Y396702D01*
X272376Y395862D01*
X272258Y394961D01*
X272376Y394059D01*
X272724Y393219D01*
X273278Y392498D01*
X273999Y391945D01*
X274839Y391597D01*
X275740Y391478D01*
X276642Y391597D01*
X277481Y391945D01*
X278203Y392498D01*
X278756Y393219D01*
X279104Y394059D01*
X279223Y394961D01*
X279104Y395862D01*
X278756Y396702D01*
X278203Y397423D01*
X277481Y397977D01*
X276642Y398324D01*
X275740Y398443D01*
D02*
G37*
G36*
X265740D02*
X264839Y398324D01*
X263999Y397977D01*
X263278Y397423D01*
X262724Y396702D01*
X262376Y395862D01*
X262258Y394961D01*
X262376Y394059D01*
X262724Y393219D01*
X263278Y392498D01*
X263999Y391945D01*
X264839Y391597D01*
X265740Y391478D01*
X266641Y391597D01*
X267481Y391945D01*
X268203Y392498D01*
X268756Y393219D01*
X269104Y394059D01*
X269223Y394961D01*
X269104Y395862D01*
X268756Y396702D01*
X268203Y397423D01*
X267481Y397977D01*
X266641Y398324D01*
X265740Y398443D01*
D02*
G37*
G36*
X255740D02*
X254839Y398324D01*
X253999Y397977D01*
X253278Y397423D01*
X252724Y396702D01*
X252376Y395862D01*
X252258Y394961D01*
X252376Y394059D01*
X252724Y393219D01*
X253278Y392498D01*
X253999Y391945D01*
X254839Y391597D01*
X255740Y391478D01*
X256642Y391597D01*
X257481Y391945D01*
X258203Y392498D01*
X258756Y393219D01*
X259104Y394059D01*
X259223Y394961D01*
X259104Y395862D01*
X258756Y396702D01*
X258203Y397423D01*
X257481Y397977D01*
X256642Y398324D01*
X255740Y398443D01*
D02*
G37*
G36*
X137000Y393482D02*
X136099Y393364D01*
X135259Y393016D01*
X134537Y392462D01*
X133984Y391741D01*
X133636Y390901D01*
X133518Y390000D01*
X133636Y389099D01*
X133984Y388259D01*
X134537Y387538D01*
X135259Y386984D01*
X136099Y386636D01*
X137000Y386518D01*
X137901Y386636D01*
X138741Y386984D01*
X139462Y387538D01*
X140016Y388259D01*
X140364Y389099D01*
X140482Y390000D01*
X140364Y390901D01*
X140016Y391741D01*
X139462Y392462D01*
X138741Y393016D01*
X137901Y393364D01*
X137000Y393482D01*
D02*
G37*
G36*
X146500Y389500D02*
X143079D01*
X143149Y388968D01*
X143547Y388007D01*
X144181Y387181D01*
X145007Y386547D01*
X145968Y386149D01*
X146500Y386079D01*
Y389500D01*
D02*
G37*
G36*
X147000Y383483D02*
X146099Y383364D01*
X145259Y383016D01*
X144537Y382463D01*
X143984Y381741D01*
X143636Y380901D01*
X143517Y380000D01*
X143636Y379099D01*
X143984Y378259D01*
X144537Y377537D01*
X145259Y376984D01*
X146099Y376636D01*
X147000Y376518D01*
X147901Y376636D01*
X148741Y376984D01*
X149462Y377537D01*
X150016Y378259D01*
X150364Y379099D01*
X150482Y380000D01*
X150364Y380901D01*
X150016Y381741D01*
X149462Y382463D01*
X148741Y383016D01*
X147901Y383364D01*
X147000Y383483D01*
D02*
G37*
G36*
X137000D02*
X136099Y383364D01*
X135259Y383016D01*
X134537Y382463D01*
X133984Y381741D01*
X133636Y380901D01*
X133518Y380000D01*
X133636Y379099D01*
X133984Y378259D01*
X134537Y377537D01*
X135259Y376984D01*
X136099Y376636D01*
X137000Y376518D01*
X137901Y376636D01*
X138741Y376984D01*
X139462Y377537D01*
X140016Y378259D01*
X140364Y379099D01*
X140482Y380000D01*
X140364Y380901D01*
X140016Y381741D01*
X139462Y382463D01*
X138741Y383016D01*
X137901Y383364D01*
X137000Y383483D01*
D02*
G37*
G36*
X137500Y373921D02*
Y370500D01*
X140921D01*
X140851Y371032D01*
X140453Y371993D01*
X139819Y372819D01*
X138993Y373453D01*
X138032Y373851D01*
X137500Y373921D01*
D02*
G37*
G36*
X136500D02*
X135968Y373851D01*
X135007Y373453D01*
X134181Y372819D01*
X133547Y371993D01*
X133149Y371032D01*
X133079Y370500D01*
X136500D01*
Y373921D01*
D02*
G37*
G36*
X147000Y373482D02*
X146099Y373364D01*
X145259Y373016D01*
X144537Y372463D01*
X143984Y371741D01*
X143636Y370901D01*
X143517Y370000D01*
X143636Y369099D01*
X143984Y368259D01*
X144537Y367537D01*
X145259Y366984D01*
X146099Y366636D01*
X147000Y366517D01*
X147901Y366636D01*
X148741Y366984D01*
X149462Y367537D01*
X150016Y368259D01*
X150364Y369099D01*
X150482Y370000D01*
X150364Y370901D01*
X150016Y371741D01*
X149462Y372463D01*
X148741Y373016D01*
X147901Y373364D01*
X147000Y373482D01*
D02*
G37*
G36*
X140921Y369500D02*
X137500D01*
Y366079D01*
X138032Y366149D01*
X138993Y366547D01*
X139819Y367181D01*
X140453Y368007D01*
X140851Y368968D01*
X140921Y369500D01*
D02*
G37*
G36*
X136500D02*
X133079D01*
X133149Y368968D01*
X133547Y368007D01*
X134181Y367181D01*
X135007Y366547D01*
X135968Y366149D01*
X136500Y366079D01*
Y369500D01*
D02*
G37*
G36*
X191502Y360260D02*
X188139D01*
Y359642D01*
X185502D01*
Y360260D01*
X182140D01*
Y357323D01*
X182140Y357291D01*
X182063Y356823D01*
X181640D01*
Y355339D01*
X186002D01*
Y356823D01*
X185578D01*
X185502Y357291D01*
X185502Y357323D01*
Y357909D01*
X188139D01*
Y357291D01*
X191502D01*
Y360260D01*
D02*
G37*
G36*
X252465Y364512D02*
X249701D01*
Y358500D01*
X252465D01*
Y364512D01*
D02*
G37*
G36*
X248701D02*
X245937D01*
Y358500D01*
X248701D01*
Y364512D01*
D02*
G37*
G36*
X147000Y363482D02*
X146099Y363364D01*
X145259Y363016D01*
X144537Y362462D01*
X143984Y361741D01*
X143636Y360901D01*
X143517Y360000D01*
X143636Y359099D01*
X143984Y358259D01*
X144537Y357538D01*
X145259Y356984D01*
X146099Y356636D01*
X147000Y356518D01*
X147901Y356636D01*
X148741Y356984D01*
X149462Y357538D01*
X150016Y358259D01*
X150364Y359099D01*
X150482Y360000D01*
X150364Y360901D01*
X150016Y361741D01*
X149462Y362462D01*
X148741Y363016D01*
X147901Y363364D01*
X147000Y363482D01*
D02*
G37*
G36*
X137000D02*
X136099Y363364D01*
X135259Y363016D01*
X134537Y362462D01*
X133984Y361741D01*
X133636Y360901D01*
X133518Y360000D01*
X133636Y359099D01*
X133984Y358259D01*
X134537Y357538D01*
X135259Y356984D01*
X136099Y356636D01*
X137000Y356518D01*
X137901Y356636D01*
X138741Y356984D01*
X139462Y357538D01*
X140016Y358259D01*
X140364Y359099D01*
X140482Y360000D01*
X140364Y360901D01*
X140016Y361741D01*
X139462Y362462D01*
X138741Y363016D01*
X137901Y363364D01*
X137000Y363482D01*
D02*
G37*
G36*
X186002Y354339D02*
X184321D01*
Y352854D01*
X186002D01*
Y354339D01*
D02*
G37*
G36*
X183321D02*
X181640D01*
Y352854D01*
X183321D01*
Y354339D01*
D02*
G37*
G36*
X252465Y357500D02*
X249701D01*
Y351488D01*
X252465D01*
Y357500D01*
D02*
G37*
G36*
X248701D02*
X245937D01*
Y351488D01*
X248701D01*
Y357500D01*
D02*
G37*
G36*
X243500Y367520D02*
X232500D01*
X232110Y367442D01*
X231779Y367221D01*
X218078Y353520D01*
X209807Y353520D01*
X199018D01*
X198628Y353442D01*
X198297Y353221D01*
X195887Y350811D01*
X195308Y350939D01*
X195205Y351093D01*
X191502Y354796D01*
Y356323D01*
X188139D01*
Y353354D01*
X190060D01*
X191758Y351657D01*
X191566Y351195D01*
X175175D01*
X174785Y351117D01*
X174454Y350896D01*
X165311Y341752D01*
X165089Y341422D01*
X165012Y341031D01*
Y327264D01*
X164547D01*
Y323902D01*
X167516D01*
Y327264D01*
X167051D01*
Y340609D01*
X175010Y348568D01*
X175471Y348322D01*
X175465Y348291D01*
X175465Y330791D01*
X175542Y330401D01*
X175763Y330070D01*
X178691Y327143D01*
X178499Y326681D01*
X178039D01*
Y326311D01*
X171453D01*
Y327264D01*
X168484D01*
Y323902D01*
X171453D01*
Y324272D01*
X178039D01*
Y323736D01*
X176776D01*
Y322244D01*
X176276D01*
Y321744D01*
X174094D01*
Y320776D01*
X176276D01*
Y319776D01*
X174094D01*
Y318807D01*
X176276D01*
Y317807D01*
X174094D01*
Y316839D01*
X176276D01*
Y315839D01*
X174094D01*
Y314846D01*
X173696Y314602D01*
X171740D01*
X171350Y314525D01*
X171019Y314304D01*
X169928Y313213D01*
X166630D01*
Y309260D01*
X171370D01*
Y311771D01*
X172162Y312563D01*
X178039D01*
Y311902D01*
X178560D01*
X178965Y311402D01*
Y293291D01*
X178980Y293212D01*
X178980Y289520D01*
X158500D01*
X158110Y289442D01*
X157779Y289221D01*
X157558Y288890D01*
X157480Y288500D01*
Y257000D01*
X157558Y256610D01*
X157779Y256279D01*
X158110Y256058D01*
X158500Y255980D01*
X185000Y255980D01*
X185390Y256058D01*
X185721Y256279D01*
X185942Y256610D01*
X186020Y257000D01*
Y267980D01*
X186520Y267980D01*
X190004D01*
X190104Y267480D01*
X189014Y267029D01*
X187983Y266238D01*
X187191Y265206D01*
X186694Y264005D01*
X186524Y262717D01*
Y257311D01*
X191504D01*
Y256811D01*
X192004D01*
Y245992D01*
X192793Y246096D01*
X193994Y246593D01*
X195025Y247384D01*
X195480Y247978D01*
X195980Y247808D01*
Y239756D01*
X196058Y239366D01*
X196279Y239035D01*
X196610Y238814D01*
X197000Y238736D01*
X200441D01*
X224526D01*
X224626Y238236D01*
X223999Y237977D01*
X223278Y237423D01*
X222724Y236702D01*
X222376Y235862D01*
X222258Y234961D01*
X222376Y234059D01*
X222724Y233219D01*
X223278Y232498D01*
X223999Y231945D01*
X224839Y231597D01*
X225740Y231478D01*
X226642Y231597D01*
X227481Y231945D01*
X228203Y232498D01*
X228756Y233219D01*
X229104Y234059D01*
X229223Y234961D01*
X229104Y235862D01*
X228756Y236702D01*
X228203Y237423D01*
X227481Y237977D01*
X226854Y238236D01*
X226954Y238736D01*
X233346D01*
X233516Y238236D01*
X232921Y237780D01*
X232287Y236954D01*
X231889Y235993D01*
X231819Y235461D01*
X235740D01*
X239661D01*
X239591Y235993D01*
X239193Y236954D01*
X238559Y237780D01*
X237964Y238236D01*
X238134Y238736D01*
X244526D01*
X244626Y238236D01*
X243999Y237977D01*
X243278Y237423D01*
X242724Y236702D01*
X242376Y235862D01*
X242258Y234961D01*
X242376Y234059D01*
X242724Y233219D01*
X243278Y232498D01*
X243999Y231945D01*
X244839Y231597D01*
X245740Y231478D01*
X246641Y231597D01*
X247481Y231945D01*
X248203Y232498D01*
X248756Y233219D01*
X249104Y234059D01*
X249223Y234961D01*
X249104Y235862D01*
X248756Y236702D01*
X248203Y237423D01*
X247481Y237977D01*
X246854Y238236D01*
X246954Y238736D01*
X254526D01*
X254626Y238236D01*
X253999Y237977D01*
X253278Y237423D01*
X252724Y236702D01*
X252376Y235862D01*
X252258Y234961D01*
X252376Y234059D01*
X252724Y233219D01*
X253278Y232498D01*
X253999Y231945D01*
X254839Y231597D01*
X255740Y231478D01*
X256642Y231597D01*
X257481Y231945D01*
X258203Y232498D01*
X258756Y233219D01*
X259104Y234059D01*
X259223Y234961D01*
X259104Y235862D01*
X258756Y236702D01*
X258203Y237423D01*
X257481Y237977D01*
X256854Y238236D01*
X256954Y238736D01*
X264526D01*
X264626Y238236D01*
X263999Y237977D01*
X263278Y237423D01*
X262724Y236702D01*
X262376Y235862D01*
X262258Y234961D01*
X262376Y234059D01*
X262724Y233219D01*
X263278Y232498D01*
X263999Y231945D01*
X264839Y231597D01*
X265740Y231478D01*
X266641Y231597D01*
X267481Y231945D01*
X268203Y232498D01*
X268756Y233219D01*
X269104Y234059D01*
X269223Y234961D01*
X269104Y235862D01*
X268756Y236702D01*
X268203Y237423D01*
X267481Y237977D01*
X266854Y238236D01*
X266954Y238736D01*
X274526D01*
X274626Y238236D01*
X273999Y237977D01*
X273278Y237423D01*
X272724Y236702D01*
X272376Y235862D01*
X272258Y234961D01*
X272376Y234059D01*
X272724Y233219D01*
X273278Y232498D01*
X273999Y231945D01*
X274839Y231597D01*
X275740Y231478D01*
X276642Y231597D01*
X277481Y231945D01*
X278203Y232498D01*
X278756Y233219D01*
X279104Y234059D01*
X279223Y234961D01*
X279104Y235862D01*
X278756Y236702D01*
X278203Y237423D01*
X277481Y237977D01*
X276854Y238236D01*
X276954Y238736D01*
X284526Y238736D01*
X284626Y238236D01*
X283999Y237977D01*
X283278Y237423D01*
X282724Y236702D01*
X282376Y235862D01*
X282258Y234961D01*
X282376Y234059D01*
X282724Y233219D01*
X283278Y232498D01*
X283999Y231945D01*
X284839Y231597D01*
X285740Y231478D01*
X286642Y231597D01*
X287481Y231945D01*
X288203Y232498D01*
X288756Y233219D01*
X289104Y234059D01*
X289223Y234961D01*
X289104Y235862D01*
X288756Y236702D01*
X288203Y237423D01*
X287481Y237977D01*
X286855Y238236D01*
X286954Y238736D01*
X294526D01*
X294626Y238236D01*
X293999Y237977D01*
X293278Y237423D01*
X292724Y236702D01*
X292376Y235862D01*
X292258Y234961D01*
X292376Y234059D01*
X292724Y233219D01*
X293278Y232498D01*
X293999Y231945D01*
X294839Y231597D01*
X295740Y231478D01*
X296641Y231597D01*
X297481Y231945D01*
X298203Y232498D01*
X298756Y233219D01*
X299104Y234059D01*
X299223Y234961D01*
X299104Y235862D01*
X298756Y236702D01*
X298203Y237423D01*
X297481Y237977D01*
X296854Y238236D01*
X296954Y238736D01*
X302500D01*
X304526D01*
X304626Y238236D01*
X303999Y237977D01*
X303278Y237423D01*
X302724Y236702D01*
X302376Y235862D01*
X302258Y234961D01*
X302376Y234059D01*
X302724Y233219D01*
X303278Y232498D01*
X303999Y231945D01*
X304839Y231597D01*
X305740Y231478D01*
X306642Y231597D01*
X307481Y231945D01*
X308203Y232498D01*
X308756Y233219D01*
X309104Y234059D01*
X309223Y234961D01*
X309104Y235862D01*
X308756Y236702D01*
X308203Y237423D01*
X307481Y237977D01*
X306642Y238324D01*
X306299Y238370D01*
X306274Y238436D01*
X306235Y238882D01*
X306463Y239035D01*
X310861Y243433D01*
X310917Y243517D01*
X310988Y243588D01*
X311027Y243681D01*
X311064Y243736D01*
X319941D01*
X320331Y243814D01*
X320662Y244035D01*
X320883Y244366D01*
X320961Y244756D01*
X320960Y267756D01*
X320883Y268146D01*
X320662Y268477D01*
X320331Y268698D01*
X319941Y268776D01*
X310941D01*
X310551Y268698D01*
X310220Y268477D01*
X309999Y268146D01*
X309921Y267756D01*
Y257276D01*
X309851Y256775D01*
X295960D01*
Y267756D01*
X295883Y268146D01*
X295662Y268477D01*
X295331Y268698D01*
X294941Y268776D01*
X285941D01*
X285551Y268698D01*
X285220Y268477D01*
X284999Y268146D01*
X284921Y267756D01*
Y257276D01*
X284851Y256775D01*
X270960Y256775D01*
Y267756D01*
X270883Y268146D01*
X270662Y268477D01*
X270331Y268698D01*
X269941Y268776D01*
X260941D01*
X260551Y268698D01*
X260220Y268477D01*
X259999Y268146D01*
X259921Y267756D01*
Y257276D01*
X259851Y256775D01*
X245960D01*
Y267756D01*
X245883Y268146D01*
X245662Y268477D01*
X245331Y268698D01*
X244941Y268776D01*
X235941D01*
X235551Y268698D01*
X235220Y268477D01*
X234999Y268146D01*
X234921Y267756D01*
Y257276D01*
X234851Y256775D01*
X220960Y256775D01*
Y267756D01*
X220883Y268146D01*
X220662Y268477D01*
X220331Y268698D01*
X219941Y268776D01*
X210941D01*
X210551Y268698D01*
X210220Y268477D01*
X209999Y268146D01*
X209921Y267756D01*
Y257276D01*
X209851Y256775D01*
X208020D01*
Y258579D01*
X209244D01*
Y260260D01*
X206276D01*
Y261260D01*
X209244D01*
Y262941D01*
X208020D01*
Y266559D01*
X208744D01*
Y269921D01*
X206295D01*
Y284908D01*
X209430Y288043D01*
X210957D01*
Y291406D01*
X210476D01*
Y294240D01*
X211122D01*
Y294736D01*
X213760D01*
Y294303D01*
X217122D01*
Y297240D01*
X217122Y297272D01*
X217198Y297740D01*
X217622D01*
Y299224D01*
X215441D01*
X213260D01*
Y297740D01*
X213684D01*
X213760Y297272D01*
X213675Y296776D01*
X211122D01*
Y297209D01*
X207760D01*
Y294240D01*
X208437D01*
Y291406D01*
X207988D01*
Y289485D01*
X204555Y286052D01*
X204334Y285721D01*
X204256Y285331D01*
Y282839D01*
X203794Y282648D01*
X193020Y293422D01*
Y307095D01*
X193004Y307174D01*
Y314140D01*
X193504Y314407D01*
X193767Y314231D01*
X194500Y314085D01*
X195233Y314231D01*
X195854Y314646D01*
X196269Y315267D01*
X196415Y316000D01*
X196269Y316733D01*
X195854Y317354D01*
X195233Y317769D01*
X194500Y317915D01*
X194106Y317836D01*
X192914Y319028D01*
X192583Y319249D01*
X192193Y319327D01*
X189874D01*
Y319776D01*
X187693D01*
Y320776D01*
X189874D01*
Y321744D01*
X187693D01*
Y322244D01*
X187193D01*
Y323736D01*
X186246D01*
X186094Y324236D01*
X186158Y324279D01*
X186379Y324610D01*
X186457Y325000D01*
Y326294D01*
X186705Y326460D01*
X186926Y326791D01*
X187004Y327181D01*
Y328272D01*
X204484Y328272D01*
X204874Y328349D01*
X205205Y328570D01*
X205426Y328901D01*
X205504Y329291D01*
Y333480D01*
X210238D01*
X210457Y333071D01*
X210457Y332980D01*
Y330012D01*
X215000D01*
X219543D01*
Y332980D01*
X219543Y333071D01*
X219762Y333480D01*
X220238D01*
X220457Y333071D01*
X220457Y332980D01*
Y330012D01*
X225000D01*
X229543D01*
Y332980D01*
X229543Y333071D01*
X229762Y333480D01*
X241480Y333480D01*
Y332422D01*
X234078Y325020D01*
X208500D01*
X208110Y324942D01*
X207779Y324721D01*
X207558Y324390D01*
X207480Y324000D01*
X207480Y314000D01*
X207558Y313610D01*
X207779Y313279D01*
X212779Y308279D01*
X213110Y308058D01*
X213500Y307980D01*
X256000D01*
X256390Y308058D01*
X256721Y308279D01*
X256942Y308610D01*
X257020Y309000D01*
Y324500D01*
X256942Y324890D01*
X256721Y325221D01*
X252520Y329422D01*
X252520Y347500D01*
X252442Y347890D01*
X252382Y347980D01*
X252649Y348480D01*
X255000D01*
X255390Y348558D01*
X255721Y348779D01*
X257721Y350779D01*
X257942Y351110D01*
X258020Y351500D01*
Y354547D01*
X258681D01*
Y357516D01*
X255319D01*
Y354547D01*
X255980D01*
Y351922D01*
X254578Y350520D01*
X249000D01*
X248610Y350442D01*
X248279Y350221D01*
X246578Y348520D01*
X244520D01*
Y366500D01*
X244442Y366890D01*
X244221Y367221D01*
X243890Y367442D01*
X243500Y367520D01*
D02*
G37*
G36*
X146500Y353921D02*
X145968Y353851D01*
X145007Y353453D01*
X144181Y352819D01*
X143547Y351993D01*
X143149Y351032D01*
X143079Y350500D01*
X146500D01*
Y353921D01*
D02*
G37*
G36*
X137000Y353483D02*
X136099Y353364D01*
X135259Y353016D01*
X134537Y352463D01*
X133984Y351741D01*
X133636Y350901D01*
X133518Y350000D01*
X133636Y349099D01*
X133984Y348259D01*
X134537Y347537D01*
X135259Y346984D01*
X136099Y346636D01*
X137000Y346517D01*
X137901Y346636D01*
X138741Y346984D01*
X139462Y347537D01*
X140016Y348259D01*
X140364Y349099D01*
X140482Y350000D01*
X140364Y350901D01*
X140016Y351741D01*
X139462Y352463D01*
X138741Y353016D01*
X137901Y353364D01*
X137000Y353483D01*
D02*
G37*
G36*
X146500Y349500D02*
X143079D01*
X143149Y348968D01*
X143547Y348007D01*
X144181Y347181D01*
X145007Y346547D01*
X145968Y346149D01*
X146500Y346079D01*
Y349500D01*
D02*
G37*
G36*
X259024Y346748D02*
X256555D01*
Y342016D01*
X259024D01*
Y346748D01*
D02*
G37*
G36*
X255555D02*
X253087D01*
Y342016D01*
X255555D01*
Y346748D01*
D02*
G37*
G36*
X147000Y343482D02*
X146099Y343364D01*
X145259Y343016D01*
X144537Y342462D01*
X143984Y341741D01*
X143636Y340901D01*
X143517Y340000D01*
X143636Y339099D01*
X143984Y338259D01*
X144537Y337538D01*
X145259Y336984D01*
X146099Y336636D01*
X147000Y336518D01*
X147901Y336636D01*
X148741Y336984D01*
X149462Y337538D01*
X150016Y338259D01*
X150364Y339099D01*
X150482Y340000D01*
X150364Y340901D01*
X150016Y341741D01*
X149462Y342462D01*
X148741Y343016D01*
X147901Y343364D01*
X147000Y343482D01*
D02*
G37*
G36*
X137000D02*
X136099Y343364D01*
X135259Y343016D01*
X134537Y342462D01*
X133984Y341741D01*
X133636Y340901D01*
X133518Y340000D01*
X133636Y339099D01*
X133984Y338259D01*
X134537Y337538D01*
X135259Y336984D01*
X136099Y336636D01*
X137000Y336518D01*
X137901Y336636D01*
X138741Y336984D01*
X139462Y337538D01*
X140016Y338259D01*
X140364Y339099D01*
X140482Y340000D01*
X140364Y340901D01*
X140016Y341741D01*
X139462Y342462D01*
X138741Y343016D01*
X137901Y343364D01*
X137000Y343482D01*
D02*
G37*
G36*
X259024Y341016D02*
X256555D01*
Y336283D01*
X259024D01*
Y341016D01*
D02*
G37*
G36*
X255555D02*
X253087D01*
Y336283D01*
X255555D01*
Y341016D01*
D02*
G37*
G36*
X147000Y333483D02*
X146099Y333364D01*
X145259Y333016D01*
X144537Y332463D01*
X143984Y331741D01*
X143636Y330901D01*
X143517Y330000D01*
X143636Y329099D01*
X143984Y328259D01*
X144537Y327537D01*
X145259Y326984D01*
X146099Y326636D01*
X147000Y326518D01*
X147901Y326636D01*
X148741Y326984D01*
X149462Y327537D01*
X150016Y328259D01*
X150364Y329099D01*
X150482Y330000D01*
X150364Y330901D01*
X150016Y331741D01*
X149462Y332463D01*
X148741Y333016D01*
X147901Y333364D01*
X147000Y333483D01*
D02*
G37*
G36*
X137000D02*
X136099Y333364D01*
X135259Y333016D01*
X134537Y332463D01*
X133984Y331741D01*
X133636Y330901D01*
X133518Y330000D01*
X133636Y329099D01*
X133984Y328259D01*
X134537Y327537D01*
X135259Y326984D01*
X136099Y326636D01*
X137000Y326518D01*
X137901Y326636D01*
X138741Y326984D01*
X139462Y327537D01*
X140016Y328259D01*
X140364Y329099D01*
X140482Y330000D01*
X140364Y330901D01*
X140016Y331741D01*
X139462Y332463D01*
X138741Y333016D01*
X137901Y333364D01*
X137000Y333483D01*
D02*
G37*
G36*
X229543Y329012D02*
X225500D01*
Y325953D01*
X229543D01*
Y329012D01*
D02*
G37*
G36*
X224500D02*
X220457D01*
Y325953D01*
X224500D01*
Y329012D01*
D02*
G37*
G36*
X219543D02*
X215500D01*
Y325953D01*
X219543D01*
Y329012D01*
D02*
G37*
G36*
X214500D02*
X210457D01*
Y325953D01*
X214500D01*
Y329012D01*
D02*
G37*
G36*
X203543Y326630D02*
X199500D01*
Y323571D01*
X203543D01*
Y326630D01*
D02*
G37*
G36*
X198500D02*
X194457D01*
Y323571D01*
X198500D01*
Y326630D01*
D02*
G37*
G36*
X189874Y323736D02*
X188193D01*
Y322744D01*
X189874D01*
Y323736D01*
D02*
G37*
G36*
X175776D02*
X174094D01*
Y322744D01*
X175776D01*
Y323736D01*
D02*
G37*
G36*
X203543Y322571D02*
X199500D01*
Y319512D01*
X203543D01*
Y322571D01*
D02*
G37*
G36*
X198500D02*
X194457D01*
Y319512D01*
X198500D01*
Y322571D01*
D02*
G37*
G36*
X171870Y320406D02*
X169500D01*
Y318429D01*
X171870D01*
Y320406D01*
D02*
G37*
G36*
X168500D02*
X166130D01*
Y318429D01*
X168500D01*
Y320406D01*
D02*
G37*
G36*
X171870Y317429D02*
X169500D01*
Y315453D01*
X171870D01*
Y317429D01*
D02*
G37*
G36*
X168500D02*
X166130D01*
Y315453D01*
X168500D01*
Y317429D01*
D02*
G37*
G36*
X147000Y313482D02*
X146099Y313364D01*
X145259Y313016D01*
X144537Y312462D01*
X143984Y311741D01*
X143636Y310901D01*
X143517Y310000D01*
X143636Y309099D01*
X143984Y308259D01*
X144537Y307538D01*
X145259Y306984D01*
X146099Y306636D01*
X147000Y306518D01*
X147901Y306636D01*
X148741Y306984D01*
X149462Y307538D01*
X150016Y308259D01*
X150364Y309099D01*
X150482Y310000D01*
X150364Y310901D01*
X150016Y311741D01*
X149462Y312462D01*
X148741Y313016D01*
X147901Y313364D01*
X147000Y313482D01*
D02*
G37*
G36*
X201465Y307095D02*
X198701D01*
Y301083D01*
X201465D01*
Y307095D01*
D02*
G37*
G36*
X197701D02*
X194937D01*
Y301083D01*
X197701D01*
Y307095D01*
D02*
G37*
G36*
X217622Y301709D02*
X215941D01*
Y300224D01*
X217622D01*
Y301709D01*
D02*
G37*
G36*
X292622D02*
X290941D01*
Y300224D01*
X292622D01*
Y301709D01*
D02*
G37*
G36*
X214941D02*
X213260D01*
Y300224D01*
X214941D01*
Y301709D01*
D02*
G37*
G36*
X289941D02*
X288260D01*
Y300224D01*
X289941D01*
Y301709D01*
D02*
G37*
G36*
X242622Y301677D02*
X240941D01*
Y300193D01*
X242622D01*
Y301677D01*
D02*
G37*
G36*
X317622D02*
X315941D01*
Y300193D01*
X317622D01*
Y301677D01*
D02*
G37*
G36*
X267622D02*
X265941D01*
Y300193D01*
X267622D01*
Y301677D01*
D02*
G37*
G36*
X239941D02*
X238260D01*
Y300193D01*
X239941D01*
Y301677D01*
D02*
G37*
G36*
X314941D02*
X313260D01*
Y300193D01*
X314941D01*
Y301677D01*
D02*
G37*
G36*
X264941D02*
X263260D01*
Y300193D01*
X264941D01*
Y301677D01*
D02*
G37*
G36*
X309500Y305507D02*
X308767Y305362D01*
X308146Y304946D01*
X307731Y304325D01*
X307585Y303592D01*
X307731Y302860D01*
X308146Y302239D01*
X308451Y302035D01*
Y301177D01*
X307760D01*
Y298209D01*
X311122D01*
Y301177D01*
X310490D01*
Y301995D01*
X310854Y302239D01*
X311269Y302860D01*
X311415Y303592D01*
X311269Y304325D01*
X310854Y304946D01*
X310233Y305362D01*
X309500Y305507D01*
D02*
G37*
G36*
X284500D02*
X283767Y305362D01*
X283146Y304946D01*
X282731Y304325D01*
X282585Y303592D01*
X282731Y302860D01*
X283146Y302239D01*
X283451Y302035D01*
Y301177D01*
X282760D01*
Y298209D01*
X286122D01*
Y301177D01*
X285490D01*
Y301995D01*
X285854Y302239D01*
X286269Y302860D01*
X286415Y303592D01*
X286269Y304325D01*
X285854Y304946D01*
X285233Y305362D01*
X284500Y305507D01*
D02*
G37*
G36*
X259500D02*
X258767Y305362D01*
X258146Y304946D01*
X257731Y304325D01*
X257585Y303592D01*
X257731Y302860D01*
X258146Y302239D01*
X258451Y302035D01*
Y301177D01*
X257760D01*
Y298209D01*
X261122D01*
Y301177D01*
X260490D01*
Y301995D01*
X260854Y302239D01*
X261269Y302860D01*
X261415Y303592D01*
X261269Y304325D01*
X260854Y304946D01*
X260233Y305362D01*
X259500Y305507D01*
D02*
G37*
G36*
X234500D02*
X233767Y305362D01*
X233146Y304946D01*
X232731Y304325D01*
X232585Y303592D01*
X232731Y302860D01*
X233146Y302239D01*
X233451Y302035D01*
Y301146D01*
X232760D01*
Y298177D01*
X236122D01*
Y301146D01*
X235490D01*
Y301995D01*
X235854Y302239D01*
X236269Y302860D01*
X236415Y303592D01*
X236269Y304325D01*
X235854Y304946D01*
X235233Y305362D01*
X234500Y305507D01*
D02*
G37*
G36*
X209500D02*
X208767Y305362D01*
X208146Y304946D01*
X207731Y304325D01*
X207585Y303592D01*
X207731Y302860D01*
X208146Y302239D01*
X208633Y301913D01*
Y301146D01*
X207760D01*
Y298177D01*
X211122D01*
Y301146D01*
X210367D01*
Y301913D01*
X210854Y302239D01*
X211269Y302860D01*
X211415Y303592D01*
X211269Y304325D01*
X210854Y304946D01*
X210233Y305362D01*
X209500Y305507D01*
D02*
G37*
G36*
X290441Y299724D02*
D01*
Y299224D01*
X288260D01*
Y297740D01*
X288684D01*
X288760Y297272D01*
X288636Y296791D01*
X286122D01*
Y297240D01*
X282760D01*
Y294272D01*
X283421D01*
Y291406D01*
X282957D01*
Y289485D01*
X280295Y286823D01*
X280074Y286492D01*
X279996Y286102D01*
Y269921D01*
X278807D01*
Y266559D01*
X283744D01*
Y269921D01*
X282035D01*
Y285680D01*
X284399Y288043D01*
X285925D01*
Y291406D01*
X285460D01*
Y294272D01*
X286122D01*
Y294752D01*
X288760D01*
Y294303D01*
X292122D01*
Y297240D01*
X292122Y297272D01*
X292198Y297740D01*
X292622D01*
Y299224D01*
X290441D01*
Y299724D01*
D02*
G37*
G36*
X317622Y299193D02*
X315441D01*
X313260D01*
Y297709D01*
X313593D01*
X313751Y297237D01*
X313749Y297210D01*
X313598Y296776D01*
X311122D01*
Y297240D01*
X307760D01*
Y294272D01*
X308437D01*
Y291406D01*
X307988D01*
Y289485D01*
X305555Y287052D01*
X305334Y286721D01*
X305256Y286331D01*
Y269921D01*
X303807D01*
Y266559D01*
X308744D01*
Y269921D01*
X307295D01*
Y285908D01*
X309430Y288043D01*
X310957D01*
Y291406D01*
X310476D01*
Y294272D01*
X311122D01*
Y294736D01*
X313760D01*
Y294272D01*
X317122D01*
Y297209D01*
X317122Y297240D01*
X317198Y297709D01*
X317622D01*
Y299193D01*
D02*
G37*
G36*
X267622D02*
X265441D01*
X263260D01*
Y297709D01*
X263593D01*
X263751Y297237D01*
X263749Y297210D01*
X263598Y296776D01*
X261122D01*
Y297240D01*
X257760D01*
Y294272D01*
X258437D01*
Y291406D01*
X257988D01*
Y289485D01*
X255555Y287052D01*
X255334Y286721D01*
X255256Y286331D01*
Y269921D01*
X253807D01*
Y266559D01*
X258744D01*
Y269921D01*
X257295D01*
Y285908D01*
X259430Y288043D01*
X260957D01*
Y291406D01*
X260476D01*
Y294272D01*
X261122D01*
Y294736D01*
X263760D01*
Y294272D01*
X267122D01*
Y297209D01*
X267122Y297240D01*
X267198Y297709D01*
X267622D01*
Y299193D01*
D02*
G37*
G36*
X242622D02*
X240441D01*
X238260D01*
Y297709D01*
X238684D01*
X238760Y297240D01*
X238675Y296744D01*
X236122D01*
Y297209D01*
X232760D01*
Y294240D01*
X233421D01*
Y291406D01*
X232957D01*
Y289485D01*
X230295Y286823D01*
X230074Y286492D01*
X229996Y286102D01*
Y269921D01*
X228807D01*
Y266559D01*
X233744D01*
Y269921D01*
X232035D01*
Y285680D01*
X234399Y288043D01*
X235925D01*
Y291406D01*
X235460D01*
Y294240D01*
X236122D01*
Y294705D01*
X238760D01*
Y294272D01*
X242122D01*
Y297209D01*
X242122Y297240D01*
X242198Y297709D01*
X242622D01*
Y299193D01*
D02*
G37*
G36*
X137000Y303483D02*
X136099Y303364D01*
X135259Y303016D01*
X134537Y302463D01*
X133984Y301741D01*
X133636Y300901D01*
X133518Y300000D01*
X133636Y299099D01*
X133984Y298259D01*
X134537Y297537D01*
X135259Y296984D01*
X136099Y296636D01*
X137000Y296517D01*
X137901Y296636D01*
X138741Y296984D01*
X139462Y297537D01*
X140016Y298259D01*
X140364Y299099D01*
X140482Y300000D01*
X140364Y300901D01*
X140016Y301741D01*
X139462Y302463D01*
X138741Y303016D01*
X137901Y303364D01*
X137000Y303483D01*
D02*
G37*
G36*
X201465Y300083D02*
X198701D01*
Y294071D01*
X201465D01*
Y300083D01*
D02*
G37*
G36*
X197701D02*
X194937D01*
Y294071D01*
X197701D01*
Y300083D01*
D02*
G37*
G36*
X137500Y293921D02*
Y290500D01*
X140921D01*
X140851Y291032D01*
X140453Y291993D01*
X139819Y292819D01*
X138993Y293453D01*
X138032Y293851D01*
X137500Y293921D01*
D02*
G37*
G36*
X136500D02*
X135968Y293851D01*
X135007Y293453D01*
X134181Y292819D01*
X133547Y291993D01*
X133149Y291032D01*
X133079Y290500D01*
X136500D01*
Y293921D01*
D02*
G37*
G36*
X147000Y293482D02*
X146099Y293364D01*
X145259Y293016D01*
X144537Y292462D01*
X143984Y291741D01*
X143636Y290901D01*
X143517Y290000D01*
X143636Y289099D01*
X143984Y288259D01*
X144537Y287538D01*
X145259Y286984D01*
X146099Y286636D01*
X147000Y286518D01*
X147901Y286636D01*
X148741Y286984D01*
X149462Y287538D01*
X150016Y288259D01*
X150364Y289099D01*
X150482Y290000D01*
X150364Y290901D01*
X150016Y291741D01*
X149462Y292462D01*
X148741Y293016D01*
X147901Y293364D01*
X147000Y293482D01*
D02*
G37*
G36*
X140921Y289500D02*
X137500D01*
Y286079D01*
X138032Y286149D01*
X138993Y286547D01*
X139819Y287181D01*
X140453Y288007D01*
X140851Y288968D01*
X140921Y289500D01*
D02*
G37*
G36*
X136500D02*
X133079D01*
X133149Y288968D01*
X133547Y288007D01*
X134181Y287181D01*
X135007Y286547D01*
X135968Y286149D01*
X136500Y286079D01*
Y289500D01*
D02*
G37*
G36*
X319394Y285906D02*
X317910D01*
Y284224D01*
X319394D01*
Y285906D01*
D02*
G37*
G36*
X294394D02*
X292910D01*
Y284224D01*
X294394D01*
Y285906D01*
D02*
G37*
G36*
X269394D02*
X267910D01*
Y284224D01*
X269394D01*
Y285906D01*
D02*
G37*
G36*
X244394D02*
X242910D01*
Y284224D01*
X244394D01*
Y285906D01*
D02*
G37*
G36*
X219394D02*
X217910D01*
Y284224D01*
X219394D01*
Y285906D01*
D02*
G37*
G36*
X319394Y283224D02*
X317910D01*
Y281543D01*
X319394D01*
Y283224D01*
D02*
G37*
G36*
X314894Y291406D02*
X311925D01*
Y288043D01*
X312421D01*
Y285405D01*
X311988D01*
Y282043D01*
X314925D01*
X314957Y282043D01*
X315425Y281967D01*
Y281543D01*
X316910D01*
Y283724D01*
Y285906D01*
X315425D01*
Y285482D01*
X314957Y285405D01*
X314460Y285491D01*
Y288043D01*
X314894D01*
Y291406D01*
D02*
G37*
G36*
X294394Y283224D02*
X292910D01*
Y281543D01*
X294394D01*
Y283224D01*
D02*
G37*
G36*
X289862Y291406D02*
X286894D01*
Y288043D01*
X287406D01*
Y285405D01*
X286988D01*
Y282043D01*
X289925D01*
X289957Y282043D01*
X290425Y281967D01*
Y281543D01*
X291910D01*
Y283724D01*
Y285906D01*
X290425D01*
Y285482D01*
X289957Y285405D01*
X289945D01*
X289445Y285453D01*
Y288043D01*
X289862D01*
Y291406D01*
D02*
G37*
G36*
X269394Y283224D02*
X267910D01*
Y281543D01*
X269394D01*
Y283224D01*
D02*
G37*
G36*
X264894Y291406D02*
X261925D01*
Y288043D01*
X262421D01*
Y285405D01*
X261988D01*
Y282043D01*
X264925D01*
X264957Y282043D01*
X265425Y281967D01*
Y281543D01*
X266910D01*
Y283724D01*
Y285906D01*
X265425D01*
Y285482D01*
X264957Y285405D01*
X264461Y285491D01*
Y288043D01*
X264894D01*
Y291406D01*
D02*
G37*
G36*
X244394Y283224D02*
X242910D01*
Y281543D01*
X244394D01*
Y283224D01*
D02*
G37*
G36*
X239862Y291406D02*
X236894D01*
Y288043D01*
X237406D01*
Y285405D01*
X236988D01*
Y282043D01*
X239925D01*
X239957Y282043D01*
X240425Y281967D01*
Y281543D01*
X241910D01*
Y283724D01*
Y285906D01*
X240425D01*
Y285482D01*
X239957Y285405D01*
X239945D01*
X239445Y285453D01*
Y288043D01*
X239862D01*
Y291406D01*
D02*
G37*
G36*
X219394Y283224D02*
X217910D01*
Y281543D01*
X219394D01*
Y283224D01*
D02*
G37*
G36*
X214894Y291406D02*
X211925D01*
Y288043D01*
X212421D01*
Y285405D01*
X211988D01*
Y282043D01*
X214925D01*
X214957Y282043D01*
X215425Y281967D01*
Y281543D01*
X216910D01*
Y283724D01*
Y285906D01*
X215425D01*
Y285482D01*
X214957Y285405D01*
X214461Y285491D01*
Y288043D01*
X214894D01*
Y291406D01*
D02*
G37*
G36*
X147000Y283483D02*
X146099Y283364D01*
X145259Y283016D01*
X144537Y282463D01*
X143984Y281741D01*
X143636Y280901D01*
X143517Y280000D01*
X143636Y279099D01*
X143984Y278259D01*
X144537Y277537D01*
X145259Y276984D01*
X146099Y276636D01*
X147000Y276518D01*
X147901Y276636D01*
X148741Y276984D01*
X149462Y277537D01*
X150016Y278259D01*
X150364Y279099D01*
X150482Y280000D01*
X150364Y280901D01*
X150016Y281741D01*
X149462Y282463D01*
X148741Y283016D01*
X147901Y283364D01*
X147000Y283483D01*
D02*
G37*
G36*
X137000D02*
X136099Y283364D01*
X135259Y283016D01*
X134537Y282463D01*
X133984Y281741D01*
X133636Y280901D01*
X133518Y280000D01*
X133636Y279099D01*
X133984Y278259D01*
X134537Y277537D01*
X135259Y276984D01*
X136099Y276636D01*
X137000Y276518D01*
X137901Y276636D01*
X138741Y276984D01*
X139462Y277537D01*
X140016Y278259D01*
X140364Y279099D01*
X140482Y280000D01*
X140364Y280901D01*
X140016Y281741D01*
X139462Y282463D01*
X138741Y283016D01*
X137901Y283364D01*
X137000Y283483D01*
D02*
G37*
G36*
X147500Y273921D02*
Y270500D01*
X150921D01*
X150851Y271032D01*
X150453Y271993D01*
X149819Y272819D01*
X148993Y273453D01*
X148032Y273851D01*
X147500Y273921D01*
D02*
G37*
G36*
X146500D02*
X145968Y273851D01*
X145007Y273453D01*
X144181Y272819D01*
X143547Y271993D01*
X143149Y271032D01*
X143079Y270500D01*
X146500D01*
Y273921D01*
D02*
G37*
G36*
X137000Y273482D02*
X136099Y273364D01*
X135259Y273016D01*
X134537Y272463D01*
X133984Y271741D01*
X133636Y270901D01*
X133518Y270000D01*
X133636Y269099D01*
X133984Y268259D01*
X134537Y267537D01*
X135259Y266984D01*
X136099Y266636D01*
X137000Y266517D01*
X137901Y266636D01*
X138741Y266984D01*
X139462Y267537D01*
X140016Y268259D01*
X140364Y269099D01*
X140482Y270000D01*
X140364Y270901D01*
X140016Y271741D01*
X139462Y272463D01*
X138741Y273016D01*
X137901Y273364D01*
X137000Y273482D01*
D02*
G37*
G36*
X150921Y269500D02*
X147500D01*
Y266079D01*
X148032Y266149D01*
X148993Y266547D01*
X149819Y267181D01*
X150453Y268007D01*
X150851Y268968D01*
X150921Y269500D01*
D02*
G37*
G36*
X146500D02*
X143079D01*
X143149Y268968D01*
X143547Y268007D01*
X144181Y267181D01*
X145007Y266547D01*
X145968Y266149D01*
X146500Y266079D01*
Y269500D01*
D02*
G37*
G36*
X309244Y262941D02*
X306776D01*
Y261260D01*
X309244D01*
Y262941D01*
D02*
G37*
G36*
X284244D02*
X281776D01*
Y261260D01*
X284244D01*
Y262941D01*
D02*
G37*
G36*
X259244D02*
X256776D01*
Y261260D01*
X259244D01*
Y262941D01*
D02*
G37*
G36*
X234244D02*
X231776D01*
Y261260D01*
X234244D01*
Y262941D01*
D02*
G37*
G36*
X305776D02*
X303307D01*
Y261260D01*
X305776D01*
Y262941D01*
D02*
G37*
G36*
X280776D02*
X278307D01*
Y261260D01*
X280776D01*
Y262941D01*
D02*
G37*
G36*
X255776D02*
X253307D01*
Y261260D01*
X255776D01*
Y262941D01*
D02*
G37*
G36*
X230776D02*
X228307D01*
Y261260D01*
X230776D01*
Y262941D01*
D02*
G37*
G36*
X309244Y260260D02*
X306776D01*
Y258579D01*
X309244D01*
Y260260D01*
D02*
G37*
G36*
X305776D02*
X303307D01*
Y258579D01*
X305776D01*
Y260260D01*
D02*
G37*
G36*
X284244D02*
X281776D01*
Y258579D01*
X284244D01*
Y260260D01*
D02*
G37*
G36*
X280776D02*
X278307D01*
Y258579D01*
X280776D01*
Y260260D01*
D02*
G37*
G36*
X259244D02*
X256776D01*
Y258579D01*
X259244D01*
Y260260D01*
D02*
G37*
G36*
X255776D02*
X253307D01*
Y258579D01*
X255776D01*
Y260260D01*
D02*
G37*
G36*
X234244D02*
X231776D01*
Y258579D01*
X234244D01*
Y260260D01*
D02*
G37*
G36*
X230776D02*
X228307D01*
Y258579D01*
X230776D01*
Y260260D01*
D02*
G37*
G36*
X147000Y263482D02*
X146099Y263364D01*
X145259Y263016D01*
X144537Y262462D01*
X143984Y261741D01*
X143636Y260901D01*
X143517Y260000D01*
X143636Y259099D01*
X143984Y258259D01*
X144537Y257538D01*
X145259Y256984D01*
X146099Y256636D01*
X147000Y256518D01*
X147901Y256636D01*
X148741Y256984D01*
X149462Y257538D01*
X150016Y258259D01*
X150364Y259099D01*
X150482Y260000D01*
X150364Y260901D01*
X150016Y261741D01*
X149462Y262462D01*
X148741Y263016D01*
X147901Y263364D01*
X147000Y263482D01*
D02*
G37*
G36*
X137000D02*
X136099Y263364D01*
X135259Y263016D01*
X134537Y262462D01*
X133984Y261741D01*
X133636Y260901D01*
X133518Y260000D01*
X133636Y259099D01*
X133984Y258259D01*
X134537Y257538D01*
X135259Y256984D01*
X136099Y256636D01*
X137000Y256518D01*
X137901Y256636D01*
X138741Y256984D01*
X139462Y257538D01*
X140016Y258259D01*
X140364Y259099D01*
X140482Y260000D01*
X140364Y260901D01*
X140016Y261741D01*
X139462Y262462D01*
X138741Y263016D01*
X137901Y263364D01*
X137000Y263482D01*
D02*
G37*
G36*
X147500Y253921D02*
Y250500D01*
X150921D01*
X150851Y251032D01*
X150453Y251993D01*
X149819Y252819D01*
X148993Y253453D01*
X148032Y253851D01*
X147500Y253921D01*
D02*
G37*
G36*
X146500D02*
X145968Y253851D01*
X145007Y253453D01*
X144181Y252819D01*
X143547Y251993D01*
X143149Y251032D01*
X143079Y250500D01*
X146500D01*
Y253921D01*
D02*
G37*
G36*
X137000Y253483D02*
X136099Y253364D01*
X135259Y253016D01*
X134537Y252463D01*
X133984Y251741D01*
X133636Y250901D01*
X133518Y250000D01*
X133636Y249099D01*
X133984Y248259D01*
X134537Y247537D01*
X135259Y246984D01*
X136099Y246636D01*
X137000Y246517D01*
X137901Y246636D01*
X138741Y246984D01*
X139462Y247537D01*
X140016Y248259D01*
X140364Y249099D01*
X140482Y250000D01*
X140364Y250901D01*
X140016Y251741D01*
X139462Y252463D01*
X138741Y253016D01*
X137901Y253364D01*
X137000Y253483D01*
D02*
G37*
G36*
X150921Y249500D02*
X147500D01*
Y246079D01*
X148032Y246149D01*
X148993Y246547D01*
X149819Y247181D01*
X150453Y248007D01*
X150851Y248968D01*
X150921Y249500D01*
D02*
G37*
G36*
X146500D02*
X143079D01*
X143149Y248968D01*
X143547Y248007D01*
X144181Y247181D01*
X145007Y246547D01*
X145968Y246149D01*
X146500Y246079D01*
Y249500D01*
D02*
G37*
G36*
X191004Y256311D02*
X186524D01*
Y250905D01*
X186694Y249617D01*
X187191Y248416D01*
X187983Y247384D01*
X189014Y246593D01*
X190215Y246096D01*
X191004Y245992D01*
Y256311D01*
D02*
G37*
G36*
X178905Y249980D02*
X173500D01*
Y245500D01*
X183819D01*
X183715Y246289D01*
X183218Y247490D01*
X182427Y248521D01*
X181395Y249312D01*
X180194Y249810D01*
X178905Y249980D01*
D02*
G37*
G36*
X172500D02*
X167095D01*
X165806Y249810D01*
X164605Y249312D01*
X163573Y248521D01*
X162782Y247490D01*
X162285Y246289D01*
X162181Y245500D01*
X172500D01*
Y249980D01*
D02*
G37*
G36*
X183819Y244500D02*
X173500D01*
Y240020D01*
X178905D01*
X180194Y240190D01*
X181395Y240687D01*
X182427Y241479D01*
X183218Y242510D01*
X183715Y243711D01*
X183819Y244500D01*
D02*
G37*
G36*
X172500D02*
X162181D01*
X162285Y243711D01*
X162782Y242510D01*
X163573Y241479D01*
X164605Y240687D01*
X165806Y240190D01*
X167095Y240020D01*
X172500D01*
Y244500D01*
D02*
G37*
G36*
X147000Y243482D02*
X146099Y243364D01*
X145259Y243016D01*
X144537Y242462D01*
X143984Y241741D01*
X143636Y240901D01*
X143517Y240000D01*
X143636Y239099D01*
X143984Y238259D01*
X144537Y237538D01*
X145259Y236984D01*
X146099Y236636D01*
X147000Y236518D01*
X147901Y236636D01*
X148741Y236984D01*
X149462Y237538D01*
X150016Y238259D01*
X150364Y239099D01*
X150482Y240000D01*
X150364Y240901D01*
X150016Y241741D01*
X149462Y242462D01*
X148741Y243016D01*
X147901Y243364D01*
X147000Y243482D01*
D02*
G37*
G36*
X137000D02*
X136099Y243364D01*
X135259Y243016D01*
X134537Y242462D01*
X133984Y241741D01*
X133636Y240901D01*
X133518Y240000D01*
X133636Y239099D01*
X133984Y238259D01*
X134537Y237538D01*
X135259Y236984D01*
X136099Y236636D01*
X137000Y236518D01*
X137901Y236636D01*
X138741Y236984D01*
X139462Y237538D01*
X140016Y238259D01*
X140364Y239099D01*
X140482Y240000D01*
X140364Y240901D01*
X140016Y241741D01*
X139462Y242462D01*
X138741Y243016D01*
X137901Y243364D01*
X137000Y243482D01*
D02*
G37*
G36*
X315740Y238443D02*
X314839Y238324D01*
X313999Y237977D01*
X313278Y237423D01*
X312724Y236702D01*
X312376Y235862D01*
X312258Y234961D01*
X312376Y234059D01*
X312724Y233219D01*
X313278Y232498D01*
X313999Y231945D01*
X314839Y231597D01*
X315740Y231478D01*
X316641Y231597D01*
X317481Y231945D01*
X318203Y232498D01*
X318756Y233219D01*
X319104Y234059D01*
X319223Y234961D01*
X319104Y235862D01*
X318756Y236702D01*
X318203Y237423D01*
X317481Y237977D01*
X316641Y238324D01*
X315740Y238443D01*
D02*
G37*
G36*
X239661Y234461D02*
X236240D01*
Y231040D01*
X236772Y231110D01*
X237734Y231508D01*
X238559Y232141D01*
X239193Y232967D01*
X239591Y233929D01*
X239661Y234461D01*
D02*
G37*
G36*
X235240D02*
X231819D01*
X231889Y233929D01*
X232287Y232967D01*
X232921Y232141D01*
X233747Y231508D01*
X234708Y231110D01*
X235240Y231040D01*
Y234461D01*
D02*
G37*
G36*
X147000Y233483D02*
X146099Y233364D01*
X145259Y233016D01*
X144537Y232463D01*
X143984Y231741D01*
X143636Y230901D01*
X143517Y230000D01*
X143636Y229099D01*
X143984Y228259D01*
X144537Y227537D01*
X145259Y226984D01*
X146099Y226636D01*
X147000Y226518D01*
X147901Y226636D01*
X148741Y226984D01*
X149462Y227537D01*
X150016Y228259D01*
X150364Y229099D01*
X150482Y230000D01*
X150364Y230901D01*
X150016Y231741D01*
X149462Y232463D01*
X148741Y233016D01*
X147901Y233364D01*
X147000Y233483D01*
D02*
G37*
G36*
X137000D02*
X136099Y233364D01*
X135259Y233016D01*
X134537Y232463D01*
X133984Y231741D01*
X133636Y230901D01*
X133518Y230000D01*
X133636Y229099D01*
X133984Y228259D01*
X134537Y227537D01*
X135259Y226984D01*
X136099Y226636D01*
X137000Y226518D01*
X137901Y226636D01*
X138741Y226984D01*
X139462Y227537D01*
X140016Y228259D01*
X140364Y229099D01*
X140482Y230000D01*
X140364Y230901D01*
X140016Y231741D01*
X139462Y232463D01*
X138741Y233016D01*
X137901Y233364D01*
X137000Y233483D01*
D02*
G37*
G36*
X229193Y228413D02*
X222287D01*
Y221508D01*
X229193D01*
Y228413D01*
D02*
G37*
G36*
X315740Y228443D02*
X314839Y228325D01*
X313999Y227977D01*
X313278Y227423D01*
X312724Y226702D01*
X312376Y225862D01*
X312258Y224961D01*
X312376Y224059D01*
X312724Y223219D01*
X313278Y222498D01*
X313999Y221945D01*
X314839Y221597D01*
X315740Y221478D01*
X316641Y221597D01*
X317481Y221945D01*
X318203Y222498D01*
X318756Y223219D01*
X319104Y224059D01*
X319223Y224961D01*
X319104Y225862D01*
X318756Y226702D01*
X318203Y227423D01*
X317481Y227977D01*
X316641Y228325D01*
X315740Y228443D01*
D02*
G37*
G36*
X305740D02*
X304839Y228325D01*
X303999Y227977D01*
X303278Y227423D01*
X302724Y226702D01*
X302376Y225862D01*
X302258Y224961D01*
X302376Y224059D01*
X302724Y223219D01*
X303278Y222498D01*
X303999Y221945D01*
X304839Y221597D01*
X305740Y221478D01*
X306642Y221597D01*
X307481Y221945D01*
X308203Y222498D01*
X308756Y223219D01*
X309104Y224059D01*
X309223Y224961D01*
X309104Y225862D01*
X308756Y226702D01*
X308203Y227423D01*
X307481Y227977D01*
X306642Y228325D01*
X305740Y228443D01*
D02*
G37*
G36*
X295740D02*
X294839Y228325D01*
X293999Y227977D01*
X293278Y227423D01*
X292724Y226702D01*
X292376Y225862D01*
X292258Y224961D01*
X292376Y224059D01*
X292724Y223219D01*
X293278Y222498D01*
X293999Y221945D01*
X294839Y221597D01*
X295740Y221478D01*
X296641Y221597D01*
X297481Y221945D01*
X298203Y222498D01*
X298756Y223219D01*
X299104Y224059D01*
X299223Y224961D01*
X299104Y225862D01*
X298756Y226702D01*
X298203Y227423D01*
X297481Y227977D01*
X296641Y228325D01*
X295740Y228443D01*
D02*
G37*
G36*
X285740D02*
X284839Y228325D01*
X283999Y227977D01*
X283278Y227423D01*
X282724Y226702D01*
X282376Y225862D01*
X282258Y224961D01*
X282376Y224059D01*
X282724Y223219D01*
X283278Y222498D01*
X283999Y221945D01*
X284839Y221597D01*
X285740Y221478D01*
X286642Y221597D01*
X287481Y221945D01*
X288203Y222498D01*
X288756Y223219D01*
X289104Y224059D01*
X289223Y224961D01*
X289104Y225862D01*
X288756Y226702D01*
X288203Y227423D01*
X287481Y227977D01*
X286642Y228325D01*
X285740Y228443D01*
D02*
G37*
G36*
X275740D02*
X274839Y228325D01*
X273999Y227977D01*
X273278Y227423D01*
X272724Y226702D01*
X272376Y225862D01*
X272258Y224961D01*
X272376Y224059D01*
X272724Y223219D01*
X273278Y222498D01*
X273999Y221945D01*
X274839Y221597D01*
X275740Y221478D01*
X276642Y221597D01*
X277481Y221945D01*
X278203Y222498D01*
X278756Y223219D01*
X279104Y224059D01*
X279223Y224961D01*
X279104Y225862D01*
X278756Y226702D01*
X278203Y227423D01*
X277481Y227977D01*
X276642Y228325D01*
X275740Y228443D01*
D02*
G37*
G36*
X265740D02*
X264839Y228325D01*
X263999Y227977D01*
X263278Y227423D01*
X262724Y226702D01*
X262376Y225862D01*
X262258Y224961D01*
X262376Y224059D01*
X262724Y223219D01*
X263278Y222498D01*
X263999Y221945D01*
X264839Y221597D01*
X265740Y221478D01*
X266641Y221597D01*
X267481Y221945D01*
X268203Y222498D01*
X268756Y223219D01*
X269104Y224059D01*
X269223Y224961D01*
X269104Y225862D01*
X268756Y226702D01*
X268203Y227423D01*
X267481Y227977D01*
X266641Y228325D01*
X265740Y228443D01*
D02*
G37*
G36*
X255740D02*
X254839Y228325D01*
X253999Y227977D01*
X253278Y227423D01*
X252724Y226702D01*
X252376Y225862D01*
X252258Y224961D01*
X252376Y224059D01*
X252724Y223219D01*
X253278Y222498D01*
X253999Y221945D01*
X254839Y221597D01*
X255740Y221478D01*
X256642Y221597D01*
X257481Y221945D01*
X258203Y222498D01*
X258756Y223219D01*
X259104Y224059D01*
X259223Y224961D01*
X259104Y225862D01*
X258756Y226702D01*
X258203Y227423D01*
X257481Y227977D01*
X256642Y228325D01*
X255740Y228443D01*
D02*
G37*
G36*
X245740D02*
X244839Y228325D01*
X243999Y227977D01*
X243278Y227423D01*
X242724Y226702D01*
X242376Y225862D01*
X242258Y224961D01*
X242376Y224059D01*
X242724Y223219D01*
X243278Y222498D01*
X243999Y221945D01*
X244839Y221597D01*
X245740Y221478D01*
X246641Y221597D01*
X247481Y221945D01*
X248203Y222498D01*
X248756Y223219D01*
X249104Y224059D01*
X249223Y224961D01*
X249104Y225862D01*
X248756Y226702D01*
X248203Y227423D01*
X247481Y227977D01*
X246641Y228325D01*
X245740Y228443D01*
D02*
G37*
G36*
X235740D02*
X234839Y228325D01*
X233999Y227977D01*
X233278Y227423D01*
X232724Y226702D01*
X232376Y225862D01*
X232258Y224961D01*
X232376Y224059D01*
X232724Y223219D01*
X233278Y222498D01*
X233999Y221945D01*
X234839Y221597D01*
X235740Y221478D01*
X236642Y221597D01*
X237481Y221945D01*
X238203Y222498D01*
X238756Y223219D01*
X239104Y224059D01*
X239223Y224961D01*
X239104Y225862D01*
X238756Y226702D01*
X238203Y227423D01*
X237481Y227977D01*
X236642Y228325D01*
X235740Y228443D01*
D02*
G37*
G36*
X137500Y223921D02*
Y220500D01*
X140921D01*
X140851Y221032D01*
X140453Y221993D01*
X139819Y222819D01*
X138993Y223453D01*
X138032Y223851D01*
X137500Y223921D01*
D02*
G37*
G36*
X136500D02*
X135968Y223851D01*
X135007Y223453D01*
X134181Y222819D01*
X133547Y221993D01*
X133149Y221032D01*
X133079Y220500D01*
X136500D01*
Y223921D01*
D02*
G37*
G36*
X147000Y223482D02*
X146099Y223364D01*
X145259Y223016D01*
X144537Y222463D01*
X143984Y221741D01*
X143636Y220901D01*
X143517Y220000D01*
X143636Y219099D01*
X143984Y218259D01*
X144537Y217537D01*
X145259Y216984D01*
X146099Y216636D01*
X147000Y216517D01*
X147901Y216636D01*
X148741Y216984D01*
X149462Y217537D01*
X150016Y218259D01*
X150364Y219099D01*
X150482Y220000D01*
X150364Y220901D01*
X150016Y221741D01*
X149462Y222463D01*
X148741Y223016D01*
X147901Y223364D01*
X147000Y223482D01*
D02*
G37*
G36*
X140921Y219500D02*
X137500D01*
Y216079D01*
X138032Y216149D01*
X138993Y216547D01*
X139819Y217181D01*
X140453Y218007D01*
X140851Y218968D01*
X140921Y219500D01*
D02*
G37*
G36*
X136500D02*
X133079D01*
X133149Y218968D01*
X133547Y218007D01*
X134181Y217181D01*
X135007Y216547D01*
X135968Y216149D01*
X136500Y216079D01*
Y219500D01*
D02*
G37*
%LPD*%
G36*
X243500Y348520D02*
X242500D01*
X242110Y348442D01*
X241779Y348221D01*
X241558Y347890D01*
X241480Y347500D01*
X241480Y334500D01*
X225654Y334500D01*
X204484D01*
Y329291D01*
X186467Y329291D01*
X185504Y330255D01*
X185504Y347811D01*
X185984Y348291D01*
X195351D01*
Y348833D01*
X199018Y352500D01*
X209807D01*
X218500Y352500D01*
X232500Y366500D01*
X243500D01*
Y348520D01*
D02*
G37*
G36*
X184484Y329833D02*
X185984Y328333D01*
Y327181D01*
X185437D01*
Y325000D01*
X184437D01*
Y327181D01*
X183468D01*
Y325000D01*
X182468D01*
Y327181D01*
X181500D01*
Y325000D01*
X180500D01*
Y327181D01*
X180095D01*
X176484Y330791D01*
X176484Y348291D01*
X184484D01*
X184484Y329833D01*
D02*
G37*
G36*
X191984Y317074D02*
Y307095D01*
X192000D01*
Y293000D01*
X204256Y280744D01*
Y269921D01*
X203807D01*
Y266559D01*
X207000D01*
Y262441D01*
X203807D01*
Y259079D01*
X207000D01*
Y255756D01*
X209921D01*
X209921Y244756D01*
X209999Y244366D01*
X210220Y244035D01*
X210551Y243814D01*
X210941Y243736D01*
X219941D01*
X220331Y243814D01*
X220662Y244035D01*
X220883Y244366D01*
X220961Y244756D01*
X220960Y255756D01*
X234921Y255756D01*
X234921Y244756D01*
X234999Y244366D01*
X235220Y244035D01*
X235551Y243814D01*
X235941Y243736D01*
X244941D01*
X245331Y243814D01*
X245662Y244035D01*
X245883Y244366D01*
X245961Y244756D01*
X245960Y255756D01*
X259921D01*
X259921Y244756D01*
X259999Y244366D01*
X260220Y244035D01*
X260551Y243814D01*
X260941Y243736D01*
X269941D01*
X270331Y243814D01*
X270662Y244035D01*
X270883Y244366D01*
X270961Y244756D01*
X270960Y255756D01*
X284921Y255756D01*
X284921Y244756D01*
X284999Y244366D01*
X285220Y244035D01*
X285551Y243814D01*
X285941Y243736D01*
X294941D01*
X295331Y243814D01*
X295662Y244035D01*
X295883Y244366D01*
X295961Y244756D01*
X295960Y255756D01*
X309921D01*
X309921Y244756D01*
X309999Y244366D01*
X310140Y244154D01*
X305742Y239756D01*
X302500D01*
X200441Y239756D01*
X197000D01*
X197000Y269000D01*
X183331Y269000D01*
X183228Y269780D01*
X182781Y270860D01*
X182070Y271787D01*
X181143Y272498D01*
X180064Y272945D01*
X180000Y272953D01*
X180000Y293291D01*
X179984D01*
Y311402D01*
X180500D01*
Y313583D01*
X181500D01*
Y311402D01*
X182468D01*
Y313583D01*
X183468D01*
Y311402D01*
X184437D01*
Y313583D01*
X184937D01*
Y314083D01*
X186429D01*
Y314846D01*
X187193D01*
Y316339D01*
X187693D01*
Y316839D01*
X189874D01*
Y317287D01*
X191771D01*
X191984Y317074D01*
D02*
G37*
G36*
X251500Y329000D02*
X256000Y324500D01*
Y309000D01*
X213500D01*
X208500Y314000D01*
X208500Y324000D01*
X234500D01*
X242500Y332000D01*
X242500Y347500D01*
X251500D01*
X251500Y329000D01*
D02*
G37*
G36*
X178980Y273667D02*
X178905Y273602D01*
X173500D01*
Y268622D01*
Y263642D01*
X178905D01*
X180194Y263812D01*
X181395Y264310D01*
X182427Y265101D01*
X183218Y266132D01*
X183715Y267333D01*
X183801Y267980D01*
X185000D01*
Y257000D01*
X158500Y257000D01*
Y288500D01*
X178980D01*
X178980Y273667D01*
D02*
G37*
G36*
X319941Y244756D02*
X310941D01*
X310941Y267756D01*
X319941D01*
X319941Y244756D01*
D02*
G37*
G36*
X294941D02*
X285941D01*
X285941Y267756D01*
X294941D01*
X294941Y244756D01*
D02*
G37*
G36*
X269941D02*
X260941D01*
X260941Y267756D01*
X269941D01*
X269941Y244756D01*
D02*
G37*
G36*
X244941D02*
X235941D01*
X235941Y267756D01*
X244941D01*
X244941Y244756D01*
D02*
G37*
G36*
X219941D02*
X210941D01*
X210941Y267756D01*
X219941D01*
X219941Y244756D01*
D02*
G37*
%LPC*%
G36*
X240063Y364512D02*
X237299D01*
Y358500D01*
X240063D01*
Y364512D01*
D02*
G37*
G36*
X236299D02*
X233535D01*
Y358500D01*
X236299D01*
Y364512D01*
D02*
G37*
G36*
X240063Y357500D02*
X237299D01*
Y351488D01*
X240063D01*
Y357500D01*
D02*
G37*
G36*
X236299D02*
X233535D01*
Y351488D01*
X236299D01*
Y357500D01*
D02*
G37*
G36*
X240913Y346748D02*
X238445D01*
Y342016D01*
X240913D01*
Y346748D01*
D02*
G37*
G36*
X237445D02*
X234976D01*
Y342016D01*
X237445D01*
Y346748D01*
D02*
G37*
G36*
X192634Y347276D02*
X190165D01*
Y340083D01*
X192634D01*
Y347276D01*
D02*
G37*
G36*
X189165D02*
X186697D01*
Y340083D01*
X189165D01*
Y347276D01*
D02*
G37*
G36*
X240913Y341016D02*
X238445D01*
Y336283D01*
X240913D01*
Y341016D01*
D02*
G37*
G36*
X237445D02*
X234976D01*
Y336283D01*
X237445D01*
Y341016D01*
D02*
G37*
G36*
X203543Y337653D02*
X199500D01*
Y334594D01*
X203543D01*
Y337653D01*
D02*
G37*
G36*
X198500D02*
X194457D01*
Y334594D01*
X198500D01*
Y337653D01*
D02*
G37*
G36*
X192634Y339083D02*
X190165D01*
Y331890D01*
X192634D01*
Y339083D01*
D02*
G37*
G36*
X189165D02*
X186697D01*
Y331890D01*
X189165D01*
Y339083D01*
D02*
G37*
G36*
X203543Y333594D02*
X199500D01*
Y330535D01*
X203543D01*
Y333594D01*
D02*
G37*
G36*
X198500D02*
X194457D01*
Y330535D01*
X198500D01*
Y333594D01*
D02*
G37*
G36*
X183303Y347276D02*
X180835D01*
Y340083D01*
X183303D01*
Y347276D01*
D02*
G37*
G36*
X179835D02*
X177366D01*
Y340083D01*
X179835D01*
Y347276D01*
D02*
G37*
G36*
X183303Y339083D02*
X180835D01*
Y331890D01*
X183303D01*
Y339083D01*
D02*
G37*
G36*
X179835D02*
X177366D01*
Y331890D01*
X179835D01*
Y339083D01*
D02*
G37*
G36*
X189874Y315839D02*
X188193D01*
Y314846D01*
X189874D01*
Y315839D01*
D02*
G37*
G36*
X186429Y313083D02*
X185437D01*
Y311402D01*
X186429D01*
Y313083D01*
D02*
G37*
G36*
X189063Y307095D02*
X186299D01*
Y301083D01*
X189063D01*
Y307095D01*
D02*
G37*
G36*
X185299D02*
X182535D01*
Y301083D01*
X185299D01*
Y307095D01*
D02*
G37*
G36*
X189063Y300083D02*
X186299D01*
Y294071D01*
X189063D01*
Y300083D01*
D02*
G37*
G36*
X185299D02*
X182535D01*
Y294071D01*
X185299D01*
Y300083D01*
D02*
G37*
G36*
X188669Y284370D02*
X186398D01*
Y282000D01*
X188669D01*
Y284370D01*
D02*
G37*
G36*
X185398D02*
X183126D01*
Y282000D01*
X185398D01*
Y284370D01*
D02*
G37*
G36*
X188669Y281000D02*
X186398D01*
Y278630D01*
X188669D01*
Y281000D01*
D02*
G37*
G36*
X185398D02*
X183126D01*
Y278630D01*
X185398D01*
Y281000D01*
D02*
G37*
G36*
X309394Y253677D02*
X305941D01*
Y250224D01*
X309394D01*
Y253677D01*
D02*
G37*
G36*
X304941D02*
X301488D01*
Y250224D01*
X304941D01*
Y253677D01*
D02*
G37*
G36*
X284394D02*
X280941D01*
Y250224D01*
X284394D01*
Y253677D01*
D02*
G37*
G36*
X279941D02*
X276488D01*
Y250224D01*
X279941D01*
Y253677D01*
D02*
G37*
G36*
X259394D02*
X255941D01*
Y250224D01*
X259394D01*
Y253677D01*
D02*
G37*
G36*
X254941D02*
X251488D01*
Y250224D01*
X254941D01*
Y253677D01*
D02*
G37*
G36*
X234394D02*
X230941D01*
Y250224D01*
X234394D01*
Y253677D01*
D02*
G37*
G36*
X229941D02*
X226488D01*
Y250224D01*
X229941D01*
Y253677D01*
D02*
G37*
G36*
X209394D02*
X205941D01*
Y250224D01*
X209394D01*
Y253677D01*
D02*
G37*
G36*
X204941D02*
X201488D01*
Y250224D01*
X204941D01*
Y253677D01*
D02*
G37*
G36*
X309394Y249224D02*
X305941D01*
Y245772D01*
X309394D01*
Y249224D01*
D02*
G37*
G36*
X304941D02*
X301488D01*
Y245772D01*
X304941D01*
Y249224D01*
D02*
G37*
G36*
X284394D02*
X280941D01*
Y245772D01*
X284394D01*
Y249224D01*
D02*
G37*
G36*
X279941D02*
X276488D01*
Y245772D01*
X279941D01*
Y249224D01*
D02*
G37*
G36*
X259394D02*
X255941D01*
Y245772D01*
X259394D01*
Y249224D01*
D02*
G37*
G36*
X254941D02*
X251488D01*
Y245772D01*
X254941D01*
Y249224D01*
D02*
G37*
G36*
X234394D02*
X230941D01*
Y245772D01*
X234394D01*
Y249224D01*
D02*
G37*
G36*
X229941D02*
X226488D01*
Y245772D01*
X229941D01*
Y249224D01*
D02*
G37*
G36*
X209394D02*
X205941D01*
Y245772D01*
X209394D01*
Y249224D01*
D02*
G37*
G36*
X204941D02*
X201488D01*
Y245772D01*
X204941D01*
Y249224D01*
D02*
G37*
G36*
X249969Y346748D02*
X247500D01*
Y342016D01*
X249969D01*
Y346748D01*
D02*
G37*
G36*
X246500D02*
X244032D01*
Y342016D01*
X246500D01*
Y346748D01*
D02*
G37*
G36*
X249969Y341016D02*
X247500D01*
Y336283D01*
X249969D01*
Y341016D01*
D02*
G37*
G36*
X246500D02*
X244032D01*
Y336283D01*
X246500D01*
Y341016D01*
D02*
G37*
G36*
X229543Y322047D02*
X225500D01*
Y318988D01*
X229543D01*
Y322047D01*
D02*
G37*
G36*
X219543D02*
X215500D01*
Y318988D01*
X219543D01*
Y322047D01*
D02*
G37*
G36*
X224500D02*
X220457D01*
Y318988D01*
X224500D01*
Y322047D01*
D02*
G37*
G36*
X214500D02*
X210457D01*
Y318988D01*
X214500D01*
Y322047D01*
D02*
G37*
G36*
X254398Y323716D02*
X247500D01*
Y318984D01*
X254398D01*
Y323716D01*
D02*
G37*
G36*
X246500D02*
X239602D01*
Y318984D01*
X246500D01*
Y323716D01*
D02*
G37*
G36*
X229543Y317988D02*
X225500D01*
Y314929D01*
X229543D01*
Y317988D01*
D02*
G37*
G36*
X224500D02*
X220457D01*
Y314929D01*
X224500D01*
Y317988D01*
D02*
G37*
G36*
X219543D02*
X215500D01*
Y314929D01*
X219543D01*
Y317988D01*
D02*
G37*
G36*
X214500D02*
X210457D01*
Y314929D01*
X214500D01*
Y317988D01*
D02*
G37*
G36*
X254398Y317984D02*
X247500D01*
Y313252D01*
X254398D01*
Y317984D01*
D02*
G37*
G36*
X246500D02*
X239602D01*
Y313252D01*
X246500D01*
Y317984D01*
D02*
G37*
G36*
X175874Y284370D02*
X173602D01*
Y282000D01*
X175874D01*
Y284370D01*
D02*
G37*
G36*
X172602D02*
X170331D01*
Y282000D01*
X172602D01*
Y284370D01*
D02*
G37*
G36*
X175874Y281000D02*
X173602D01*
Y278630D01*
X175874D01*
Y281000D01*
D02*
G37*
G36*
X172602D02*
X170331D01*
Y278630D01*
X172602D01*
Y281000D01*
D02*
G37*
G36*
X172500Y273602D02*
X167095D01*
X165806Y273432D01*
X164605Y272935D01*
X163573Y272143D01*
X162782Y271112D01*
X162285Y269911D01*
X162181Y269122D01*
X172500D01*
Y273602D01*
D02*
G37*
G36*
Y268122D02*
X162181D01*
X162285Y267333D01*
X162782Y266132D01*
X163573Y265101D01*
X164605Y264310D01*
X165806Y263812D01*
X167095Y263642D01*
X172500D01*
Y268122D01*
D02*
G37*
G36*
X318693Y266681D02*
X316224D01*
Y265000D01*
X318693D01*
Y266681D01*
D02*
G37*
G36*
X315224D02*
X312756D01*
Y265000D01*
X315224D01*
Y266681D01*
D02*
G37*
G36*
X318693Y264000D02*
X316224D01*
Y262319D01*
X318693D01*
Y264000D01*
D02*
G37*
G36*
X315224D02*
X312756D01*
Y262319D01*
X315224D01*
Y264000D01*
D02*
G37*
G36*
X315941Y253645D02*
Y250224D01*
X319362D01*
X319292Y250756D01*
X318894Y251718D01*
X318260Y252544D01*
X317434Y253177D01*
X316473Y253575D01*
X315941Y253645D01*
D02*
G37*
G36*
X314941D02*
X314409Y253575D01*
X313447Y253177D01*
X312622Y252544D01*
X311988Y251718D01*
X311590Y250756D01*
X311520Y250224D01*
X314941D01*
Y253645D01*
D02*
G37*
G36*
X319362Y249224D02*
X315941D01*
Y245803D01*
X316473Y245873D01*
X317434Y246272D01*
X318260Y246905D01*
X318894Y247731D01*
X319292Y248692D01*
X319362Y249224D01*
D02*
G37*
G36*
X314941D02*
X311520D01*
X311590Y248692D01*
X311988Y247731D01*
X312622Y246905D01*
X313447Y246272D01*
X314409Y245873D01*
X314941Y245803D01*
Y249224D01*
D02*
G37*
G36*
X293693Y266681D02*
X291224D01*
Y265000D01*
X293693D01*
Y266681D01*
D02*
G37*
G36*
X290224D02*
X287756D01*
Y265000D01*
X290224D01*
Y266681D01*
D02*
G37*
G36*
X293693Y264000D02*
X291224D01*
Y262319D01*
X293693D01*
Y264000D01*
D02*
G37*
G36*
X290224D02*
X287756D01*
Y262319D01*
X290224D01*
Y264000D01*
D02*
G37*
G36*
X290941Y253645D02*
Y250224D01*
X294362D01*
X294292Y250756D01*
X293894Y251718D01*
X293260Y252544D01*
X292434Y253177D01*
X291473Y253575D01*
X290941Y253645D01*
D02*
G37*
G36*
X289941D02*
X289409Y253575D01*
X288447Y253177D01*
X287622Y252544D01*
X286988Y251718D01*
X286590Y250756D01*
X286520Y250224D01*
X289941D01*
Y253645D01*
D02*
G37*
G36*
X294362Y249224D02*
X290941D01*
Y245803D01*
X291473Y245873D01*
X292434Y246272D01*
X293260Y246905D01*
X293894Y247731D01*
X294292Y248692D01*
X294362Y249224D01*
D02*
G37*
G36*
X289941D02*
X286520D01*
X286590Y248692D01*
X286988Y247731D01*
X287622Y246905D01*
X288447Y246272D01*
X289409Y245873D01*
X289941Y245803D01*
Y249224D01*
D02*
G37*
G36*
X268693Y266681D02*
X266224D01*
Y265000D01*
X268693D01*
Y266681D01*
D02*
G37*
G36*
X265224D02*
X262756D01*
Y265000D01*
X265224D01*
Y266681D01*
D02*
G37*
G36*
X268693Y264000D02*
X266224D01*
Y262319D01*
X268693D01*
Y264000D01*
D02*
G37*
G36*
X265224D02*
X262756D01*
Y262319D01*
X265224D01*
Y264000D01*
D02*
G37*
G36*
X265941Y253645D02*
Y250224D01*
X269362D01*
X269292Y250756D01*
X268894Y251718D01*
X268260Y252544D01*
X267434Y253177D01*
X266473Y253575D01*
X265941Y253645D01*
D02*
G37*
G36*
X264941D02*
X264409Y253575D01*
X263447Y253177D01*
X262622Y252544D01*
X261988Y251718D01*
X261590Y250756D01*
X261520Y250224D01*
X264941D01*
Y253645D01*
D02*
G37*
G36*
X269362Y249224D02*
X265941D01*
Y245803D01*
X266473Y245873D01*
X267434Y246272D01*
X268260Y246905D01*
X268894Y247731D01*
X269292Y248692D01*
X269362Y249224D01*
D02*
G37*
G36*
X264941D02*
X261520D01*
X261590Y248692D01*
X261988Y247731D01*
X262622Y246905D01*
X263447Y246272D01*
X264409Y245873D01*
X264941Y245803D01*
Y249224D01*
D02*
G37*
G36*
X243693Y266681D02*
X241224D01*
Y265000D01*
X243693D01*
Y266681D01*
D02*
G37*
G36*
X240224D02*
X237756D01*
Y265000D01*
X240224D01*
Y266681D01*
D02*
G37*
G36*
X243693Y264000D02*
X241224D01*
Y262319D01*
X243693D01*
Y264000D01*
D02*
G37*
G36*
X240224D02*
X237756D01*
Y262319D01*
X240224D01*
Y264000D01*
D02*
G37*
G36*
X240941Y253645D02*
Y250224D01*
X244362D01*
X244292Y250756D01*
X243894Y251718D01*
X243260Y252544D01*
X242434Y253177D01*
X241473Y253575D01*
X240941Y253645D01*
D02*
G37*
G36*
X239941D02*
X239409Y253575D01*
X238447Y253177D01*
X237622Y252544D01*
X236988Y251718D01*
X236590Y250756D01*
X236520Y250224D01*
X239941D01*
Y253645D01*
D02*
G37*
G36*
X244362Y249224D02*
X240941D01*
Y245803D01*
X241473Y245873D01*
X242434Y246272D01*
X243260Y246905D01*
X243894Y247731D01*
X244292Y248692D01*
X244362Y249224D01*
D02*
G37*
G36*
X239941D02*
X236520D01*
X236590Y248692D01*
X236988Y247731D01*
X237622Y246905D01*
X238447Y246272D01*
X239409Y245873D01*
X239941Y245803D01*
Y249224D01*
D02*
G37*
G36*
X218693Y266681D02*
X216224D01*
Y265000D01*
X218693D01*
Y266681D01*
D02*
G37*
G36*
X215224D02*
X212756D01*
Y265000D01*
X215224D01*
Y266681D01*
D02*
G37*
G36*
X218693Y264000D02*
X216224D01*
Y262319D01*
X218693D01*
Y264000D01*
D02*
G37*
G36*
X215224D02*
X212756D01*
Y262319D01*
X215224D01*
Y264000D01*
D02*
G37*
G36*
X215941Y253645D02*
Y250224D01*
X219362D01*
X219292Y250756D01*
X218894Y251718D01*
X218260Y252544D01*
X217434Y253177D01*
X216473Y253575D01*
X215941Y253645D01*
D02*
G37*
G36*
X214941D02*
X214409Y253575D01*
X213447Y253177D01*
X212622Y252544D01*
X211988Y251718D01*
X211590Y250756D01*
X211520Y250224D01*
X214941D01*
Y253645D01*
D02*
G37*
G36*
X219362Y249224D02*
X215941D01*
Y245803D01*
X216473Y245873D01*
X217434Y246272D01*
X218260Y246905D01*
X218894Y247731D01*
X219292Y248692D01*
X219362Y249224D01*
D02*
G37*
G36*
X214941D02*
X211520D01*
X211590Y248692D01*
X211988Y247731D01*
X212622Y246905D01*
X213447Y246272D01*
X214409Y245873D01*
X214941Y245803D01*
Y249224D01*
D02*
G37*
G36*
X147500Y413921D02*
Y410500D01*
X150921D01*
X150851Y411032D01*
X150453Y411993D01*
X149819Y412819D01*
X148993Y413453D01*
X148032Y413851D01*
X147500Y413921D01*
D02*
G37*
G36*
X146500D02*
X145968Y413851D01*
X145007Y413453D01*
X144181Y412819D01*
X143547Y411993D01*
X143149Y411032D01*
X143079Y410500D01*
X146500D01*
Y413921D01*
D02*
G37*
G36*
X150921Y409500D02*
X147500D01*
Y406079D01*
X148032Y406149D01*
X148993Y406547D01*
X149819Y407181D01*
X150453Y408007D01*
X150851Y408968D01*
X150921Y409500D01*
D02*
G37*
G36*
X146500D02*
X143079D01*
X143149Y408968D01*
X143547Y408007D01*
X144181Y407181D01*
X145007Y406547D01*
X145968Y406149D01*
X146500Y406079D01*
Y409500D01*
D02*
G37*
G36*
X147500Y403921D02*
Y400500D01*
X150921D01*
X150851Y401032D01*
X150453Y401993D01*
X149819Y402819D01*
X148993Y403453D01*
X148032Y403851D01*
X147500Y403921D01*
D02*
G37*
G36*
X146500D02*
X145968Y403851D01*
X145007Y403453D01*
X144181Y402819D01*
X143547Y401993D01*
X143149Y401032D01*
X143079Y400500D01*
X146500D01*
Y403921D01*
D02*
G37*
G36*
X150921Y399500D02*
X147500D01*
Y396079D01*
X148032Y396149D01*
X148993Y396547D01*
X149819Y397181D01*
X150453Y398007D01*
X150851Y398968D01*
X150921Y399500D01*
D02*
G37*
G36*
X146500D02*
X143079D01*
X143149Y398968D01*
X143547Y398007D01*
X144181Y397181D01*
X145007Y396547D01*
X145968Y396149D01*
X146500Y396079D01*
Y399500D01*
D02*
G37*
%LPD*%
D13*
X306276Y268240D02*
Y286331D01*
X281016Y268240D02*
Y286102D01*
X256276Y286331D02*
X257701Y287756D01*
X256276Y268740D02*
Y286331D01*
X231016Y286102D02*
X232701Y287787D01*
X231016Y268740D02*
Y286102D01*
X209457Y289740D02*
Y295740D01*
X205276Y285331D02*
X209472Y289528D01*
X205276Y268240D02*
Y285331D01*
X176276Y318307D02*
X179984D01*
Y317291D02*
X181984Y319291D01*
X179031Y316339D02*
X179984Y317291D01*
X176276Y316339D02*
X179031D01*
X179984Y321083D02*
Y321291D01*
X179177Y320276D02*
X179984Y321083D01*
X176276Y320276D02*
X179177D01*
X179032Y322244D02*
X179984Y321291D01*
X176276Y322244D02*
X179032D01*
X183984Y321083D02*
Y321291D01*
Y321083D02*
X184791Y320276D01*
X187693D01*
X183984Y321291D02*
X184937Y322244D01*
X187693D01*
X192193Y318307D02*
X194500Y316000D01*
X187693Y318307D02*
X192193D01*
X194484Y347516D02*
X194500Y347500D01*
X194484Y347516D02*
Y350175D01*
X190652Y354204D02*
X194484Y350372D01*
Y350175D02*
Y350372D01*
X175175Y350175D02*
X194484D01*
X166031Y341031D02*
X175175Y350175D01*
X166031Y325583D02*
Y341031D01*
X288378Y289724D02*
X288425Y289677D01*
Y283772D02*
Y289677D01*
Y283772D02*
X288472Y283724D01*
X236000Y387000D02*
X240779Y391779D01*
X205500Y387000D02*
X236000D01*
X159000Y340500D02*
X205500Y387000D01*
X228000Y389000D02*
X231000Y392000D01*
X204500Y389000D02*
X228000D01*
X157000Y341500D02*
X204500Y389000D01*
X231000Y392000D02*
Y408000D01*
X224900Y412400D02*
X268301D01*
X155000Y342500D02*
X224900Y412400D01*
X155000Y330000D02*
Y342500D01*
X157000Y320000D02*
Y341500D01*
X159000Y312000D02*
Y340500D01*
X257000Y359968D02*
Y375559D01*
X240779Y391779D02*
X257000Y375559D01*
X233000Y410000D02*
X258000D01*
X231000Y408000D02*
X233000Y410000D01*
X240779Y391779D02*
Y400000D01*
X247000Y341516D02*
Y347500D01*
X249000Y349500D01*
X255000D01*
X257000Y351500D01*
Y356031D01*
X225000Y318484D02*
X247000D01*
X268301Y412400D02*
X275740Y404961D01*
X263300Y400000D02*
X280780D01*
X260800Y402500D02*
X263300Y400000D01*
X260800Y402500D02*
Y407200D01*
X258000Y410000D02*
X260800Y407200D01*
X280780Y400000D02*
X285740Y404961D01*
X152000Y315000D02*
X157000Y320000D01*
X142000Y315000D02*
X152000D01*
X240779Y400000D02*
X245740Y404961D01*
X150000Y325000D02*
X155000Y330000D01*
X142000Y325000D02*
X150000D01*
X137000Y320000D02*
X142000Y325000D01*
X137000Y310000D02*
X142000Y315000D01*
X147000Y300000D02*
X159000Y312000D01*
X284471Y299722D02*
Y303971D01*
X309471Y299722D02*
Y304441D01*
X234471Y299691D02*
Y303971D01*
X259471Y299722D02*
Y303971D01*
X309471Y304441D02*
Y304470D01*
Y304441D02*
X309500Y304470D01*
X309441Y299693D02*
X309471Y299722D01*
X284471Y304441D02*
X284500Y304470D01*
X284441Y299693D02*
X284471Y299722D01*
X259471Y304441D02*
X259500Y304470D01*
X259441Y299693D02*
X259471Y299722D01*
X234471Y304441D02*
X234500Y304470D01*
X234441Y299661D02*
X234471Y299691D01*
X169000Y311236D02*
X169394D01*
X171740Y313583D01*
X179031D01*
X236799Y358000D02*
X237945Y356854D01*
Y341516D02*
Y356854D01*
X221709Y349709D02*
X230000Y358000D01*
X236799D01*
X169968Y325583D02*
X170260Y325291D01*
X179024D01*
X179031Y325284D01*
Y325000D02*
Y325284D01*
X215000Y318488D02*
X225000D01*
Y318484D02*
Y318488D01*
X313441Y283756D02*
X313472Y283724D01*
X313441Y283756D02*
Y289693D01*
X313409Y289724D02*
X313441Y289693D01*
X309441Y295756D02*
X315441D01*
X309441D02*
X309457Y295740D01*
Y289740D02*
Y295740D01*
Y289740D02*
X309472Y289724D01*
Y289528D02*
Y289724D01*
X306276Y286331D02*
X309472Y289528D01*
X284441D02*
Y289724D01*
X281016Y286102D02*
X284441Y289528D01*
Y289724D02*
Y295756D01*
X284457Y295772D01*
X290425D01*
X290441Y295787D01*
X259441Y295756D02*
X265441D01*
X259457Y289740D02*
X259472Y289724D01*
X259457Y289740D02*
Y295740D01*
X259441Y295756D02*
X259457Y295740D01*
X263409Y289724D02*
X263441Y289693D01*
Y283756D02*
Y289693D01*
Y283756D02*
X263472Y283724D01*
X259472Y289528D02*
Y289724D01*
X257701Y287756D02*
X259472Y289528D01*
X234441D02*
Y289724D01*
X232701Y287787D02*
X234441Y289528D01*
X209472D02*
Y289724D01*
X209457Y295740D02*
X209472Y295756D01*
X209457Y289740D02*
X209472Y289724D01*
Y295756D02*
X215409D01*
X215441Y295787D01*
X213409Y289724D02*
X213441Y289693D01*
Y283756D02*
Y289693D01*
Y283756D02*
X213472Y283724D01*
X238378Y289724D02*
X238425Y289677D01*
Y283772D02*
Y289677D01*
Y283772D02*
X238472Y283724D01*
X234441Y289724D02*
Y295724D01*
X240409D02*
X240441Y295756D01*
X234441Y295724D02*
X240409D01*
D33*
X173102Y281500D02*
D03*
X185898D02*
D03*
D34*
X169968Y325583D02*
D03*
X166031D02*
D03*
X213472Y283724D02*
D03*
X217409D02*
D03*
X209472Y289724D02*
D03*
X213409D02*
D03*
X238472Y283724D02*
D03*
X242409D02*
D03*
X234441Y289724D02*
D03*
X238378D02*
D03*
X263472Y283724D02*
D03*
X267409D02*
D03*
X259472Y289724D02*
D03*
X263409D02*
D03*
X288472Y283724D02*
D03*
X292409D02*
D03*
X284441Y289724D02*
D03*
X288378D02*
D03*
X313472Y283724D02*
D03*
X317409D02*
D03*
X309472Y289724D02*
D03*
X313409D02*
D03*
D35*
X169000Y311236D02*
D03*
Y317929D02*
D03*
D36*
X215000Y318488D02*
D03*
Y329512D02*
D03*
X225000Y318488D02*
D03*
Y329512D02*
D03*
X199000Y334095D02*
D03*
Y323071D02*
D03*
D37*
X257000Y359968D02*
D03*
Y356031D02*
D03*
X189821Y354839D02*
D03*
Y358776D02*
D03*
X183821Y358776D02*
D03*
Y354839D02*
D03*
X215441Y295787D02*
D03*
Y299724D02*
D03*
X209441Y295724D02*
D03*
Y299661D02*
D03*
X240441Y295756D02*
D03*
Y299693D02*
D03*
X234441Y295724D02*
D03*
Y299661D02*
D03*
X265441Y295756D02*
D03*
Y299693D02*
D03*
X259441Y295756D02*
D03*
Y299693D02*
D03*
X290441Y295787D02*
D03*
Y299724D02*
D03*
X284441Y295756D02*
D03*
Y299693D02*
D03*
X309441Y295756D02*
D03*
Y299693D02*
D03*
X315441D02*
D03*
Y295756D02*
D03*
D38*
X256055Y341516D02*
D03*
X247000D02*
D03*
X237945D02*
D03*
D39*
X247000Y318484D02*
D03*
D40*
X236799Y358000D02*
D03*
X249201D02*
D03*
X185799Y300583D02*
D03*
X198201D02*
D03*
D41*
X184937Y325000D02*
D03*
X182968D02*
D03*
X181000D02*
D03*
X179031D02*
D03*
Y313583D02*
D03*
X181000D02*
D03*
X182968D02*
D03*
X184937D02*
D03*
D42*
X176276Y322244D02*
D03*
Y320276D02*
D03*
Y318307D02*
D03*
Y316339D02*
D03*
X187693D02*
D03*
Y318307D02*
D03*
Y320276D02*
D03*
Y322244D02*
D03*
D43*
X181984Y319291D02*
D03*
D44*
X189665Y339583D02*
D03*
X180335D02*
D03*
D45*
X206276Y268240D02*
D03*
Y260760D02*
D03*
X215724Y264500D02*
D03*
X231276Y268240D02*
D03*
Y260760D02*
D03*
X240724Y264500D02*
D03*
X256276Y268240D02*
D03*
Y260760D02*
D03*
X265724Y264500D02*
D03*
X281276Y268240D02*
D03*
Y260760D02*
D03*
X290724Y264500D02*
D03*
X306276Y268240D02*
D03*
Y260760D02*
D03*
X315724Y264500D02*
D03*
D46*
X209500Y303592D02*
Y304000D01*
Y299721D02*
Y303592D01*
X209441Y299661D02*
X209500Y299721D01*
X190652Y354008D02*
X194484Y350175D01*
X190652Y354008D02*
Y354204D01*
X190017Y354839D02*
X190652Y354204D01*
X189821Y354839D02*
X190017D01*
X189821Y358776D02*
X189821Y358776D01*
X183821Y358776D02*
X189821D01*
X214988Y318500D02*
X215000Y318488D01*
D47*
X137000Y410000D02*
D03*
X160000Y385000D02*
D03*
Y410000D02*
D03*
X225740Y224961D02*
D03*
D48*
X147000Y410000D02*
D03*
X137000Y400000D02*
D03*
X147000D02*
D03*
X137000Y390000D02*
D03*
X147000D02*
D03*
X137000Y380000D02*
D03*
X147000D02*
D03*
X137000Y370000D02*
D03*
X147000D02*
D03*
X137000Y360000D02*
D03*
X147000D02*
D03*
X137000Y350000D02*
D03*
X147000D02*
D03*
X137000Y340000D02*
D03*
X147000D02*
D03*
X137000Y330000D02*
D03*
X147000D02*
D03*
X137000Y320000D02*
D03*
X147000D02*
D03*
X137000Y310000D02*
D03*
X147000D02*
D03*
X137000Y300000D02*
D03*
X147000D02*
D03*
X137000Y290000D02*
D03*
X147000D02*
D03*
X137000Y280000D02*
D03*
X147000D02*
D03*
X137000Y270000D02*
D03*
X147000D02*
D03*
X137000Y260000D02*
D03*
X147000D02*
D03*
X137000Y250000D02*
D03*
X147000D02*
D03*
X137000Y240000D02*
D03*
X147000D02*
D03*
X137000Y230000D02*
D03*
X147000D02*
D03*
X137000Y220000D02*
D03*
X147000D02*
D03*
X160000Y375000D02*
D03*
Y400000D02*
D03*
X225740Y404961D02*
D03*
Y394961D02*
D03*
Y234961D02*
D03*
X255740Y404961D02*
D03*
Y394961D02*
D03*
Y234961D02*
D03*
Y224961D02*
D03*
X265740D02*
D03*
Y234961D02*
D03*
Y394961D02*
D03*
Y404961D02*
D03*
X245740D02*
D03*
Y394961D02*
D03*
Y234961D02*
D03*
Y224961D02*
D03*
X235740D02*
D03*
Y234961D02*
D03*
Y394961D02*
D03*
Y404961D02*
D03*
X295740D02*
D03*
Y394961D02*
D03*
Y234961D02*
D03*
Y224961D02*
D03*
X305740D02*
D03*
Y234961D02*
D03*
Y394961D02*
D03*
Y404961D02*
D03*
X285740D02*
D03*
Y394961D02*
D03*
Y234961D02*
D03*
Y224961D02*
D03*
X275740D02*
D03*
Y234961D02*
D03*
Y394961D02*
D03*
Y404961D02*
D03*
X315740Y224961D02*
D03*
Y234961D02*
D03*
Y394961D02*
D03*
Y404961D02*
D03*
X315441Y249724D02*
D03*
X290441D02*
D03*
X265441D02*
D03*
X240441D02*
D03*
X215441D02*
D03*
D49*
X173000Y245000D02*
D03*
Y268622D02*
D03*
D50*
X191504Y256811D02*
D03*
D51*
X305441Y249724D02*
D03*
X280441D02*
D03*
X255441D02*
D03*
X230441D02*
D03*
X205441D02*
D03*
D52*
X227000Y261000D02*
D03*
X220500Y305500D02*
D03*
X244000D02*
D03*
X270000Y308000D02*
D03*
X296500D02*
D03*
X191000Y326000D02*
D03*
X207000Y327000D02*
D03*
X200000Y310000D02*
D03*
X195000D02*
D03*
X162500Y332000D02*
D03*
X288500Y219000D02*
D03*
X317000D02*
D03*
X316500Y364500D02*
D03*
X317500Y410500D02*
D03*
X300500D02*
D03*
X280500Y410000D02*
D03*
X206500Y226500D02*
D03*
Y235000D02*
D03*
X185000Y231000D02*
D03*
X166500Y224500D02*
D03*
X162500Y236000D02*
D03*
X179000Y253000D02*
D03*
X163000Y253500D02*
D03*
X169500Y293000D02*
D03*
X176000Y305000D02*
D03*
X162000D02*
D03*
X201500Y314500D02*
D03*
X203000Y286000D02*
D03*
X227000Y273000D02*
D03*
X243000Y276000D02*
D03*
X253000Y286000D02*
D03*
Y264500D02*
D03*
X303000Y286000D02*
D03*
X302000Y267500D02*
D03*
X277000Y286000D02*
D03*
Y267500D02*
D03*
X306500Y338000D02*
D03*
X309000Y312500D02*
D03*
X287500Y326000D02*
D03*
X270500Y327500D02*
D03*
X295500Y357500D02*
D03*
X272000Y356500D02*
D03*
X310000Y384000D02*
D03*
X283000D02*
D03*
X262500D02*
D03*
X213000Y368500D02*
D03*
X198000Y372500D02*
D03*
X176500Y374000D02*
D03*
X175000Y391000D02*
D03*
X181000Y399000D02*
D03*
X186000Y386000D02*
D03*
X199000Y398000D02*
D03*
X207500Y409500D02*
D03*
X189500D02*
D03*
X169000Y405000D02*
D03*
X162000Y354000D02*
D03*
X164500Y356500D02*
D03*
X167000Y359000D02*
D03*
X169500Y361500D02*
D03*
X172000Y364000D02*
D03*
X174500Y366500D02*
D03*
X215500Y349500D02*
D03*
X211500D02*
D03*
X207500D02*
D03*
X203500D02*
D03*
X199500D02*
D03*
X183984Y321291D02*
D03*
Y317291D02*
D03*
X179984D02*
D03*
Y321291D02*
D03*
D53*
X194500Y316000D02*
D03*
X213500Y312000D02*
D03*
X218000D02*
D03*
X222500D02*
D03*
X309500Y303592D02*
D03*
X284500D02*
D03*
X259500D02*
D03*
X234500D02*
D03*
X209500D02*
D03*
M02*
