G04*
G04 #@! TF.GenerationSoftware,Altium Limited,Altium Designer,19.0.15 (446)*
G04*
G04 Layer_Color=16711935*
%FSLAX25Y25*%
%MOIN*%
G70*
G01*
G75*
%ADD28R,0.06906X0.06906*%
%ADD29C,0.06906*%
%ADD30O,0.20685X0.08874*%
%ADD31O,0.08874X0.20685*%
%ADD32R,0.06906X0.06906*%
D28*
X137000Y410000D02*
D03*
X160000Y385000D02*
D03*
Y410000D02*
D03*
X225740Y224961D02*
D03*
D29*
X147000Y410000D02*
D03*
X137000Y400000D02*
D03*
X147000D02*
D03*
X137000Y390000D02*
D03*
X147000D02*
D03*
X137000Y380000D02*
D03*
X147000D02*
D03*
X137000Y370000D02*
D03*
X147000D02*
D03*
X137000Y360000D02*
D03*
X147000D02*
D03*
X137000Y350000D02*
D03*
X147000D02*
D03*
X137000Y340000D02*
D03*
X147000D02*
D03*
X137000Y330000D02*
D03*
X147000D02*
D03*
X137000Y320000D02*
D03*
X147000D02*
D03*
X137000Y310000D02*
D03*
X147000D02*
D03*
X137000Y300000D02*
D03*
X147000D02*
D03*
X137000Y290000D02*
D03*
X147000D02*
D03*
X137000Y280000D02*
D03*
X147000D02*
D03*
X137000Y270000D02*
D03*
X147000D02*
D03*
X137000Y260000D02*
D03*
X147000D02*
D03*
X137000Y250000D02*
D03*
X147000D02*
D03*
X137000Y240000D02*
D03*
X147000D02*
D03*
X137000Y230000D02*
D03*
X147000D02*
D03*
X137000Y220000D02*
D03*
X147000D02*
D03*
X160000Y375000D02*
D03*
Y400000D02*
D03*
X225740Y404961D02*
D03*
Y394961D02*
D03*
Y234961D02*
D03*
X255740Y404961D02*
D03*
Y394961D02*
D03*
Y234961D02*
D03*
Y224961D02*
D03*
X265740D02*
D03*
Y234961D02*
D03*
Y394961D02*
D03*
Y404961D02*
D03*
X245740D02*
D03*
Y394961D02*
D03*
Y234961D02*
D03*
Y224961D02*
D03*
X235740D02*
D03*
Y234961D02*
D03*
Y394961D02*
D03*
Y404961D02*
D03*
X295740D02*
D03*
Y394961D02*
D03*
Y234961D02*
D03*
Y224961D02*
D03*
X305740D02*
D03*
Y234961D02*
D03*
Y394961D02*
D03*
Y404961D02*
D03*
X285740D02*
D03*
Y394961D02*
D03*
Y234961D02*
D03*
Y224961D02*
D03*
X275740D02*
D03*
Y234961D02*
D03*
Y394961D02*
D03*
Y404961D02*
D03*
X315740Y224961D02*
D03*
Y234961D02*
D03*
Y394961D02*
D03*
Y404961D02*
D03*
X315441Y249724D02*
D03*
X290441D02*
D03*
X265441D02*
D03*
X240441D02*
D03*
X215441D02*
D03*
D30*
X173000Y245000D02*
D03*
Y268622D02*
D03*
D31*
X191504Y256811D02*
D03*
D32*
X305441Y249724D02*
D03*
X280441D02*
D03*
X255441D02*
D03*
X230441D02*
D03*
X205441D02*
D03*
M02*
