G04*
G04 #@! TF.GenerationSoftware,Altium Limited,Altium Designer,19.1.5 (86)*
G04*
G04 Layer_Color=8388736*
%FSLAX25Y25*%
%MOIN*%
G70*
G01*
G75*
%ADD15C,0.00050*%
%ADD16R,0.03756X0.06512*%
%ADD17R,0.02772X0.01984*%
%ADD18R,0.03835X0.04701*%
%ADD19R,0.02969X0.03362*%
%ADD20R,0.12024X0.12024*%
%ADD21R,0.03756X0.02024*%
%ADD22R,0.02024X0.03756*%
%ADD23R,0.03126X0.03520*%
%ADD24R,0.03520X0.03126*%
%ADD25R,0.04543X0.06472*%
%ADD26R,0.03362X0.02969*%
%ADD27C,0.02024*%
%ADD28R,0.02083X0.02083*%
%ADD29R,0.05528X0.06512*%
%ADD30O,0.04937X0.02969*%
%ADD31R,0.05528X0.12024*%
%ADD32R,0.04543X0.06512*%
%ADD33R,0.06512X0.04543*%
%ADD34R,0.03756X0.07693*%
%ADD35R,0.04504X0.07299*%
%ADD36R,0.03756X0.02181*%
%ADD37R,0.03362X0.04937*%
%ADD38R,0.03362X0.02575*%
%ADD39C,0.04937*%
%ADD40R,0.04937X0.04937*%
%ADD41C,0.06906*%
%ADD42R,0.06906X0.06906*%
%ADD43O,0.06512X0.04937*%
D15*
X83079Y50936D02*
X83633Y51771D01*
X84143Y52633D01*
X84609Y53520D01*
X85029Y54430D01*
X85403Y55360D01*
X85728Y56307D01*
X86005Y57270D01*
X86233Y58246D01*
X86410Y59232D01*
X86537Y60226D01*
X86614Y61225D01*
X86639Y62227D01*
X36882Y3383D02*
X37511Y2596D01*
X38236Y1897D01*
X39044Y1295D01*
X39922Y802D01*
X40855Y425D01*
X41830Y170D01*
X42829Y41D01*
X43836D01*
X44835Y170D01*
X45809Y425D01*
X46743Y802D01*
X47621Y1295D01*
X48428Y1897D01*
X49153Y2596D01*
X49782Y3383D01*
X25Y62227D02*
X51Y61225D01*
X127Y60226D01*
X254Y59232D01*
X432Y58246D01*
X659Y57270D01*
X936Y56307D01*
X1262Y55360D01*
X1635Y54430D01*
X2055Y53520D01*
X2521Y52633D01*
X3031Y51771D01*
X3585Y50936D01*
X5931Y393726D02*
X4905Y393636D01*
X3911Y393370D01*
X2978Y392935D01*
X2135Y392344D01*
X1407Y391616D01*
X816Y390773D01*
X381Y389840D01*
X115Y388846D01*
X25Y387820D01*
X86639Y387820D02*
X86550Y388846D01*
X86283Y389840D01*
X85848Y390773D01*
X85258Y391616D01*
X84530Y392344D01*
X83686Y392935D01*
X82753Y393370D01*
X81759Y393636D01*
X80734Y393726D01*
X86639Y62227D02*
Y387820D01*
X49782Y3383D02*
X83079Y50936D01*
X3585D02*
X36882Y3383D01*
X25Y62227D02*
Y387820D01*
X5931Y393726D02*
X80734D01*
D16*
X7874Y236221D02*
D03*
X78740D02*
D03*
X40347Y315600D02*
D03*
X46253D02*
D03*
D17*
X55200Y312568D02*
D03*
Y308631D02*
D03*
Y310600D02*
D03*
X52641D02*
D03*
Y308631D02*
D03*
Y312568D02*
D03*
D18*
X72725Y335400D02*
D03*
X65875D02*
D03*
X35875Y280500D02*
D03*
X42725D02*
D03*
D19*
X64631Y281400D02*
D03*
X68568D02*
D03*
X80468Y291700D02*
D03*
X76531D02*
D03*
X31853Y290900D02*
D03*
X35790D02*
D03*
X3232Y262649D02*
D03*
X7169D02*
D03*
X3531Y288600D02*
D03*
X7468D02*
D03*
X65632Y265500D02*
D03*
X69569D02*
D03*
D20*
X49238Y296876D02*
D03*
D21*
X57013Y302387D02*
D03*
Y300813D02*
D03*
Y299238D02*
D03*
Y297663D02*
D03*
Y296088D02*
D03*
Y294513D02*
D03*
Y292939D02*
D03*
Y291364D02*
D03*
X41462D02*
D03*
Y292939D02*
D03*
Y294513D02*
D03*
Y296088D02*
D03*
Y297663D02*
D03*
Y299238D02*
D03*
Y300813D02*
D03*
Y302387D02*
D03*
D22*
X54750Y289100D02*
D03*
X53175D02*
D03*
X51600D02*
D03*
X50025D02*
D03*
X48450D02*
D03*
X46876D02*
D03*
X45301D02*
D03*
X43726D02*
D03*
Y304651D02*
D03*
X45301D02*
D03*
X46876D02*
D03*
X48450D02*
D03*
X50025D02*
D03*
X51600D02*
D03*
X53175D02*
D03*
X54750D02*
D03*
D23*
X31769Y299200D02*
D03*
X27832D02*
D03*
X82269Y268800D02*
D03*
X78332D02*
D03*
X82269Y273600D02*
D03*
X78332D02*
D03*
X51818Y282319D02*
D03*
X47881D02*
D03*
X51818Y277919D02*
D03*
X47881D02*
D03*
X69468Y296800D02*
D03*
X65531D02*
D03*
X77668Y296200D02*
D03*
X73731D02*
D03*
X83447Y278900D02*
D03*
X79510D02*
D03*
X42132Y321400D02*
D03*
X46069D02*
D03*
X35868Y286000D02*
D03*
X31931D02*
D03*
D24*
X28300Y306132D02*
D03*
Y310068D02*
D03*
X56400Y282169D02*
D03*
Y278232D02*
D03*
X62200Y307569D02*
D03*
Y303631D02*
D03*
X24200Y306132D02*
D03*
Y310068D02*
D03*
X68500Y313568D02*
D03*
Y309631D02*
D03*
Y305068D02*
D03*
Y301132D02*
D03*
X21300Y242332D02*
D03*
Y246269D02*
D03*
X36100Y320369D02*
D03*
Y316431D02*
D03*
X78700Y335400D02*
D03*
Y331463D02*
D03*
D25*
X55558Y270800D02*
D03*
X47842D02*
D03*
D26*
X42700Y272232D02*
D03*
Y276168D02*
D03*
X21379Y253969D02*
D03*
Y250031D02*
D03*
X4100Y273138D02*
D03*
Y269201D02*
D03*
X78700Y327668D02*
D03*
Y323731D02*
D03*
D27*
X68132Y291353D02*
D03*
X72069D02*
D03*
X68132Y289384D02*
D03*
X72069D02*
D03*
X68132Y287416D02*
D03*
X72069D02*
D03*
X68132Y285447D02*
D03*
X72069D02*
D03*
D28*
Y277453D02*
D03*
X73102Y275484D02*
D03*
Y273516D02*
D03*
X72069Y271547D02*
D03*
X70100Y277453D02*
D03*
Y271547D02*
D03*
X68132Y277453D02*
D03*
X67098Y275484D02*
D03*
Y273516D02*
D03*
X68132Y271547D02*
D03*
D29*
X75142Y303001D02*
D03*
X81441D02*
D03*
X75142Y311663D02*
D03*
X81441D02*
D03*
D30*
X15561Y243945D02*
D03*
Y247685D02*
D03*
Y251425D02*
D03*
X4932Y243945D02*
D03*
Y247685D02*
D03*
Y251425D02*
D03*
D31*
X37199Y253800D02*
D03*
X49601D02*
D03*
D32*
X16639Y269400D02*
D03*
X8961D02*
D03*
D33*
X12200Y294961D02*
D03*
Y302639D02*
D03*
D34*
X12250Y260800D02*
D03*
X18550D02*
D03*
D35*
X8269Y280337D02*
D03*
D36*
X4351Y282896D02*
D03*
Y280337D02*
D03*
Y277778D02*
D03*
X12186Y282896D02*
D03*
Y280337D02*
D03*
Y277778D02*
D03*
D37*
X26340Y280587D02*
D03*
X18860D02*
D03*
Y291413D02*
D03*
X22600D02*
D03*
X26340D02*
D03*
X22600Y280587D02*
D03*
D38*
X25257Y262500D02*
D03*
X32343Y262500D02*
D03*
D39*
X78700Y341200D02*
D03*
X5000Y310000D02*
D03*
Y305000D02*
D03*
Y300000D02*
D03*
Y295000D02*
D03*
Y330000D02*
D03*
D40*
Y315000D02*
D03*
Y325000D02*
D03*
D41*
X34900Y271300D02*
D03*
D42*
X24900D02*
D03*
D43*
X73300Y258999D02*
D03*
Y246401D02*
D03*
M02*
