G04*
G04 #@! TF.GenerationSoftware,Altium Limited,Altium Designer,19.1.5 (86)*
G04*
G04 Layer_Color=65535*
%FSLAX25Y25*%
%MOIN*%
G70*
G01*
G75*
%ADD10C,0.00984*%
%ADD11C,0.00394*%
%ADD12C,0.00394*%
%ADD13C,0.00787*%
%ADD14C,0.00600*%
%ADD15C,0.00050*%
D10*
X57899Y308194D02*
X57161Y308621D01*
Y307768D01*
X57899Y308194D01*
X5424Y254574D02*
X4685Y255001D01*
Y254148D01*
X5424Y254574D01*
X30179Y291413D02*
X29441Y291840D01*
Y290987D01*
X30179Y291413D01*
D11*
X73840Y283971D02*
D03*
X14174Y275612D02*
D03*
X33229Y260728D02*
D03*
D12*
X64048Y247779D02*
X64765Y247113D01*
X65530Y246503D01*
X66339Y245952D01*
X67186Y245463D01*
X68068Y245038D01*
X68979Y244681D01*
X69914Y244392D01*
X70868Y244175D01*
X71835Y244029D01*
X72811Y243956D01*
X73789D01*
X74765Y244029D01*
X75732Y244175D01*
X76687Y244392D01*
X77622Y244681D01*
X78532Y245038D01*
X79414Y245463D01*
X80261Y245952D01*
X81070Y246503D01*
X81835Y247113D01*
X82552Y247779D01*
X82552Y257621D02*
X81835Y258287D01*
X81070Y258897D01*
X80261Y259448D01*
X79414Y259937D01*
X78532Y260362D01*
X77622Y260719D01*
X76687Y261008D01*
X75732Y261225D01*
X74765Y261371D01*
X73789Y261444D01*
X72811D01*
X71835Y261371D01*
X70868Y261226D01*
X69914Y261008D01*
X68979Y260719D01*
X68068Y260362D01*
X67186Y259937D01*
X66339Y259448D01*
X65530Y258897D01*
X64765Y258287D01*
X64048Y257621D01*
X84591Y298670D02*
Y315993D01*
X71992Y298670D02*
X84591D01*
X71992D02*
Y315993D01*
X84591D01*
X64048Y247779D02*
Y257621D01*
X82552Y247779D02*
Y257621D01*
D13*
X68709Y333943D02*
X69890D01*
X68709Y336857D02*
X69890D01*
X40478Y304553D02*
Y305635D01*
X41561D01*
X40478Y288116D02*
Y289198D01*
Y288116D02*
X41561D01*
X56915D02*
X57998D01*
Y289198D01*
Y304553D02*
Y305635D01*
X56915D02*
X57998D01*
X38709Y281957D02*
X39891D01*
X38709Y279043D02*
X39891D01*
X51109Y268458D02*
X52290D01*
X51109Y273143D02*
X52290D01*
X8475Y241582D02*
X12018D01*
X8475Y253787D02*
X12018D01*
Y241582D02*
Y253787D01*
X8475Y241582D02*
Y253787D01*
X41038Y258918D02*
X45762D01*
X41038Y248682D02*
X45762D01*
X12209Y267038D02*
X13390D01*
X12209Y271762D02*
X13390D01*
X9838Y298210D02*
Y299391D01*
X14562Y298210D02*
Y299391D01*
X4135Y285061D02*
X5335D01*
X11202D02*
X12402D01*
X4135Y275612D02*
X5335D01*
X11202D02*
X12402D01*
X16498Y284032D02*
X28702D01*
X16498Y287968D02*
X28702D01*
X16498Y284032D02*
Y287968D01*
X28702Y284032D02*
Y287968D01*
X26241Y260728D02*
X31359D01*
X26241Y264272D02*
X31359D01*
X19900Y276300D02*
X39900D01*
X19900Y266300D02*
Y276300D01*
Y266300D02*
X39900D01*
Y276300D01*
D14*
X17633Y296066D02*
X17200Y296499D01*
X16333D01*
X15900Y296066D01*
Y294333D01*
X16333Y293900D01*
X17200D01*
X17633Y294333D01*
Y295200D01*
X16766D01*
X18499Y293900D02*
Y296499D01*
X20232Y293900D01*
Y296499D01*
X21098D02*
Y293900D01*
X22398D01*
X22831Y294333D01*
Y296066D01*
X22398Y296499D01*
X21098D01*
X15900Y298800D02*
Y301399D01*
X17200D01*
X17633Y300966D01*
Y300100D01*
X17200Y299666D01*
X15900D01*
X16766D02*
X17633Y298800D01*
X20232Y301399D02*
X18499D01*
Y298800D01*
X20232D01*
X18499Y300100D02*
X19365D01*
X22831Y300966D02*
X22398Y301399D01*
X21531D01*
X21098Y300966D01*
Y300533D01*
X21531Y300100D01*
X22398D01*
X22831Y299666D01*
Y299233D01*
X22398Y298800D01*
X21531D01*
X21098Y299233D01*
X15900Y306299D02*
X17633D01*
X16766D01*
Y303700D01*
X20232Y305866D02*
X19799Y306299D01*
X18932D01*
X18499Y305866D01*
Y304133D01*
X18932Y303700D01*
X19799D01*
X20232Y304133D01*
X21098Y306299D02*
Y303700D01*
Y304566D01*
X22831Y306299D01*
X21531Y305000D01*
X22831Y303700D01*
X8800Y311199D02*
X10533D01*
X9666D01*
Y308600D01*
X11399D02*
Y311199D01*
X12266Y310333D01*
X13132Y311199D01*
Y308600D01*
X15731Y310766D02*
X15298Y311199D01*
X14432D01*
X13998Y310766D01*
Y310333D01*
X14432Y309900D01*
X15298D01*
X15731Y309466D01*
Y309033D01*
X15298Y308600D01*
X14432D01*
X13998Y309033D01*
X8800Y316199D02*
Y314466D01*
X9666Y313600D01*
X10533Y314466D01*
Y316199D01*
X11399Y314900D02*
X13132D01*
X12266Y315766D02*
Y314033D01*
X8800Y326299D02*
X10533D01*
X9666D01*
Y323700D01*
X11399Y326299D02*
X13132Y323700D01*
Y326299D02*
X11399Y323700D01*
X8800Y328600D02*
Y331199D01*
X10100D01*
X10533Y330766D01*
Y329900D01*
X10100Y329466D01*
X8800D01*
X9666D02*
X10533Y328600D01*
X11399Y331199D02*
X13132Y328600D01*
Y331199D02*
X11399Y328600D01*
D15*
X83079Y50936D02*
X83633Y51771D01*
X84143Y52633D01*
X84609Y53520D01*
X85029Y54430D01*
X85403Y55360D01*
X85728Y56307D01*
X86005Y57270D01*
X86233Y58246D01*
X86410Y59232D01*
X86537Y60226D01*
X86614Y61225D01*
X86639Y62227D01*
X36882Y3383D02*
X37511Y2596D01*
X38236Y1897D01*
X39044Y1295D01*
X39922Y802D01*
X40855Y425D01*
X41830Y170D01*
X42829Y41D01*
X43836D01*
X44835Y170D01*
X45809Y425D01*
X46743Y802D01*
X47621Y1295D01*
X48428Y1897D01*
X49153Y2596D01*
X49782Y3383D01*
X25Y62227D02*
X51Y61225D01*
X127Y60226D01*
X254Y59232D01*
X432Y58246D01*
X659Y57270D01*
X936Y56307D01*
X1262Y55360D01*
X1635Y54430D01*
X2055Y53520D01*
X2521Y52633D01*
X3031Y51771D01*
X3585Y50936D01*
X5931Y393726D02*
X4905Y393636D01*
X3911Y393370D01*
X2978Y392935D01*
X2135Y392344D01*
X1407Y391616D01*
X816Y390773D01*
X381Y389840D01*
X115Y388846D01*
X25Y387820D01*
X86639Y387820D02*
X86550Y388846D01*
X86283Y389840D01*
X85848Y390773D01*
X85258Y391616D01*
X84530Y392344D01*
X83686Y392935D01*
X82753Y393370D01*
X81759Y393636D01*
X80734Y393726D01*
X86639Y62227D02*
Y387820D01*
X49782Y3383D02*
X83079Y50936D01*
X3585D02*
X36882Y3383D01*
X25Y62227D02*
Y387820D01*
X5931Y393726D02*
X80734D01*
M02*
