G04*
G04 #@! TF.GenerationSoftware,Altium Limited,Altium Designer,19.0.15 (446)*
G04*
G04 Layer_Physical_Order=1*
G04 Layer_Color=255*
%FSLAX25Y25*%
%MOIN*%
G70*
G01*
G75*
%ADD14C,0.00600*%
%ADD15C,0.01000*%
%ADD16C,0.00050*%
%ADD44R,0.13386X0.13386*%
%ADD45R,0.00984X0.02756*%
%ADD46R,0.02756X0.00984*%
%ADD47R,0.03937X0.01968*%
%ADD48R,0.02756X0.05512*%
%ADD49C,0.03937*%
%ADD50C,0.01024*%
%ADD51R,0.00984X0.01772*%
%ADD52R,0.04528X0.05512*%
%ADD53R,0.05512X0.02756*%
%ADD54R,0.01968X0.02362*%
%ADD55R,0.02362X0.01968*%
%ADD56R,0.02835X0.03701*%
%ADD57R,0.02126X0.02520*%
%ADD58R,0.02520X0.02126*%
%ADD59R,0.05472X0.03543*%
%ADD60R,0.01083X0.01083*%
%ADD61R,0.11024X0.04528*%
%ADD62R,0.05512X0.03543*%
%ADD63R,0.06693X0.02756*%
%ADD64R,0.06299X0.03504*%
%ADD65R,0.01181X0.02756*%
%ADD66R,0.03937X0.02362*%
%ADD67R,0.02362X0.01575*%
G04:AMPARAMS|DCode=68|XSize=23.62mil|YSize=19.68mil|CornerRadius=0mil|HoleSize=0mil|Usage=FLASHONLY|Rotation=315.000|XOffset=0mil|YOffset=0mil|HoleType=Round|Shape=Rectangle|*
%AMROTATEDRECTD68*
4,1,4,-0.01531,0.00139,-0.00139,0.01531,0.01531,-0.00139,0.00139,-0.01531,-0.01531,0.00139,0.0*
%
%ADD68ROTATEDRECTD68*%

%ADD69C,0.03937*%
%ADD70C,0.00500*%
%ADD71C,0.02000*%
%ADD72C,0.00858*%
%ADD73R,0.03937X0.03937*%
%ADD74O,0.03937X0.05512*%
%ADD75C,0.02362*%
G36*
X85326Y289796D02*
X84913Y289587D01*
X82650D01*
Y286331D01*
X82150D01*
Y285831D01*
X79386D01*
Y283616D01*
X78614D01*
Y289587D01*
X77907D01*
X77907Y289589D01*
X77904Y289689D01*
X77879Y289746D01*
Y292081D01*
X77904Y292138D01*
X77907Y292238D01*
X77907Y292240D01*
X78626D01*
Y295760D01*
X75500D01*
Y292240D01*
X76219D01*
X76219Y292238D01*
X76222Y292138D01*
X76247Y292081D01*
Y289746D01*
X76222Y289689D01*
X76219Y289589D01*
X76219Y289587D01*
X73087D01*
Y284844D01*
X73084Y284844D01*
X72985Y284841D01*
X72928Y284816D01*
X60300D01*
X60240Y284889D01*
X60078Y285316D01*
X60365Y285744D01*
X60495Y286400D01*
X60365Y287056D01*
X59993Y287612D01*
X60097Y288063D01*
X60136Y288118D01*
X60228D01*
Y288128D01*
X60428Y288140D01*
X60576Y288140D01*
X60631Y288163D01*
X61628D01*
X61679Y288140D01*
X61827Y288136D01*
X61938Y288127D01*
X62022Y288113D01*
X62039Y288108D01*
Y287335D01*
X64500D01*
Y288720D01*
X65500D01*
Y287335D01*
X65976D01*
Y287335D01*
X66469D01*
Y288720D01*
X66969D01*
Y289220D01*
X67961D01*
Y290123D01*
X68074Y290198D01*
X68081Y290206D01*
X68413Y290702D01*
X68529Y291287D01*
Y292866D01*
X79781Y304119D01*
X80113Y304615D01*
X80229Y305200D01*
Y320726D01*
X80241Y320754D01*
X80248Y321464D01*
X80282Y322219D01*
X80285Y322247D01*
X80381D01*
X80396Y322637D01*
X80386Y322700D01*
X80410Y322759D01*
X80381Y322830D01*
Y325216D01*
X78927D01*
X78700Y325261D01*
X78473Y325216D01*
X77019D01*
Y322830D01*
X76990Y322759D01*
X77014Y322700D01*
X77004Y322637D01*
X77019Y322247D01*
X77079D01*
X77157Y321119D01*
X77159Y320757D01*
X77171Y320729D01*
Y305834D01*
X76222Y304885D01*
X75760Y305076D01*
Y306594D01*
X72240D01*
Y305891D01*
X72238Y305891D01*
X72138Y305888D01*
X72081Y305863D01*
X71415D01*
X71358Y305888D01*
X71258Y305891D01*
X71256Y305891D01*
Y306565D01*
X71383Y306617D01*
X71541Y307000D01*
Y309000D01*
X71383Y309383D01*
X71256Y309435D01*
Y312831D01*
X68844D01*
X68844Y312833D01*
X68841Y312933D01*
X68816Y312990D01*
Y313581D01*
X68841Y313638D01*
X68844Y313738D01*
X68844Y313740D01*
X69595D01*
Y317260D01*
X66469D01*
Y313740D01*
X67156D01*
X67156Y313738D01*
X67159Y313638D01*
X67184Y313581D01*
Y312990D01*
X67159Y312933D01*
X67156Y312833D01*
X67156Y312831D01*
X64744D01*
Y311727D01*
X64641Y311706D01*
X64376Y311529D01*
X64376Y311529D01*
X63646Y310800D01*
X63541Y310781D01*
X63050Y310872D01*
X63043Y310878D01*
X62977Y310977D01*
X60316Y313638D01*
Y315468D01*
X60340Y315520D01*
X60344Y315590D01*
X60351Y315634D01*
X60364Y315683D01*
X60384Y315737D01*
X60412Y315796D01*
X60449Y315861D01*
X60497Y315932D01*
X60555Y316007D01*
X60625Y316087D01*
X60715Y316179D01*
X60728Y316212D01*
X61084Y316744D01*
X61214Y317400D01*
X61084Y318056D01*
X60712Y318612D01*
X60156Y318984D01*
X59500Y319114D01*
X58844Y318984D01*
X58288Y318612D01*
X57927Y318072D01*
X57825Y318027D01*
X57438Y317906D01*
X57249Y318036D01*
X57232Y318051D01*
X57102Y318187D01*
X57102Y318195D01*
X57111Y318239D01*
X57129Y318295D01*
X57166Y318384D01*
X57166Y318418D01*
X57184Y318444D01*
X57314Y319100D01*
X57184Y319756D01*
X56812Y320312D01*
X56256Y320684D01*
X55600Y320814D01*
X54944Y320684D01*
X54388Y320312D01*
X54016Y319756D01*
X53886Y319100D01*
X54016Y318444D01*
X54388Y317888D01*
X54851Y317578D01*
X54898Y317528D01*
X55297Y317340D01*
X55493Y317234D01*
X55650Y317136D01*
X55702Y317098D01*
X55744Y317063D01*
X55789Y317022D01*
X55845Y317001D01*
X57484Y315362D01*
Y312700D01*
X57484Y312700D01*
X57546Y312388D01*
X57723Y312123D01*
X58585Y311261D01*
X58421Y310719D01*
X58244Y310684D01*
X57688Y310312D01*
X57413Y309900D01*
X57178Y309854D01*
X56913Y309677D01*
X56913Y309677D01*
X55313Y308077D01*
X55136Y307812D01*
X55074Y307500D01*
X54700Y307228D01*
X52972D01*
Y311993D01*
X52994Y312041D01*
X52996Y312146D01*
X53003Y312230D01*
X53014Y312305D01*
X53028Y312373D01*
X53045Y312432D01*
X53064Y312485D01*
X53085Y312531D01*
X53108Y312572D01*
X53133Y312607D01*
X53175Y312659D01*
X53201Y312743D01*
X53470Y313144D01*
X53600Y313800D01*
X53470Y314456D01*
X53098Y315012D01*
X52542Y315384D01*
X51886Y315514D01*
X51230Y315384D01*
X50674Y315012D01*
X50302Y314456D01*
X50254Y314214D01*
X50222Y314176D01*
X49702Y314001D01*
X49632Y314062D01*
Y317460D01*
X46505D01*
Y313940D01*
X47263D01*
X47278Y313907D01*
X47315Y313719D01*
X47492Y313455D01*
X49169Y311778D01*
Y308791D01*
X48669Y308639D01*
X48577Y308777D01*
X48577Y308777D01*
X46577Y310777D01*
X46312Y310954D01*
X46000Y311016D01*
X46000Y311016D01*
X41161D01*
X40925Y311457D01*
X40984Y311544D01*
X41114Y312200D01*
X40984Y312856D01*
X40612Y313412D01*
X40056Y313784D01*
X39400Y313914D01*
X38744Y313784D01*
X38212Y313428D01*
X38179Y313415D01*
X38087Y313325D01*
X38007Y313255D01*
X37932Y313197D01*
X37861Y313149D01*
X37796Y313112D01*
X37736Y313084D01*
X37683Y313064D01*
X37634Y313051D01*
X37590Y313044D01*
X37520Y313040D01*
X37468Y313016D01*
X32346D01*
X32155Y313478D01*
X32646Y313969D01*
X30269Y316346D01*
X29288Y315366D01*
X18977Y325677D01*
X18712Y325854D01*
X18400Y325916D01*
X18400Y325916D01*
X6438D01*
X4916Y327437D01*
Y332909D01*
X4942Y332966D01*
X4944Y333080D01*
X4951Y333162D01*
X4951Y333165D01*
X5064Y333187D01*
X5881Y333733D01*
X6426Y334549D01*
X6618Y335513D01*
Y337087D01*
X6426Y338051D01*
X5881Y338867D01*
X5382Y339200D01*
X5534Y339700D01*
X15266D01*
X15418Y339200D01*
X14920Y338867D01*
X14374Y338051D01*
X14182Y337087D01*
Y335513D01*
X14374Y334549D01*
X14920Y333733D01*
X15736Y333187D01*
X16699Y332996D01*
X17662Y333187D01*
X18479Y333733D01*
X19025Y334549D01*
X19216Y335513D01*
Y337087D01*
X19025Y338051D01*
X18479Y338867D01*
X17981Y339200D01*
X18132Y339700D01*
X76795D01*
X76804Y339686D01*
X76869Y339561D01*
X76931Y339410D01*
X76988Y339232D01*
X77038Y339028D01*
X77078Y338809D01*
X77149Y338003D01*
X77137Y337459D01*
X77100Y337014D01*
X77096Y336983D01*
X75771Y336949D01*
X75468Y336972D01*
X75208Y337008D01*
X74998Y337056D01*
X74843Y337109D01*
X74743Y337160D01*
X74694Y337198D01*
X74680Y337215D01*
X74678Y337220D01*
X74668Y337306D01*
X74642Y337350D01*
Y337750D01*
X74201D01*
X74130Y337780D01*
X74098Y337766D01*
X74063Y337775D01*
X74019Y337750D01*
X70808D01*
Y333050D01*
X74019D01*
X74063Y333025D01*
X74098Y333034D01*
X74130Y333020D01*
X74201Y333050D01*
X74642D01*
Y333450D01*
X74668Y333494D01*
X74678Y333580D01*
X74681Y333585D01*
X74694Y333602D01*
X74743Y333640D01*
X74843Y333691D01*
X74998Y333744D01*
X75199Y333790D01*
X75785Y333851D01*
X76059Y333857D01*
X76166Y333857D01*
X76940Y333841D01*
Y333837D01*
X77355Y333823D01*
X77392Y333833D01*
X77452Y333808D01*
X77523Y333837D01*
X80460D01*
Y336381D01*
X80489Y336451D01*
X80460Y336522D01*
Y336963D01*
X80319D01*
X80252Y337966D01*
X80291Y338484D01*
X80327Y338731D01*
X80374Y338960D01*
X80429Y339165D01*
X80491Y339346D01*
X80560Y339502D01*
X80634Y339635D01*
X80680Y339700D01*
X85326D01*
X85326Y289796D01*
D02*
G37*
G36*
X80286Y340082D02*
X80175Y339923D01*
X80075Y339744D01*
X79987Y339544D01*
X79911Y339324D01*
X79847Y339085D01*
X79794Y338824D01*
X79753Y338544D01*
X79709Y337968D01*
X79789Y336771D01*
X79821Y336631D01*
X79859Y336531D01*
X79901Y336471D01*
X79948Y336451D01*
X77452D01*
Y334349D01*
X77432Y334359D01*
X77372Y334367D01*
X77272Y334375D01*
X76172Y334398D01*
X76053Y334398D01*
X75750Y334392D01*
X75111Y334325D01*
X74850Y334266D01*
X74630Y334190D01*
X74450Y334098D01*
X74310Y333989D01*
X74211Y333863D01*
X74151Y333721D01*
X74130Y333562D01*
Y337238D01*
X74151Y337079D01*
X74211Y336937D01*
X74310Y336811D01*
X74450Y336702D01*
X74630Y336610D01*
X74850Y336534D01*
X75111Y336475D01*
X75410Y336434D01*
X75750Y336408D01*
X75767Y336408D01*
X77452Y336451D01*
X77499Y336471D01*
X77541Y336531D01*
X77579Y336631D01*
X77611Y336771D01*
X77638Y336951D01*
X77678Y337431D01*
X77691Y338021D01*
X77615Y338882D01*
X77567Y339141D01*
X77509Y339379D01*
X77440Y339595D01*
X77360Y339789D01*
X77270Y339962D01*
X77170Y340113D01*
X80286Y340082D01*
D02*
G37*
G36*
X4640Y333648D02*
X4590Y333628D01*
X4546Y333594D01*
X4507Y333546D01*
X4475Y333486D01*
X4448Y333411D01*
X4427Y333323D01*
X4413Y333222D01*
X4404Y333107D01*
X4401Y332979D01*
X3801D01*
X3798Y333107D01*
X3789Y333222D01*
X3774Y333323D01*
X3754Y333411D01*
X3727Y333486D01*
X3694Y333546D01*
X3656Y333594D01*
X3612Y333628D01*
X3562Y333648D01*
X3505Y333654D01*
X4696D01*
X4640Y333648D01*
D02*
G37*
G36*
X79837Y322739D02*
X79808Y322679D01*
X79783Y322579D01*
X79761Y322439D01*
X79742Y322259D01*
X79707Y321479D01*
X79700Y320759D01*
X77700D01*
X77698Y321139D01*
X77592Y322679D01*
X77563Y322739D01*
X77531Y322759D01*
X79869D01*
X79837Y322739D01*
D02*
G37*
G36*
X16074Y318672D02*
X15992Y318078D01*
X15860Y317982D01*
X15361Y318090D01*
X15012Y318612D01*
X14456Y318984D01*
X13800Y319114D01*
X13144Y318984D01*
X12588Y318612D01*
X12216Y318056D01*
X12086Y317400D01*
X12216Y316744D01*
X12339Y316560D01*
X12306Y316311D01*
X12290Y316274D01*
X12089Y316035D01*
X9553D01*
X9313Y316484D01*
X8369D01*
Y317484D01*
X9251D01*
X9098Y317714D01*
Y318223D01*
X9251Y318453D01*
X8369D01*
Y319453D01*
X9396D01*
X9631Y319784D01*
X14962D01*
X16074Y318672D01*
D02*
G37*
G36*
X17803Y317924D02*
X17812Y317820D01*
X17827Y317729D01*
X17848Y317649D01*
X17875Y317582D01*
X17908Y317527D01*
X17947Y317484D01*
X17992Y317453D01*
X18043Y317435D01*
X18100Y317429D01*
X16900D01*
X16957Y317435D01*
X17008Y317453D01*
X17053Y317484D01*
X17092Y317527D01*
X17125Y317582D01*
X17152Y317649D01*
X17173Y317729D01*
X17188Y317820D01*
X17197Y317924D01*
X17200Y318041D01*
X17800D01*
X17803Y317924D01*
D02*
G37*
G36*
X56620Y318482D02*
X56586Y318374D01*
X56565Y318269D01*
X56557Y318168D01*
X56563Y318071D01*
X56581Y317977D01*
X56613Y317887D01*
X56658Y317800D01*
X56716Y317717D01*
X56787Y317637D01*
X56157Y317419D01*
X56099Y317473D01*
X56031Y317528D01*
X55953Y317584D01*
X55767Y317701D01*
X55541Y317824D01*
X55128Y318018D01*
X56667Y318594D01*
X56620Y318482D01*
D02*
G37*
G36*
X20643Y317754D02*
X20854Y317576D01*
X20949Y317510D01*
X21037Y317459D01*
X21118Y317423D01*
X21193Y317402D01*
X21261Y317396D01*
X21322Y317405D01*
X21376Y317429D01*
X20343Y316789D01*
X20384Y316826D01*
X20407Y316874D01*
X20411Y316932D01*
X20395Y317001D01*
X20361Y317080D01*
X20308Y317170D01*
X20236Y317271D01*
X20145Y317383D01*
X19907Y317638D01*
X20528Y317865D01*
X20643Y317754D01*
D02*
G37*
G36*
X22661Y316906D02*
X22675Y316884D01*
X22697Y316864D01*
X22728Y316847D01*
X22768Y316833D01*
X22817Y316821D01*
X22874Y316812D01*
X22941Y316805D01*
X23100Y316800D01*
Y316200D01*
X23016Y316199D01*
X22874Y316188D01*
X22817Y316179D01*
X22768Y316167D01*
X22728Y316153D01*
X22697Y316136D01*
X22675Y316116D01*
X22661Y316094D01*
X22657Y316069D01*
Y316931D01*
X22661Y316906D01*
D02*
G37*
G36*
X60227Y316454D02*
X60137Y316351D01*
X60058Y316249D01*
X59990Y316147D01*
X59932Y316047D01*
X59884Y315946D01*
X59847Y315846D01*
X59821Y315746D01*
X59805Y315648D01*
X59800Y315549D01*
X59200D01*
X59195Y315648D01*
X59179Y315746D01*
X59153Y315846D01*
X59116Y315946D01*
X59068Y316047D01*
X59010Y316147D01*
X58942Y316249D01*
X58863Y316351D01*
X58773Y316454D01*
X58673Y316557D01*
X60327D01*
X60227Y316454D01*
D02*
G37*
G36*
X18626Y316110D02*
X18602Y316062D01*
X18598Y316003D01*
X18611Y315934D01*
X18644Y315854D01*
X18696Y315764D01*
X18767Y315664D01*
X18857Y315553D01*
X19093Y315299D01*
X18472Y315072D01*
X18358Y315182D01*
X18149Y315357D01*
X18055Y315422D01*
X17966Y315472D01*
X17885Y315507D01*
X17810Y315527D01*
X17741Y315531D01*
X17679Y315521D01*
X17624Y315496D01*
X18669Y316148D01*
X18626Y316110D01*
D02*
G37*
G36*
X14565Y316490D02*
X14509Y316417D01*
X14460Y316338D01*
X14418Y316253D01*
X14382Y316163D01*
X14352Y316066D01*
X14351Y316061D01*
X14364Y316006D01*
X14414Y315876D01*
X14479Y315766D01*
X14558Y315676D01*
X14651Y315606D01*
X14758Y315556D01*
X14880Y315526D01*
X15016Y315516D01*
X13800Y314516D01*
X12300Y315516D01*
X12490Y315526D01*
X12660Y315556D01*
X12810Y315606D01*
X12940Y315676D01*
X13050Y315766D01*
X13140Y315876D01*
X13210Y316006D01*
X13239Y316094D01*
X13218Y316163D01*
X13182Y316253D01*
X13140Y316338D01*
X13091Y316417D01*
X13035Y316490D01*
X12973Y316557D01*
X14627D01*
X14565Y316490D01*
D02*
G37*
G36*
X27169Y315178D02*
X27004Y314635D01*
X26744Y314584D01*
X26511Y314428D01*
X26025Y314704D01*
X25977Y314777D01*
X25977Y314777D01*
X23677Y317077D01*
X23412Y317254D01*
X23231Y317290D01*
X23181Y317312D01*
Y317953D01*
X21504D01*
X21500Y317956D01*
X21483Y317953D01*
X21264D01*
X21239Y317967D01*
X21183Y318006D01*
X21006Y318156D01*
X20903Y318255D01*
X20844Y318278D01*
X15345Y323777D01*
X15334Y323784D01*
X15486Y324284D01*
X18062D01*
X27169Y315178D01*
D02*
G37*
G36*
X48466Y314460D02*
X48446Y314447D01*
X48428Y314425D01*
X48412Y314395D01*
X48399Y314356D01*
X48388Y314308D01*
X48379Y314252D01*
X48373Y314187D01*
X48368Y314032D01*
X47769D01*
X47767Y314114D01*
X47758Y314252D01*
X47749Y314308D01*
X47738Y314356D01*
X47725Y314395D01*
X47709Y314425D01*
X47691Y314447D01*
X47671Y314460D01*
X47648Y314464D01*
X48489D01*
X48466Y314460D01*
D02*
G37*
G36*
X15152Y313437D02*
X15153Y313435D01*
X15164Y313425D01*
X15210Y313380D01*
X15228Y313331D01*
X15601Y312932D01*
X15725Y312778D01*
X15819Y312646D01*
X15819Y312645D01*
Y312382D01*
X15807Y312362D01*
X15819Y312316D01*
X15802Y312271D01*
X15819Y312233D01*
Y311047D01*
X16047D01*
X16331Y310612D01*
X16182Y310275D01*
X15455Y310241D01*
X15410Y310220D01*
X10582D01*
X10192Y310142D01*
X9861Y309921D01*
X8587Y308646D01*
X8536Y308626D01*
X8404Y308497D01*
X8316Y308416D01*
X8228Y308425D01*
X7816Y308650D01*
Y311644D01*
X8312Y312027D01*
X8369Y312016D01*
X8763Y312094D01*
X9098Y312318D01*
X9322Y312652D01*
X9400Y313047D01*
X9322Y313442D01*
X9285Y313496D01*
X9553Y313996D01*
X13712D01*
X13748Y313977D01*
X13810Y313996D01*
X13850D01*
X13906Y313985D01*
X13923Y313996D01*
X14593D01*
X15152Y313437D01*
D02*
G37*
G36*
X68543Y314258D02*
X68492Y314240D01*
X68447Y314209D01*
X68408Y314166D01*
X68375Y314111D01*
X68348Y314044D01*
X68327Y313964D01*
X68312Y313873D01*
X68303Y313768D01*
X68300Y313652D01*
X67700D01*
X67697Y313768D01*
X67688Y313873D01*
X67673Y313964D01*
X67652Y314044D01*
X67625Y314111D01*
X67592Y314166D01*
X67553Y314209D01*
X67508Y314240D01*
X67457Y314258D01*
X67400Y314264D01*
X68600D01*
X68543Y314258D01*
D02*
G37*
G36*
X20331Y311559D02*
X20321Y311649D01*
X20291Y311729D01*
X20241Y311800D01*
X20171Y311861D01*
X20081Y311913D01*
X19971Y311956D01*
X19841Y311989D01*
X19691Y312013D01*
X19521Y312027D01*
X19500Y312027D01*
X19479Y312027D01*
X19309Y312013D01*
X19159Y311989D01*
X19029Y311956D01*
X18919Y311913D01*
X18829Y311861D01*
X18759Y311800D01*
X18709Y311729D01*
X18679Y311649D01*
X18669Y311559D01*
Y313504D01*
X18679Y313414D01*
X18709Y313334D01*
X18759Y313263D01*
X18829Y313201D01*
X18919Y313149D01*
X19029Y313107D01*
X19159Y313074D01*
X19309Y313050D01*
X19479Y313036D01*
X19500Y313036D01*
X19521Y313036D01*
X19691Y313050D01*
X19841Y313074D01*
X19971Y313107D01*
X20081Y313149D01*
X20171Y313201D01*
X20241Y313263D01*
X20291Y313334D01*
X20321Y313414D01*
X20331Y313504D01*
Y311559D01*
D02*
G37*
G36*
X7306Y313833D02*
X7324Y313731D01*
X7354Y313641D01*
X7396Y313563D01*
X7450Y313497D01*
X7516Y313443D01*
X7594Y313401D01*
X7684Y313371D01*
X7715Y313366D01*
X7813Y313372D01*
X7878Y313384D01*
X7934Y313397D01*
X7982Y313412D01*
X8021Y313429D01*
X8051Y313448D01*
Y312646D01*
X8021Y312665D01*
X7982Y312683D01*
X7934Y312698D01*
X7878Y312711D01*
X7813Y312722D01*
X7727Y312731D01*
X7684Y312723D01*
X7594Y312693D01*
X7516Y312651D01*
X7450Y312597D01*
X7396Y312531D01*
X7354Y312453D01*
X7324Y312363D01*
X7306Y312261D01*
X7300Y312147D01*
X6700Y313047D01*
X7300Y313947D01*
X7306Y313833D01*
D02*
G37*
G36*
X3106Y313786D02*
X3124Y313684D01*
X3154Y313594D01*
X3196Y313516D01*
X3250Y313450D01*
X3316Y313396D01*
X3394Y313354D01*
X3484Y313324D01*
X3577Y313307D01*
X3766Y313321D01*
X3841Y313334D01*
X3909Y313348D01*
X3968Y313366D01*
X4019Y313386D01*
X4062Y313409D01*
X4097Y313435D01*
X4131Y312633D01*
X4108Y312646D01*
X4074Y312657D01*
X4031Y312667D01*
X3979Y312676D01*
X3843Y312689D01*
X3669Y312697D01*
X3653Y312698D01*
X3586Y312694D01*
X3484Y312676D01*
X3394Y312646D01*
X3316Y312604D01*
X3250Y312550D01*
X3196Y312484D01*
X3154Y312406D01*
X3124Y312316D01*
X3106Y312214D01*
X3100Y312100D01*
X2500Y313000D01*
X3100Y313900D01*
X3106Y313786D01*
D02*
G37*
G36*
X68303Y312802D02*
X68312Y312698D01*
X68327Y312607D01*
X68348Y312527D01*
X68375Y312460D01*
X68408Y312405D01*
X68447Y312362D01*
X68492Y312331D01*
X68543Y312313D01*
X68600Y312307D01*
X67400D01*
X67457Y312313D01*
X67508Y312331D01*
X67553Y312362D01*
X67592Y312405D01*
X67625Y312460D01*
X67652Y312527D01*
X67673Y312607D01*
X67688Y312698D01*
X67697Y312802D01*
X67700Y312919D01*
X68300D01*
X68303Y312802D01*
D02*
G37*
G36*
X16725Y314020D02*
X17083Y313719D01*
X17243Y313607D01*
X17390Y313522D01*
X17525Y313463D01*
X17648Y313431D01*
X17759Y313425D01*
X17856Y313445D01*
X17942Y313492D01*
X16343Y312286D01*
X16407Y312354D01*
X16441Y312439D01*
X16445Y312539D01*
X16418Y312656D01*
X16361Y312789D01*
X16274Y312939D01*
X16157Y313105D01*
X16010Y313287D01*
X15624Y313701D01*
X16528Y314211D01*
X16725Y314020D01*
D02*
G37*
G36*
X14899Y321916D02*
X14692Y321416D01*
X8000D01*
X7688Y321354D01*
X7423Y321177D01*
X7423Y321177D01*
X6423Y320177D01*
X6246Y319912D01*
X6184Y319600D01*
X6184Y319600D01*
Y313176D01*
X6169Y313153D01*
X6184Y313077D01*
Y313017D01*
X6169Y312941D01*
X6184Y312919D01*
Y308043D01*
X5374D01*
Y307010D01*
X4947D01*
Y305968D01*
X3947D01*
Y307010D01*
X3616D01*
Y311667D01*
X3668Y311800D01*
X3750Y311916D01*
X4016Y312060D01*
X4091Y312073D01*
X4141Y312073D01*
X4431Y312016D01*
X4826Y312094D01*
X5161Y312318D01*
X5385Y312652D01*
X5463Y313047D01*
X5385Y313442D01*
X5161Y313777D01*
Y314286D01*
X5314Y314516D01*
X4431D01*
Y315516D01*
X5314D01*
X5161Y315745D01*
Y316255D01*
X5385Y316589D01*
X5463Y316984D01*
X5385Y317379D01*
X5161Y317714D01*
Y318223D01*
X5314Y318453D01*
X4431D01*
Y318953D01*
X3932D01*
Y320008D01*
X3854Y320045D01*
X3616Y320226D01*
Y321862D01*
X4138Y322384D01*
X14431D01*
X14899Y321916D01*
D02*
G37*
G36*
X52701Y312935D02*
X52649Y312859D01*
X52603Y312778D01*
X52563Y312691D01*
X52529Y312599D01*
X52502Y312501D01*
X52480Y312398D01*
X52465Y312289D01*
X52456Y312175D01*
X52453Y312055D01*
X51453Y311993D01*
X51449Y312113D01*
X51439Y312227D01*
X51422Y312334D01*
X51398Y312436D01*
X51367Y312531D01*
X51329Y312619D01*
X51284Y312702D01*
X51232Y312778D01*
X51174Y312848D01*
X51108Y312911D01*
X52759Y313005D01*
X52701Y312935D01*
D02*
G37*
G36*
X28583Y312845D02*
X28592Y312709D01*
X28609Y312581D01*
X28632Y312461D01*
X28662Y312348D01*
X28700Y312244D01*
X28745Y312147D01*
X28796Y312058D01*
X28855Y311977D01*
X28921Y311903D01*
X28497Y311479D01*
X28423Y311545D01*
X28342Y311604D01*
X28253Y311655D01*
X28156Y311700D01*
X28052Y311738D01*
X27939Y311768D01*
X27819Y311791D01*
X27691Y311808D01*
X27555Y311817D01*
X27412Y311819D01*
X28581Y312988D01*
X28583Y312845D01*
D02*
G37*
G36*
X38557Y311373D02*
X38454Y311473D01*
X38351Y311563D01*
X38249Y311642D01*
X38148Y311710D01*
X38047Y311768D01*
X37946Y311816D01*
X37846Y311853D01*
X37747Y311879D01*
X37648Y311895D01*
X37549Y311900D01*
Y312500D01*
X37648Y312505D01*
X37747Y312521D01*
X37846Y312547D01*
X37946Y312584D01*
X38047Y312632D01*
X38148Y312690D01*
X38249Y312758D01*
X38351Y312837D01*
X38454Y312927D01*
X38557Y313027D01*
Y311373D01*
D02*
G37*
G36*
X65256Y310649D02*
X65253Y310650D01*
X65244Y310651D01*
X65010Y310653D01*
X64953Y310653D01*
Y311253D01*
X65256Y311256D01*
Y310649D01*
D02*
G37*
G36*
X18437Y311549D02*
X18351Y311519D01*
X18277Y311469D01*
X18212Y311399D01*
X18157Y311309D01*
X18112Y311199D01*
X18077Y311069D01*
X18052Y310919D01*
X18036Y310749D01*
X18034Y310653D01*
X18036Y310556D01*
X18052Y310384D01*
X18077Y310232D01*
X18112Y310100D01*
X18157Y309989D01*
X18212Y309898D01*
X18277Y309827D01*
X18351Y309776D01*
X18437Y309746D01*
X18531Y309736D01*
X16532D01*
X16626Y309746D01*
X16712Y309776D01*
X16786Y309827D01*
X16851Y309898D01*
X16906Y309989D01*
X16951Y310100D01*
X16986Y310232D01*
X17011Y310384D01*
X17027Y310556D01*
X17029Y310653D01*
X17027Y310749D01*
X17011Y310919D01*
X16986Y311069D01*
X16951Y311199D01*
X16906Y311309D01*
X16851Y311399D01*
X16786Y311469D01*
X16712Y311519D01*
X16626Y311549D01*
X16532Y311559D01*
X18531D01*
X18437Y311549D01*
D02*
G37*
G36*
X16480Y308200D02*
X16470Y308295D01*
X16441Y308380D01*
X16390Y308455D01*
X16320Y308520D01*
X16230Y308575D01*
X16120Y308620D01*
X15991Y308655D01*
X15841Y308680D01*
X15671Y308695D01*
X15481Y308700D01*
Y309700D01*
X16480Y309748D01*
Y308200D01*
D02*
G37*
G36*
X56191Y307202D02*
X56206Y307010D01*
X56219Y306932D01*
X56235Y306866D01*
X56255Y306812D01*
X56278Y306770D01*
X56305Y306740D01*
X56336Y306722D01*
X56370Y306716D01*
X55410D01*
X55444Y306722D01*
X55475Y306740D01*
X55502Y306770D01*
X55525Y306812D01*
X55545Y306866D01*
X55561Y306932D01*
X55573Y307010D01*
X55583Y307100D01*
X55590Y307316D01*
X56190D01*
X56191Y307202D01*
D02*
G37*
G36*
X50286D02*
X50301Y307010D01*
X50313Y306932D01*
X50329Y306866D01*
X50349Y306812D01*
X50372Y306770D01*
X50400Y306740D01*
X50430Y306722D01*
X50464Y306716D01*
X49504D01*
X49538Y306722D01*
X49569Y306740D01*
X49596Y306770D01*
X49619Y306812D01*
X49639Y306866D01*
X49655Y306932D01*
X49668Y307010D01*
X49677Y307100D01*
X49684Y307316D01*
X50284D01*
X50286Y307202D01*
D02*
G37*
G36*
X48302D02*
X48318Y307010D01*
X48331Y306932D01*
X48349Y306866D01*
X48371Y306812D01*
X48396Y306770D01*
X48425Y306740D01*
X48459Y306722D01*
X48496Y306716D01*
X47536D01*
X47567Y306722D01*
X47595Y306740D01*
X47620Y306770D01*
X47641Y306812D01*
X47659Y306866D01*
X47674Y306932D01*
X47685Y307010D01*
X47693Y307100D01*
X47700Y307316D01*
X48300D01*
X48302Y307202D01*
D02*
G37*
G36*
X46349D02*
X46363Y307010D01*
X46376Y306932D01*
X46392Y306866D01*
X46412Y306812D01*
X46435Y306770D01*
X46463Y306740D01*
X46493Y306722D01*
X46527Y306716D01*
X45567D01*
X45601Y306722D01*
X45632Y306740D01*
X45659Y306770D01*
X45682Y306812D01*
X45702Y306866D01*
X45718Y306932D01*
X45731Y307010D01*
X45740Y307100D01*
X45747Y307316D01*
X46347D01*
X46349Y307202D01*
D02*
G37*
G36*
X44384Y306716D02*
X43774D01*
X43775Y306719D01*
X43776Y306729D01*
X43777Y306765D01*
X43779Y307021D01*
X44379D01*
X44384Y306716D01*
D02*
G37*
G36*
X9621Y307531D02*
X9486Y307393D01*
X9168Y307023D01*
X9090Y306913D01*
X9027Y306811D01*
X8977Y306716D01*
X8942Y306627D01*
X8921Y306546D01*
X8914Y306473D01*
X7855Y307531D01*
X7929Y307538D01*
X8010Y307560D01*
X8098Y307595D01*
X8193Y307644D01*
X8295Y307708D01*
X8405Y307786D01*
X8645Y307984D01*
X8776Y308104D01*
X8914Y308238D01*
X9621Y307531D01*
D02*
G37*
G36*
X17522Y307264D02*
X18284D01*
X18236Y307257D01*
X18193Y307234D01*
X18155Y307195D01*
X18122Y307142D01*
X18094Y307073D01*
X18072Y306989D01*
X18054Y306890D01*
X18042Y306775D01*
X18032Y306500D01*
X17863Y306248D01*
X18032D01*
X18036Y306056D01*
X18052Y305884D01*
X18077Y305732D01*
X18112Y305600D01*
X18157Y305489D01*
X18212Y305398D01*
X18277Y305327D01*
X18351Y305276D01*
X18437Y305246D01*
X18531Y305236D01*
X17189D01*
X17031Y305000D01*
X17021Y305190D01*
X17013Y305236D01*
X16532D01*
X16626Y305246D01*
X16712Y305276D01*
X16786Y305327D01*
X16851Y305398D01*
X16906Y305489D01*
X16926Y305538D01*
X16872Y305640D01*
X16781Y305750D01*
X16671Y305840D01*
X16542Y305910D01*
X16391Y305960D01*
X16221Y305990D01*
X16032Y306000D01*
Y307000D01*
X16221Y307010D01*
X16391Y307040D01*
X16542Y307090D01*
X16671Y307160D01*
X16781Y307250D01*
X16792Y307262D01*
X16779Y307264D01*
X16793D01*
X16872Y307360D01*
X16941Y307490D01*
X16992Y307640D01*
X17021Y307810D01*
X17031Y308000D01*
X17522Y307264D01*
D02*
G37*
G36*
X41642Y304750D02*
X41636Y304807D01*
X41618Y304858D01*
X41587Y304903D01*
X41544Y304942D01*
X41489Y304975D01*
X41422Y305002D01*
X41342Y305023D01*
X41250Y305038D01*
X41146Y305047D01*
X41030Y305050D01*
Y305650D01*
X41146Y305653D01*
X41250Y305662D01*
X41342Y305677D01*
X41422Y305698D01*
X41489Y305725D01*
X41544Y305758D01*
X41587Y305797D01*
X41618Y305842D01*
X41636Y305893D01*
X41642Y305950D01*
Y304750D01*
D02*
G37*
G36*
X72764Y304447D02*
X72758Y304504D01*
X72740Y304555D01*
X72709Y304600D01*
X72666Y304639D01*
X72611Y304672D01*
X72544Y304699D01*
X72464Y304720D01*
X72373Y304735D01*
X72268Y304744D01*
X72152Y304747D01*
Y305347D01*
X72268Y305350D01*
X72373Y305359D01*
X72464Y305374D01*
X72544Y305395D01*
X72611Y305422D01*
X72666Y305455D01*
X72709Y305494D01*
X72740Y305539D01*
X72758Y305590D01*
X72764Y305647D01*
Y304447D01*
D02*
G37*
G36*
X70738Y305590D02*
X70756Y305539D01*
X70787Y305494D01*
X70830Y305455D01*
X70885Y305422D01*
X70952Y305395D01*
X71032Y305374D01*
X71124Y305359D01*
X71228Y305350D01*
X71344Y305347D01*
Y304747D01*
X71228Y304744D01*
X71124Y304735D01*
X71032Y304720D01*
X70952Y304699D01*
X70885Y304672D01*
X70830Y304639D01*
X70787Y304600D01*
X70756Y304555D01*
X70738Y304504D01*
X70732Y304447D01*
Y305647D01*
X70738Y305590D01*
D02*
G37*
G36*
X3930Y303482D02*
X3925Y303523D01*
X3909Y303560D01*
X3882Y303593D01*
X3845Y303622D01*
X3797Y303645D01*
X3739Y303665D01*
X3670Y303680D01*
X3591Y303691D01*
X3501Y303698D01*
X3400Y303700D01*
Y304300D01*
X3501Y304302D01*
X3670Y304320D01*
X3739Y304335D01*
X3797Y304355D01*
X3845Y304378D01*
X3882Y304407D01*
X3909Y304439D01*
X3925Y304476D01*
X3930Y304518D01*
Y303482D01*
D02*
G37*
G36*
X59227Y304753D02*
X59137Y304651D01*
X59058Y304549D01*
X58990Y304448D01*
X58932Y304346D01*
X58884Y304246D01*
X58847Y304146D01*
X58821Y304047D01*
X58805Y303947D01*
X58802Y303888D01*
X58803Y303854D01*
X58812Y303750D01*
X58827Y303658D01*
X58848Y303578D01*
X58875Y303511D01*
X58908Y303456D01*
X58947Y303413D01*
X58992Y303382D01*
X59043Y303364D01*
X59100Y303358D01*
X57900D01*
X57957Y303364D01*
X58008Y303382D01*
X58053Y303413D01*
X58092Y303456D01*
X58125Y303511D01*
X58152Y303578D01*
X58173Y303658D01*
X58188Y303750D01*
X58197Y303854D01*
X58198Y303888D01*
X58195Y303947D01*
X58179Y304047D01*
X58153Y304146D01*
X58116Y304246D01*
X58068Y304346D01*
X58010Y304448D01*
X57942Y304549D01*
X57863Y304651D01*
X57773Y304753D01*
X57673Y304856D01*
X59327D01*
X59227Y304753D01*
D02*
G37*
G36*
X66543Y303687D02*
X66492Y303669D01*
X66447Y303638D01*
X66408Y303595D01*
X66375Y303540D01*
X66348Y303473D01*
X66327Y303393D01*
X66312Y303302D01*
X66303Y303198D01*
X66300Y303081D01*
X65700D01*
X65697Y303198D01*
X65688Y303302D01*
X65673Y303393D01*
X65652Y303473D01*
X65625Y303540D01*
X65592Y303595D01*
X65553Y303638D01*
X65508Y303669D01*
X65457Y303687D01*
X65400Y303693D01*
X66600D01*
X66543Y303687D01*
D02*
G37*
G36*
X30406Y304045D02*
Y300540D01*
X32560D01*
X32574Y300524D01*
X32728Y300040D01*
X32450Y299781D01*
X32298Y299658D01*
X32167Y299566D01*
X32155Y299560D01*
X31918D01*
X31877Y299584D01*
X31832Y299572D01*
X31788Y299589D01*
X31723Y299560D01*
X30406D01*
Y296757D01*
X30183Y296623D01*
X29945Y296535D01*
X29782Y296635D01*
X29721Y296689D01*
X29644Y296789D01*
X29594Y296894D01*
Y297300D01*
X28032D01*
X26469D01*
Y296852D01*
X26412Y296768D01*
X26289Y296644D01*
X26026Y296463D01*
X25969Y296457D01*
X25936Y296462D01*
X25872Y296476D01*
X25816Y296493D01*
X25768Y296512D01*
X25727Y296533D01*
X25691Y296555D01*
X25659Y296579D01*
X25611Y296624D01*
X25573Y296638D01*
X25056Y296984D01*
X24870Y297021D01*
X24705Y297563D01*
X25321Y298179D01*
X25542Y298510D01*
X25620Y298900D01*
Y303178D01*
X26007Y303565D01*
X26469Y303373D01*
Y302800D01*
X28032D01*
X29594D01*
Y304045D01*
X30000Y304273D01*
X30406Y304045D01*
D02*
G37*
G36*
X18437Y302754D02*
X18351Y302724D01*
X18277Y302673D01*
X18212Y302602D01*
X18157Y302511D01*
X18112Y302400D01*
X18077Y302268D01*
X18052Y302116D01*
X18036Y301944D01*
X18032Y301752D01*
X17031D01*
X17027Y301944D01*
X17011Y302116D01*
X16986Y302268D01*
X16951Y302400D01*
X16906Y302511D01*
X16851Y302602D01*
X16786Y302673D01*
X16712Y302724D01*
X16626Y302754D01*
X16532Y302764D01*
X18531D01*
X18437Y302754D01*
D02*
G37*
G36*
X33029Y303189D02*
X33059Y303108D01*
X33108Y303035D01*
X33176Y302973D01*
X33265Y302920D01*
X33373Y302877D01*
X33500Y302843D01*
X33647Y302819D01*
X33814Y302805D01*
X34000Y302800D01*
Y301800D01*
X33814Y301795D01*
X33647Y301781D01*
X33500Y301757D01*
X33373Y301723D01*
X33265Y301680D01*
X33176Y301627D01*
X33108Y301565D01*
X33059Y301493D01*
X33029Y301411D01*
X33020Y301320D01*
Y303280D01*
X33029Y303189D01*
D02*
G37*
G36*
X18036Y301556D02*
X18052Y301383D01*
X18077Y301232D01*
X18112Y301100D01*
X18157Y300989D01*
X18212Y300898D01*
X18277Y300827D01*
X18351Y300776D01*
X18437Y300746D01*
X18531Y300736D01*
X16532D01*
X16626Y300746D01*
X16712Y300776D01*
X16786Y300827D01*
X16851Y300898D01*
X16906Y300989D01*
X16951Y301100D01*
X16986Y301232D01*
X17011Y301383D01*
X17027Y301556D01*
X17031Y301748D01*
X18032D01*
X18036Y301556D01*
D02*
G37*
G36*
X59721Y301367D02*
X59737Y301337D01*
X59762Y301309D01*
X59797Y301286D01*
X59843Y301266D01*
X59898Y301250D01*
X59964Y301238D01*
X60040Y301228D01*
X60125Y301223D01*
X60221Y301221D01*
Y300621D01*
X60125Y300620D01*
X59964Y300605D01*
X59898Y300592D01*
X59843Y300576D01*
X59797Y300556D01*
X59762Y300533D01*
X59737Y300506D01*
X59721Y300475D01*
X59716Y300441D01*
Y301401D01*
X59721Y301367D01*
D02*
G37*
G36*
X8862Y305934D02*
X9035Y305841D01*
X9311Y305635D01*
Y304500D01*
X9819D01*
X9823Y304529D01*
Y304500D01*
X11394D01*
Y304927D01*
Y305480D01*
X15959D01*
X15969Y305476D01*
Y302240D01*
X16432D01*
X16437Y302228D01*
X16457Y302154D01*
X16474Y302049D01*
X16486Y301914D01*
X16490Y301750D01*
X16486Y301586D01*
X16474Y301451D01*
X16457Y301345D01*
X16437Y301272D01*
X16432Y301260D01*
X15969D01*
Y300305D01*
X15967Y300302D01*
X15947Y300294D01*
X15875Y300274D01*
X15772Y300257D01*
X15639Y300246D01*
X15466Y300241D01*
X15418Y300220D01*
X12823D01*
X12806Y300231D01*
X12750Y300220D01*
X12650D01*
X12594Y300231D01*
X12577Y300220D01*
X9426D01*
Y300990D01*
X9853D01*
Y302031D01*
X10353D01*
Y302532D01*
X11394D01*
Y302959D01*
Y303500D01*
X9823D01*
Y303471D01*
X9819Y303500D01*
X9311D01*
Y302039D01*
X5489D01*
Y305961D01*
X8812D01*
X8862Y305934D01*
D02*
G37*
G36*
X6939Y300463D02*
X6934Y300445D01*
X6930Y300416D01*
X6926Y300375D01*
X6917Y300095D01*
X6916Y299884D01*
X5916D01*
X5886Y300469D01*
X6945D01*
X6939Y300463D01*
D02*
G37*
G36*
X19819Y311047D02*
Y311047D01*
X20310Y311027D01*
X20331Y311018D01*
X20360Y311030D01*
X20391Y311021D01*
X20438Y311047D01*
X23181D01*
X23384Y310631D01*
Y310614D01*
X23031Y310260D01*
X22884Y310260D01*
X21969D01*
Y308500D01*
Y306740D01*
X23031D01*
Y308009D01*
X23531Y308160D01*
X23623Y308023D01*
X25258Y306388D01*
X25314Y305847D01*
X25277Y305719D01*
X23879Y304321D01*
X23658Y303990D01*
X23580Y303600D01*
Y299741D01*
X23531Y299708D01*
X23031Y299975D01*
Y301260D01*
X21969D01*
Y299500D01*
X21468D01*
Y299000D01*
X19906D01*
Y297740D01*
X21345D01*
X21536Y297278D01*
X21479Y297221D01*
X21258Y296890D01*
X21180Y296500D01*
Y296453D01*
X17819D01*
Y295760D01*
X17817Y295760D01*
X17758Y295733D01*
X16742D01*
X16683Y295760D01*
X16681Y295760D01*
Y296453D01*
X13720D01*
Y297628D01*
X13740Y297672D01*
X13749Y297829D01*
X13766Y297927D01*
X13789Y297995D01*
X13812Y298038D01*
X13835Y298065D01*
X13862Y298088D01*
X13905Y298111D01*
X13973Y298134D01*
X14072Y298151D01*
X14228Y298160D01*
X14266Y298177D01*
X14306Y298169D01*
X14323Y298180D01*
X15419D01*
X15468Y298159D01*
X15643Y298155D01*
X15779Y298144D01*
X15887Y298128D01*
X15964Y298110D01*
X15969Y298108D01*
Y297740D01*
X16410D01*
X16480Y297711D01*
X16511Y297724D01*
X16544Y297715D01*
X16589Y297740D01*
X19094D01*
Y301260D01*
X18631D01*
X18626Y301272D01*
X18606Y301345D01*
X18589Y301451D01*
X18577Y301586D01*
X18573Y301750D01*
X18577Y301914D01*
X18589Y302049D01*
X18606Y302154D01*
X18626Y302228D01*
X18631Y302240D01*
X19094D01*
Y305760D01*
X18631D01*
X18626Y305772D01*
X18606Y305845D01*
X18589Y305951D01*
X18577Y306086D01*
X18573Y306244D01*
X18575Y306268D01*
X18672Y306504D01*
X18907Y306740D01*
X19094D01*
Y310260D01*
X18894D01*
X18652Y310682D01*
X18758Y310861D01*
X19181Y311047D01*
Y311047D01*
X19500Y311223D01*
X19819Y311047D01*
D02*
G37*
G36*
X33426Y299383D02*
X33444Y299399D01*
Y299352D01*
X33727Y298851D01*
X33538Y298655D01*
X33238Y298299D01*
X33150Y298171D01*
X33126Y298127D01*
X33087Y298042D01*
X33058Y297957D01*
X33037Y297872D01*
X33024Y297787D01*
X33020Y297703D01*
Y297934D01*
X32987Y297856D01*
X32955Y297733D01*
X32950Y297622D01*
X32972Y297523D01*
X33020Y297437D01*
X32752Y297791D01*
X32684Y297715D01*
X32184Y298216D01*
X32205Y298223D01*
X32239Y298244D01*
X32286Y298279D01*
X32345Y298330D01*
X31802Y299048D01*
X31871Y298982D01*
X31956Y298947D01*
X32057Y298942D01*
X32175Y298968D01*
X32308Y299023D01*
X32457Y299109D01*
X32623Y299225D01*
X32805Y299372D01*
X33216Y299755D01*
X33426Y299383D01*
D02*
G37*
G36*
X59722Y299389D02*
X59740Y299349D01*
X59769Y299314D01*
X59810Y299284D01*
X59862Y299258D01*
X59926Y299237D01*
X60002Y299221D01*
X60090Y299209D01*
X60189Y299202D01*
X60300Y299200D01*
Y298600D01*
X60189Y298599D01*
X59926Y298580D01*
X59862Y298568D01*
X59810Y298554D01*
X59769Y298538D01*
X59740Y298518D01*
X59722Y298497D01*
X59716Y298473D01*
Y299433D01*
X59722Y299389D01*
D02*
G37*
G36*
X38284Y298473D02*
X38278Y298507D01*
X38260Y298537D01*
X38230Y298565D01*
X38188Y298588D01*
X38134Y298608D01*
X38068Y298624D01*
X37990Y298637D01*
X37900Y298646D01*
X37684Y298653D01*
Y299253D01*
X37798Y299255D01*
X37990Y299269D01*
X38068Y299282D01*
X38134Y299298D01*
X38188Y299318D01*
X38230Y299341D01*
X38260Y299368D01*
X38278Y299399D01*
X38284Y299433D01*
Y298473D01*
D02*
G37*
G36*
X16480Y298252D02*
X16470Y298337D01*
X16441Y298413D01*
X16390Y298481D01*
X16320Y298539D01*
X16230Y298588D01*
X16120Y298628D01*
X15991Y298660D01*
X15841Y298682D01*
X15671Y298695D01*
X15481Y298700D01*
Y299700D01*
X15671Y299705D01*
X15841Y299720D01*
X15991Y299745D01*
X16120Y299780D01*
X16230Y299825D01*
X16320Y299880D01*
X16390Y299945D01*
X16441Y300020D01*
X16470Y300105D01*
X16480Y300200D01*
Y298252D01*
D02*
G37*
G36*
X14200Y298700D02*
X14010Y298690D01*
X13840Y298660D01*
X13690Y298610D01*
X13560Y298540D01*
X13450Y298450D01*
X13360Y298340D01*
X13290Y298210D01*
X13240Y298060D01*
X13210Y297890D01*
X13200Y297700D01*
X12200D01*
X12190Y297890D01*
X12160Y298060D01*
X12110Y298210D01*
X12040Y298340D01*
X11950Y298450D01*
X11840Y298540D01*
X11710Y298610D01*
X11560Y298660D01*
X11390Y298690D01*
X11200Y298700D01*
X12700Y299700D01*
X14200Y298700D01*
D02*
G37*
G36*
X59722Y297430D02*
X59740Y297399D01*
X59770Y297373D01*
X59812Y297349D01*
X59866Y297329D01*
X59932Y297313D01*
X60010Y297301D01*
X60100Y297291D01*
X60316Y297284D01*
Y296684D01*
X60202Y296683D01*
X60010Y296668D01*
X59932Y296655D01*
X59866Y296639D01*
X59812Y296619D01*
X59770Y296596D01*
X59740Y296569D01*
X59722Y296538D01*
X59716Y296504D01*
Y297464D01*
X59722Y297430D01*
D02*
G37*
G36*
X2321Y333733D02*
X3138Y333187D01*
X3250Y333165D01*
X3251Y333162D01*
X3257Y333080D01*
X3260Y332966D01*
X3285Y332909D01*
Y327099D01*
X3285Y327099D01*
X3347Y326787D01*
X3524Y326522D01*
X5523Y324523D01*
X5534Y324516D01*
X5383Y324016D01*
X3800D01*
X3488Y323954D01*
X3223Y323777D01*
X3223Y323777D01*
X2223Y322777D01*
X2046Y322512D01*
X1984Y322200D01*
X1984Y322200D01*
Y313129D01*
X1969Y313106D01*
X1984Y313030D01*
Y312970D01*
X1969Y312894D01*
X1984Y312871D01*
Y304600D01*
X1984Y304600D01*
X2046Y304288D01*
X2223Y304023D01*
X2823Y303423D01*
X2823Y303423D01*
X3088Y303246D01*
X3273Y303209D01*
X3388Y303159D01*
X3406Y303159D01*
Y302532D01*
X4447D01*
Y302031D01*
X4947D01*
Y300990D01*
X5172D01*
X5354Y300490D01*
X5345Y300469D01*
X5351Y300455D01*
X5346Y300442D01*
X5375Y299857D01*
X5421Y299762D01*
X5474Y299494D01*
X5695Y299163D01*
X6379Y298479D01*
X6710Y298258D01*
X7100Y298180D01*
X11077D01*
X11094Y298169D01*
X11134Y298177D01*
X11172Y298160D01*
X11328Y298151D01*
X11427Y298134D01*
X11495Y298111D01*
X11538Y298088D01*
X11565Y298065D01*
X11588Y298038D01*
X11611Y297995D01*
X11634Y297927D01*
X11651Y297829D01*
X11660Y297672D01*
X11680Y297628D01*
Y296411D01*
X11348Y296270D01*
X11180Y296233D01*
X10656Y296584D01*
X10000Y296714D01*
X9344Y296584D01*
X8827Y296238D01*
X8789Y296224D01*
X8741Y296179D01*
X8709Y296155D01*
X8673Y296133D01*
X8632Y296112D01*
X8584Y296093D01*
X8528Y296076D01*
X8464Y296062D01*
X8392Y296051D01*
X8311Y296044D01*
X8207Y296041D01*
X8159Y296020D01*
X8018D01*
X7970Y296041D01*
X7795Y296045D01*
X7659Y296056D01*
X7552Y296072D01*
X7476Y296091D01*
X7468Y296094D01*
Y296468D01*
X7029D01*
X6960Y296498D01*
X6928Y296485D01*
X6894Y296494D01*
X6848Y296468D01*
X2531D01*
Y291531D01*
X3446D01*
X3597Y291032D01*
X3220Y290780D01*
X2675Y289963D01*
X2483Y289000D01*
X2675Y288037D01*
X3220Y287220D01*
X3883Y286778D01*
X3897Y286736D01*
Y286263D01*
X3883Y286222D01*
X3220Y285780D01*
X2675Y284963D01*
X2483Y284000D01*
X2675Y283037D01*
X3220Y282220D01*
X3883Y281778D01*
X3897Y281736D01*
Y281263D01*
X3883Y281222D01*
X3220Y280780D01*
X2675Y279963D01*
X2483Y279000D01*
X2675Y278037D01*
X3220Y277220D01*
X3883Y276778D01*
X3897Y276736D01*
Y276263D01*
X3883Y276222D01*
X3220Y275780D01*
X2675Y274963D01*
X2583Y274500D01*
X5000D01*
X7417D01*
X7325Y274963D01*
X6780Y275780D01*
X6117Y276222D01*
X6103Y276263D01*
Y276736D01*
X6117Y276778D01*
X6780Y277220D01*
X7325Y278037D01*
X7517Y279000D01*
X7325Y279963D01*
X6780Y280780D01*
X6117Y281222D01*
X6103Y281263D01*
Y281736D01*
X6117Y281778D01*
X6780Y282220D01*
X7325Y283037D01*
X7517Y284000D01*
X7325Y284963D01*
X6780Y285780D01*
X6117Y286222D01*
X6103Y286263D01*
Y286736D01*
X6117Y286778D01*
X6780Y287220D01*
X7325Y288037D01*
X7517Y289000D01*
X7325Y289963D01*
X6780Y290780D01*
X6403Y291032D01*
X6555Y291531D01*
X7468D01*
Y293900D01*
X7482Y293906D01*
X7556Y293925D01*
X7661Y293943D01*
X7795Y293954D01*
X7971Y293959D01*
X8019Y293980D01*
X8159D01*
X8207Y293959D01*
X8311Y293956D01*
X8392Y293949D01*
X8464Y293938D01*
X8528Y293924D01*
X8584Y293907D01*
X8632Y293888D01*
X8673Y293867D01*
X8709Y293845D01*
X8741Y293821D01*
X8789Y293776D01*
X8827Y293762D01*
X9344Y293416D01*
X10000Y293286D01*
X10656Y293416D01*
X11180Y293767D01*
X11348Y293730D01*
X11680Y293589D01*
Y266213D01*
X11659Y266167D01*
X11653Y265990D01*
X11636Y265840D01*
X11609Y265697D01*
X11571Y265559D01*
X11523Y265428D01*
X11464Y265301D01*
X11394Y265177D01*
X11312Y265056D01*
X11217Y264938D01*
X11097Y264809D01*
X11079Y264761D01*
X10979Y264661D01*
X10758Y264330D01*
X10680Y263940D01*
Y249700D01*
X10758Y249310D01*
X10979Y248979D01*
X12137Y247821D01*
X12158Y247769D01*
X12353Y247571D01*
X12675Y247220D01*
X12760Y247116D01*
X12528Y246623D01*
X12519Y246616D01*
X9152D01*
X8705Y246806D01*
X8690Y246829D01*
Y250326D01*
X8690Y250326D01*
X8628Y250638D01*
X8451Y250903D01*
X8451Y250903D01*
X7937Y251416D01*
X7914Y251476D01*
X7804Y251589D01*
X7624Y251800D01*
X7563Y251883D01*
X7512Y251961D01*
X7475Y252029D01*
X7450Y252083D01*
X7437Y252124D01*
X7431Y252149D01*
X7428Y252200D01*
X7400Y252255D01*
Y252909D01*
X2463D01*
Y249941D01*
X6587D01*
X6881Y249465D01*
X6800Y249283D01*
X6699Y249169D01*
X5432D01*
Y247685D01*
Y246200D01*
X6415D01*
X6827Y245778D01*
X6801Y245540D01*
X6625Y245429D01*
X2463D01*
Y242460D01*
X7058D01*
Y239635D01*
X7033Y239578D01*
X7030Y239478D01*
X7030Y239476D01*
X5996D01*
Y234669D01*
X5654Y234583D01*
X5274Y234953D01*
X5284Y235032D01*
X5172Y235882D01*
X4844Y236674D01*
X4322Y237354D01*
X3642Y237876D01*
X2850Y238204D01*
X2000Y238316D01*
X1974Y238312D01*
X1973Y238313D01*
X1317D01*
X1317Y334404D01*
X1579Y334487D01*
X1817Y334487D01*
X2321Y333733D01*
D02*
G37*
G36*
X32505Y296553D02*
X32420Y296522D01*
X32345Y296472D01*
X32280Y296400D01*
X32225Y296309D01*
X32180Y296198D01*
X32145Y296067D01*
X32120Y295915D01*
X32105Y295744D01*
X32100Y295552D01*
X31100D01*
X31098Y295742D01*
X31054Y296302D01*
X31034Y296392D01*
X31011Y296462D01*
X30983Y296512D01*
X30952Y296542D01*
X30918Y296552D01*
X32600Y296564D01*
X32505Y296553D01*
D02*
G37*
G36*
X38284Y294712D02*
X38281Y294713D01*
X38271Y294714D01*
X37980Y294716D01*
Y295316D01*
X38284Y295319D01*
Y294712D01*
D02*
G37*
G36*
X30757Y294573D02*
X30689Y294635D01*
X30617Y294691D01*
X30538Y294740D01*
X30453Y294782D01*
X30363Y294818D01*
X30266Y294848D01*
X30164Y294871D01*
X30055Y294887D01*
X29941Y294897D01*
X29821Y294900D01*
Y295900D01*
X29941Y295903D01*
X30055Y295913D01*
X30164Y295929D01*
X30266Y295952D01*
X30363Y295982D01*
X30453Y296018D01*
X30538Y296060D01*
X30617Y296109D01*
X30689Y296165D01*
X30757Y296227D01*
Y294573D01*
D02*
G37*
G36*
X25311Y296165D02*
X25383Y296109D01*
X25462Y296060D01*
X25547Y296018D01*
X25637Y295982D01*
X25734Y295952D01*
X25836Y295929D01*
X25945Y295913D01*
X26059Y295903D01*
X26179Y295900D01*
Y294900D01*
X26059Y294897D01*
X25945Y294887D01*
X25836Y294871D01*
X25734Y294848D01*
X25637Y294818D01*
X25547Y294782D01*
X25462Y294740D01*
X25383Y294691D01*
X25311Y294635D01*
X25243Y294573D01*
Y296227D01*
X25311Y296165D01*
D02*
G37*
G36*
X59722Y295462D02*
X59740Y295431D01*
X59770Y295404D01*
X59812Y295381D01*
X59866Y295361D01*
X59932Y295345D01*
X60010Y295332D01*
X60100Y295323D01*
X60316Y295316D01*
Y294716D01*
X60202Y294714D01*
X60010Y294700D01*
X59932Y294687D01*
X59866Y294671D01*
X59812Y294651D01*
X59770Y294627D01*
X59740Y294601D01*
X59722Y294570D01*
X59716Y294536D01*
Y295496D01*
X59722Y295462D01*
D02*
G37*
G36*
X18343Y294468D02*
X18338Y294516D01*
X18322Y294559D01*
X18297Y294596D01*
X18261Y294629D01*
X18215Y294656D01*
X18159Y294678D01*
X18092Y294696D01*
X18015Y294708D01*
X17928Y294716D01*
X17831Y294719D01*
Y295218D01*
X17928Y295221D01*
X18015Y295229D01*
X18092Y295241D01*
X18159Y295258D01*
X18215Y295281D01*
X18261Y295308D01*
X18297Y295341D01*
X18322Y295378D01*
X18338Y295421D01*
X18343Y295468D01*
Y294468D01*
D02*
G37*
G36*
X16162Y295421D02*
X16178Y295378D01*
X16203Y295341D01*
X16239Y295308D01*
X16285Y295281D01*
X16341Y295258D01*
X16408Y295241D01*
X16485Y295229D01*
X16572Y295221D01*
X16669Y295218D01*
Y294719D01*
X16572Y294716D01*
X16485Y294708D01*
X16408Y294696D01*
X16341Y294678D01*
X16285Y294656D01*
X16239Y294629D01*
X16203Y294596D01*
X16178Y294559D01*
X16162Y294516D01*
X16157Y294468D01*
Y295468D01*
X16162Y295421D01*
D02*
G37*
G36*
X32105Y295056D02*
X32120Y294885D01*
X32145Y294733D01*
X32180Y294602D01*
X32225Y294491D01*
X32280Y294399D01*
X32345Y294328D01*
X32420Y294278D01*
X32505Y294247D01*
X32600Y294236D01*
X30918Y294248D01*
X30952Y294258D01*
X30983Y294288D01*
X31011Y294338D01*
X31034Y294408D01*
X31054Y294498D01*
X31071Y294608D01*
X31093Y294888D01*
X31100Y295248D01*
X32100D01*
X32105Y295056D01*
D02*
G37*
G36*
X9156Y294173D02*
X9089Y294235D01*
X9017Y294291D01*
X8938Y294340D01*
X8853Y294382D01*
X8763Y294418D01*
X8666Y294448D01*
X8564Y294471D01*
X8456Y294487D01*
X8341Y294497D01*
X8221Y294500D01*
Y295500D01*
X8341Y295503D01*
X8456Y295513D01*
X8564Y295529D01*
X8666Y295552D01*
X8763Y295582D01*
X8853Y295618D01*
X8938Y295660D01*
X9017Y295709D01*
X9089Y295765D01*
X9156Y295827D01*
Y294173D01*
D02*
G37*
G36*
X6966Y295870D02*
X6996Y295792D01*
X7046Y295724D01*
X7117Y295664D01*
X7207Y295614D01*
X7316Y295573D01*
X7446Y295541D01*
X7597Y295518D01*
X7767Y295505D01*
X7957Y295500D01*
Y294500D01*
X7765Y294495D01*
X7593Y294480D01*
X7442Y294455D01*
X7310Y294420D01*
X7199Y294375D01*
X7108Y294320D01*
X7037Y294255D01*
X6986Y294180D01*
X6955Y294095D01*
X6944Y294000D01*
X6956Y295956D01*
X6966Y295870D01*
D02*
G37*
G36*
X72138Y304206D02*
X72238Y304204D01*
X72240Y304204D01*
Y303468D01*
X74152D01*
X74344Y303007D01*
X65919Y294581D01*
X65587Y294085D01*
X65535Y293825D01*
X65308Y293702D01*
X64988Y293636D01*
X64812Y293754D01*
X64500Y293816D01*
X64500Y293816D01*
X63491D01*
X63439Y293959D01*
X63408Y294316D01*
X63592Y294439D01*
X66577Y297423D01*
X66577Y297423D01*
X66754Y297688D01*
X66816Y298000D01*
X66816Y298000D01*
Y303010D01*
X66841Y303067D01*
X66844Y303167D01*
X66844Y303169D01*
X71256D01*
Y304204D01*
X71258Y304204D01*
X71358Y304206D01*
X71415Y304232D01*
X72081D01*
X72138Y304206D01*
D02*
G37*
G36*
X59722Y293484D02*
X59740Y293445D01*
X59770Y293411D01*
X59812Y293382D01*
X59866Y293357D01*
X59932Y293336D01*
X60010Y293320D01*
X60100Y293309D01*
X60202Y293302D01*
X60316Y293300D01*
Y292700D01*
X60202Y292699D01*
X59932Y292679D01*
X59866Y292667D01*
X59812Y292652D01*
X59770Y292635D01*
X59740Y292615D01*
X59722Y292592D01*
X59716Y292567D01*
Y293527D01*
X59722Y293484D01*
D02*
G37*
G36*
X38103Y293764D02*
X38320Y293580D01*
X38425Y293505D01*
X38528Y293441D01*
X38629Y293390D01*
X38728Y293349D01*
X38824Y293320D01*
X38918Y293303D01*
X39010Y293297D01*
Y292797D01*
X38918Y292792D01*
X38824Y292774D01*
X38728Y292745D01*
X38629Y292705D01*
X38528Y292653D01*
X38425Y292590D01*
X38320Y292515D01*
X38212Y292428D01*
X37991Y292220D01*
Y292784D01*
X37964Y292788D01*
X37879Y292795D01*
X37784Y292797D01*
Y293297D01*
X37879Y293300D01*
X37964Y293306D01*
X37991Y293311D01*
Y293874D01*
X38103Y293764D01*
D02*
G37*
G36*
X77606Y292758D02*
X77555Y292740D01*
X77510Y292709D01*
X77471Y292666D01*
X77438Y292611D01*
X77411Y292544D01*
X77390Y292464D01*
X77375Y292372D01*
X77366Y292268D01*
X77363Y292152D01*
X76763D01*
X76760Y292268D01*
X76751Y292372D01*
X76736Y292464D01*
X76715Y292544D01*
X76688Y292611D01*
X76655Y292666D01*
X76616Y292709D01*
X76571Y292740D01*
X76520Y292758D01*
X76463Y292764D01*
X77663D01*
X77606Y292758D01*
D02*
G37*
G36*
X65301Y292432D02*
X65317Y292199D01*
X65323Y292174D01*
X65330Y292156D01*
X65338Y292145D01*
X65347Y292141D01*
X64653D01*
X64662Y292145D01*
X64670Y292156D01*
X64677Y292174D01*
X64683Y292199D01*
X64688Y292231D01*
X64696Y292317D01*
X64700Y292432D01*
X64700Y292500D01*
X65300D01*
X65301Y292432D01*
D02*
G37*
G36*
X59725Y291549D02*
X59751Y291541D01*
X59794Y291533D01*
X59854Y291526D01*
X60137Y291512D01*
X60574Y291508D01*
Y290650D01*
X60411Y290649D01*
X59725Y290608D01*
X59716Y290599D01*
Y291559D01*
X59725Y291549D01*
D02*
G37*
G36*
X62551Y290406D02*
X62543Y290452D01*
X62517Y290494D01*
X62474Y290530D01*
X62414Y290562D01*
X62337Y290589D01*
X62243Y290611D01*
X62131Y290628D01*
X62002Y290640D01*
X61693Y290650D01*
Y291508D01*
X61858Y291512D01*
X62006Y291525D01*
X62136Y291546D01*
X62249Y291576D01*
X62344Y291615D01*
X62423Y291662D01*
X62484Y291718D01*
X62528Y291782D01*
X62554Y291855D01*
X62563Y291937D01*
X62551Y290406D01*
D02*
G37*
G36*
X19408Y290071D02*
X19352Y290094D01*
X19290Y290102D01*
X19221Y290095D01*
X19146Y290073D01*
X19064Y290037D01*
X18976Y289986D01*
X18882Y289920D01*
X18781Y289840D01*
X18559Y289635D01*
X17907Y289831D01*
X18037Y289965D01*
X18239Y290201D01*
X18312Y290302D01*
X18365Y290392D01*
X18399Y290472D01*
X18414Y290540D01*
X18409Y290598D01*
X18386Y290644D01*
X18343Y290679D01*
X19408Y290071D01*
D02*
G37*
G36*
X25846Y291327D02*
X25949Y291237D01*
X26051Y291158D01*
X26153Y291090D01*
X26254Y291032D01*
X26354Y290984D01*
X26454Y290947D01*
X26553Y290921D01*
X26653Y290905D01*
X26751Y290900D01*
Y290300D01*
X26653Y290295D01*
X26553Y290279D01*
X26454Y290253D01*
X26354Y290216D01*
X26254Y290168D01*
X26153Y290110D01*
X26051Y290042D01*
X25949Y289963D01*
X25846Y289873D01*
X25743Y289773D01*
Y291427D01*
X25846Y291327D01*
D02*
G37*
G36*
X33444Y289551D02*
X33332Y289436D01*
X33155Y289225D01*
X33089Y289130D01*
X33038Y289042D01*
X33002Y288960D01*
X32980Y288886D01*
X32974Y288818D01*
X32983Y288757D01*
X33007Y288703D01*
X32368Y289736D01*
X32405Y289694D01*
X32452Y289672D01*
X32510Y289668D01*
X32579Y289683D01*
X32659Y289718D01*
X32749Y289771D01*
X32850Y289843D01*
X32961Y289934D01*
X33216Y290172D01*
X33444Y289551D01*
D02*
G37*
G36*
X77366Y289558D02*
X77375Y289454D01*
X77390Y289363D01*
X77411Y289283D01*
X77438Y289216D01*
X77471Y289160D01*
X77510Y289118D01*
X77555Y289087D01*
X77606Y289069D01*
X77663Y289063D01*
X76463D01*
X76520Y289069D01*
X76571Y289087D01*
X76616Y289118D01*
X76655Y289160D01*
X76688Y289216D01*
X76715Y289283D01*
X76736Y289363D01*
X76751Y289454D01*
X76760Y289558D01*
X76763Y289675D01*
X77363D01*
X77366Y289558D01*
D02*
G37*
G36*
X30853Y290044D02*
X31085Y289846D01*
X31185Y289775D01*
X31276Y289723D01*
X31355Y289690D01*
X31424Y289676D01*
X31483Y289681D01*
X31531Y289705D01*
X31569Y289748D01*
X30918Y288703D01*
X30943Y288758D01*
X30953Y288820D01*
X30948Y288889D01*
X30928Y288964D01*
X30893Y289045D01*
X30843Y289133D01*
X30778Y289228D01*
X30698Y289329D01*
X30603Y289437D01*
X30493Y289551D01*
X30721Y290172D01*
X30853Y290044D01*
D02*
G37*
G36*
X59725Y289581D02*
X59751Y289572D01*
X59794Y289564D01*
X59854Y289558D01*
X60137Y289544D01*
X60574Y289539D01*
Y288681D01*
X60411Y288681D01*
X59725Y288640D01*
X59716Y288630D01*
Y289590D01*
X59725Y289581D01*
D02*
G37*
G36*
X62563Y288252D02*
X62554Y288334D01*
X62527Y288407D01*
X62484Y288471D01*
X62422Y288527D01*
X62344Y288574D01*
X62248Y288613D01*
X62135Y288643D01*
X62005Y288664D01*
X61858Y288677D01*
X61693Y288681D01*
Y289539D01*
X61856Y289540D01*
X62543Y289584D01*
X62551Y289594D01*
X62563Y288252D01*
D02*
G37*
G36*
X39143Y288635D02*
X39092Y288616D01*
X39047Y288585D01*
X39008Y288542D01*
X38975Y288487D01*
X38948Y288420D01*
X38927Y288341D01*
X38912Y288249D01*
X38903Y288146D01*
X38900Y288030D01*
X38300D01*
X38284Y288630D01*
X39200Y288642D01*
X39143Y288635D01*
D02*
G37*
G36*
X32511Y287258D02*
X32460Y287240D01*
X32416Y287209D01*
X32377Y287166D01*
X32344Y287111D01*
X32316Y287044D01*
X32296Y286964D01*
X32280Y286873D01*
X32272Y286768D01*
X32269Y286652D01*
X31668D01*
X31666Y286768D01*
X31657Y286873D01*
X31642Y286964D01*
X31620Y287044D01*
X31593Y287111D01*
X31561Y287166D01*
X31521Y287209D01*
X31477Y287240D01*
X31425Y287258D01*
X31368Y287264D01*
X32568D01*
X32511Y287258D01*
D02*
G37*
G36*
X32272Y285458D02*
X32280Y285356D01*
X32296Y285266D01*
X32316Y285188D01*
X32344Y285122D01*
X32377Y285068D01*
X32416Y285026D01*
X32460Y284996D01*
X32511Y284978D01*
X32568Y284972D01*
X31368D01*
X31425Y284978D01*
X31477Y284996D01*
X31521Y285026D01*
X31561Y285068D01*
X31593Y285122D01*
X31620Y285188D01*
X31642Y285266D01*
X31657Y285356D01*
X31666Y285458D01*
X31668Y285572D01*
X32269D01*
X32272Y285458D01*
D02*
G37*
G36*
X54367Y285279D02*
X54337Y285263D01*
X54309Y285238D01*
X54286Y285203D01*
X54266Y285157D01*
X54250Y285102D01*
X54238Y285036D01*
X54229Y284961D01*
X54223Y284875D01*
X54221Y284779D01*
X53621D01*
X53619Y284875D01*
X53605Y285036D01*
X53592Y285102D01*
X53576Y285157D01*
X53556Y285203D01*
X53533Y285238D01*
X53506Y285263D01*
X53475Y285279D01*
X53441Y285284D01*
X54401D01*
X54367Y285279D01*
D02*
G37*
G36*
X52399Y285278D02*
X52368Y285260D01*
X52341Y285230D01*
X52318Y285188D01*
X52298Y285134D01*
X52282Y285068D01*
X52269Y284990D01*
X52260Y284900D01*
X52253Y284684D01*
X51653D01*
X51651Y284798D01*
X51636Y284990D01*
X51624Y285068D01*
X51608Y285134D01*
X51588Y285188D01*
X51565Y285230D01*
X51538Y285260D01*
X51507Y285278D01*
X51473Y285284D01*
X52433D01*
X52399Y285278D01*
D02*
G37*
G36*
X50430D02*
X50400Y285260D01*
X50372Y285230D01*
X50349Y285188D01*
X50329Y285134D01*
X50313Y285068D01*
X50301Y284990D01*
X50291Y284900D01*
X50284Y284684D01*
X49684D01*
X49683Y284798D01*
X49668Y284990D01*
X49655Y285068D01*
X49639Y285134D01*
X49619Y285188D01*
X49596Y285230D01*
X49569Y285260D01*
X49538Y285278D01*
X49504Y285284D01*
X50464D01*
X50430Y285278D01*
D02*
G37*
G36*
X27059Y283000D02*
X27049Y283095D01*
X27019Y283180D01*
X26969Y283255D01*
X26899Y283320D01*
X26809Y283375D01*
X26699Y283420D01*
X26569Y283455D01*
X26568Y283455D01*
X26534Y283448D01*
X26437Y283418D01*
X26347Y283382D01*
X26262Y283340D01*
X26183Y283291D01*
X26111Y283235D01*
X26043Y283173D01*
Y284827D01*
X26111Y284765D01*
X26183Y284709D01*
X26262Y284660D01*
X26347Y284618D01*
X26437Y284582D01*
X26534Y284552D01*
X26568Y284545D01*
X26569Y284545D01*
X26699Y284580D01*
X26809Y284625D01*
X26899Y284680D01*
X26969Y284745D01*
X27019Y284820D01*
X27049Y284905D01*
X27059Y285000D01*
Y283000D01*
D02*
G37*
G36*
X73599Y283587D02*
X73593Y283608D01*
X73575Y283628D01*
X73545Y283645D01*
X73503Y283659D01*
X73449Y283672D01*
X73383Y283682D01*
X73215Y283696D01*
X72999Y283700D01*
Y284300D01*
X73114Y284303D01*
X73218Y284312D01*
X73309Y284327D01*
X73389Y284348D01*
X73456Y284375D01*
X73511Y284408D01*
X73554Y284447D01*
X73585Y284492D01*
X73604Y284543D01*
X73611Y284600D01*
X73599Y283587D01*
D02*
G37*
G36*
X48523Y285040D02*
X48545Y284760D01*
X48562Y284650D01*
X48582Y284560D01*
X48606Y284490D01*
X48634Y284440D01*
X48665Y284410D01*
X48700Y284400D01*
X48016Y283400D01*
X46516Y284400D01*
X46706Y284410D01*
X46876Y284440D01*
X47026Y284490D01*
X47156Y284560D01*
X47266Y284650D01*
X47356Y284760D01*
X47426Y284890D01*
X47476Y285040D01*
X47506Y285210D01*
X47516Y285400D01*
X48516D01*
X48523Y285040D01*
D02*
G37*
G36*
X45051Y283400D02*
X44925Y283397D01*
X44813Y283386D01*
X44714Y283370D01*
X44627Y283346D01*
X44553Y283316D01*
X44493Y283279D01*
X44445Y283235D01*
X44411Y283184D01*
X44389Y283127D01*
X44381Y283063D01*
X43410Y284262D01*
X44778Y284400D01*
X45051Y283400D01*
D02*
G37*
G36*
X24244Y289016D02*
X24900Y288886D01*
X25556Y289016D01*
X25969Y289292D01*
X26344Y289155D01*
X26469Y289026D01*
Y289000D01*
X28032D01*
X29594D01*
Y289067D01*
X29615Y289076D01*
X30103Y289176D01*
X30205Y289070D01*
X30283Y288982D01*
X30342Y288907D01*
X30384Y288846D01*
X30406Y288808D01*
Y288672D01*
X30390Y288580D01*
X30406Y288559D01*
Y286740D01*
X31125D01*
X31125Y286738D01*
X31128Y286638D01*
X31153Y286581D01*
Y285643D01*
X31128Y285587D01*
X31125Y285489D01*
X31124Y285484D01*
X30287D01*
Y282871D01*
X29556D01*
X29556Y282871D01*
X29516Y282904D01*
Y285681D01*
X26547D01*
Y285681D01*
X26047Y285456D01*
X25856Y285584D01*
X25200Y285714D01*
X24544Y285584D01*
X23988Y285212D01*
X23616Y284656D01*
X23486Y284000D01*
X23616Y283344D01*
X23969Y282816D01*
X23937Y282664D01*
X23795Y282316D01*
X15638D01*
X14916Y283038D01*
Y283587D01*
X21036D01*
Y284906D01*
X21090Y284916D01*
X21421Y285137D01*
X22921Y286637D01*
X23142Y286968D01*
X23220Y287358D01*
Y289189D01*
X23552Y289330D01*
X23720Y289367D01*
X24244Y289016D01*
D02*
G37*
G36*
X79554Y281959D02*
X79554Y281959D01*
X80037D01*
X80609Y281387D01*
X80418Y280925D01*
X79386D01*
Y274413D01*
X80156D01*
X80156Y274411D01*
X80159Y274311D01*
X80184Y274254D01*
Y272519D01*
X80159Y272462D01*
X80156Y272362D01*
X80156Y272360D01*
X79405D01*
Y268840D01*
X82531D01*
Y272360D01*
X81844D01*
X81844Y272362D01*
X81841Y272462D01*
X81816Y272519D01*
Y274254D01*
X81841Y274311D01*
X81844Y274411D01*
X81844Y274413D01*
X84826D01*
X85326Y274204D01*
Y267665D01*
X73832D01*
X73783Y267783D01*
X73400Y267941D01*
X63256D01*
Y271010D01*
X57756D01*
X57280Y271082D01*
X57193Y271233D01*
X57127Y271393D01*
X57091Y271408D01*
X57072Y271441D01*
X56692Y271730D01*
X56524Y271775D01*
X56364Y271841D01*
X54343D01*
Y275050D01*
X53524D01*
X53520Y275062D01*
X53500Y275136D01*
X53483Y275242D01*
X53471Y275377D01*
X53466Y275553D01*
X53445Y275601D01*
Y278606D01*
X53945Y278813D01*
X55510Y277248D01*
X55841Y277027D01*
X56231Y276949D01*
X56690D01*
X56738Y276927D01*
X56914Y276923D01*
X57049Y276911D01*
X57155Y276894D01*
X57228Y276874D01*
X57240Y276869D01*
Y276406D01*
X60760D01*
Y279532D01*
X57240D01*
Y279068D01*
X57228Y279063D01*
X57155Y279043D01*
X57049Y279026D01*
X56914Y279014D01*
X56738Y279010D01*
X56690Y278988D01*
X56654D01*
X55319Y280322D01*
X55511Y280784D01*
X61962D01*
X62684Y280062D01*
Y279532D01*
X61740D01*
Y276406D01*
X65260D01*
Y276406D01*
X65346Y276476D01*
X65744Y276397D01*
X65800Y276386D01*
X66240Y276406D01*
Y276406D01*
X69760D01*
Y279532D01*
X66684D01*
X66456Y279684D01*
X65800Y279814D01*
X65144Y279684D01*
X64916Y279532D01*
X64316D01*
Y280400D01*
X64316Y280400D01*
X64254Y280712D01*
X64077Y280977D01*
X64077Y280977D01*
X63531Y281522D01*
X63722Y281984D01*
X73128D01*
X73255Y281959D01*
X73255Y281959D01*
X78446D01*
X78446Y281959D01*
X78572Y281984D01*
X79428D01*
X79554Y281959D01*
D02*
G37*
G36*
X82452Y280886D02*
X82461Y280784D01*
X82475Y280695D01*
X82495Y280617D01*
X82521Y280551D01*
X82553Y280497D01*
X82590Y280455D01*
X82633Y280425D01*
X82682Y280407D01*
X82736Y280401D01*
X81563D01*
X81617Y280407D01*
X81666Y280425D01*
X81709Y280455D01*
X81746Y280497D01*
X81778Y280551D01*
X81804Y280617D01*
X81824Y280695D01*
X81838Y280784D01*
X81847Y280886D01*
X81850Y281000D01*
X82450D01*
X82452Y280886D01*
D02*
G37*
G36*
X37772Y288889D02*
Y288696D01*
X37742Y288623D01*
X37744Y288619D01*
X37743Y288615D01*
X37759Y288015D01*
X37784Y287959D01*
Y282538D01*
X34455Y279208D01*
X34278Y278944D01*
X34216Y278631D01*
X34216Y278631D01*
Y277940D01*
X34190Y277883D01*
X34188Y277783D01*
X34188Y277781D01*
X33547D01*
Y276944D01*
X33545Y276944D01*
X33445Y276941D01*
X33388Y276916D01*
X32612D01*
X32555Y276941D01*
X32458Y276944D01*
X32453Y276944D01*
Y277781D01*
X29484D01*
Y274419D01*
X30235D01*
X30386Y273919D01*
X30323Y273877D01*
X30323Y273877D01*
X29223Y272777D01*
X29046Y272512D01*
X29040Y272481D01*
X28332D01*
Y270800D01*
Y269119D01*
X28465D01*
X28531Y269056D01*
X28718Y268619D01*
X28646Y268512D01*
X28584Y268200D01*
X28584Y268200D01*
Y255000D01*
X28584Y255000D01*
X28646Y254688D01*
X28823Y254423D01*
X29725Y253522D01*
X29533Y253060D01*
X27968D01*
Y251800D01*
X29531D01*
Y251300D01*
X30031D01*
Y249540D01*
X30823D01*
X30852Y249397D01*
X31029Y249132D01*
X31637Y248523D01*
X31637Y248523D01*
X31902Y248346D01*
X32214Y248284D01*
X35159D01*
Y238700D01*
X35317Y238317D01*
X35700Y238159D01*
X56900D01*
X57171Y238271D01*
X57441Y238159D01*
X65300D01*
X65683Y238317D01*
X65683Y238317D01*
X74083Y246717D01*
X74241Y247100D01*
X74241Y247100D01*
Y249735D01*
X79200D01*
Y252499D01*
X80200D01*
Y249735D01*
X85326D01*
Y238313D01*
X84696D01*
X84694Y238312D01*
X84668Y238316D01*
X83819Y238204D01*
X83026Y237876D01*
X82346Y237354D01*
X81824Y236674D01*
X81496Y235882D01*
X81384Y235032D01*
X81496Y234182D01*
X81824Y233390D01*
X81970Y233200D01*
X82162Y232950D01*
X82162Y62227D01*
X82185Y62049D01*
X82011Y59842D01*
X81453Y57516D01*
X80538Y55306D01*
X79472Y53567D01*
X79413Y53503D01*
X46116Y5950D01*
X46109Y5954D01*
X45748Y5483D01*
X45040Y4941D01*
X44216Y4599D01*
X43332Y4483D01*
X42448Y4599D01*
X41624Y4941D01*
X40916Y5483D01*
X40555Y5954D01*
X40548Y5950D01*
X26006Y26717D01*
X26237Y27161D01*
X54343D01*
X54922Y27276D01*
X55413Y27604D01*
X55741Y28095D01*
X55856Y28674D01*
Y41426D01*
X55741Y42005D01*
X55413Y42496D01*
X54922Y42824D01*
X54343Y42939D01*
X26123D01*
Y52664D01*
X72201D01*
X72780Y52779D01*
X73271Y53107D01*
X73599Y53598D01*
X73714Y54177D01*
Y66929D01*
X73599Y67508D01*
X73271Y67999D01*
X72780Y68327D01*
X72201Y68442D01*
X15927D01*
Y78167D01*
X73469D01*
X74048Y78283D01*
X74539Y78611D01*
X74867Y79102D01*
X74982Y79681D01*
Y92432D01*
X74867Y93012D01*
X74539Y93503D01*
X74048Y93831D01*
X73469Y93946D01*
X15927D01*
Y103671D01*
X73469D01*
X74048Y103786D01*
X74539Y104114D01*
X74867Y104605D01*
X74982Y105184D01*
Y117936D01*
X74867Y118515D01*
X74539Y119006D01*
X74048Y119334D01*
X73469Y119449D01*
X15927D01*
Y129174D01*
X73469D01*
X74048Y129289D01*
X74539Y129618D01*
X74867Y130108D01*
X74982Y130688D01*
Y143439D01*
X74867Y144018D01*
X74539Y144509D01*
X74048Y144837D01*
X73469Y144953D01*
X15927D01*
Y154678D01*
X73469D01*
X74048Y154793D01*
X74539Y155121D01*
X74867Y155612D01*
X74982Y156191D01*
Y168943D01*
X74867Y169522D01*
X74539Y170013D01*
X74048Y170341D01*
X73469Y170456D01*
X15927D01*
Y180181D01*
X73469D01*
X74048Y180296D01*
X74539Y180624D01*
X74867Y181115D01*
X74982Y181694D01*
Y194446D01*
X74867Y195025D01*
X74539Y195516D01*
X74048Y195844D01*
X73469Y195959D01*
X15927D01*
Y205684D01*
X73469D01*
X74048Y205800D01*
X74539Y206128D01*
X74867Y206618D01*
X74982Y207198D01*
Y219949D01*
X74867Y220529D01*
X74539Y221019D01*
X74048Y221347D01*
X73469Y221463D01*
X15927D01*
Y232700D01*
Y233400D01*
Y233829D01*
X15811Y234408D01*
X15484Y234899D01*
X14992Y235227D01*
X14413Y235343D01*
X13834Y235227D01*
X13343Y234899D01*
X13015Y234408D01*
X12917Y234427D01*
X12895Y234439D01*
X12880Y234434D01*
X12842Y234441D01*
X9752D01*
Y239476D01*
X8718D01*
X8718Y239478D01*
X8715Y239578D01*
X8690Y239635D01*
Y244771D01*
X8705Y244794D01*
X9152Y244984D01*
X13093D01*
Y242460D01*
X18030D01*
Y244984D01*
X19060D01*
X19117Y244959D01*
X19217Y244956D01*
X19219Y244956D01*
Y244147D01*
X22581D01*
Y247116D01*
X19219D01*
Y246644D01*
X19217Y246644D01*
X19117Y246641D01*
X19060Y246616D01*
X18030D01*
Y249169D01*
X13818D01*
X13502Y249498D01*
X13702Y249941D01*
X18030D01*
Y250581D01*
X18035Y250581D01*
X18132Y250584D01*
X18189Y250609D01*
X18706D01*
X18890Y250425D01*
X18911Y250368D01*
X19134Y250129D01*
X19201Y250047D01*
X19215Y250027D01*
X19204Y250011D01*
X19211Y249965D01*
X19191Y249922D01*
X19219Y249840D01*
Y248084D01*
X22581D01*
Y251053D01*
X20920D01*
X20899Y251068D01*
X20807Y251053D01*
X20671D01*
X20632Y251075D01*
X20578Y251112D01*
X20404Y251258D01*
X20303Y251355D01*
X20244Y251378D01*
X19620Y252002D01*
X19356Y252179D01*
X19044Y252241D01*
X19044Y252241D01*
X18189D01*
X18132Y252266D01*
X18035Y252269D01*
X18030Y252269D01*
Y252909D01*
X16844D01*
X16844Y252911D01*
X16841Y253011D01*
X16816Y253068D01*
Y255068D01*
X16840Y255120D01*
X16844Y255190D01*
X16851Y255234D01*
X16864Y255283D01*
X16884Y255336D01*
X16912Y255396D01*
X16949Y255461D01*
X16997Y255532D01*
X17055Y255607D01*
X17125Y255687D01*
X17215Y255779D01*
X17228Y255812D01*
X17584Y256344D01*
X17714Y257000D01*
X17584Y257656D01*
X17212Y258212D01*
X16656Y258584D01*
X16000Y258714D01*
X15344Y258584D01*
X14788Y258212D01*
X14416Y257656D01*
X14286Y257000D01*
X14416Y256344D01*
X14772Y255812D01*
X14785Y255779D01*
X14875Y255687D01*
X14945Y255607D01*
X15003Y255532D01*
X15051Y255461D01*
X15088Y255396D01*
X15116Y255336D01*
X15136Y255283D01*
X15149Y255234D01*
X15156Y255190D01*
X15160Y255120D01*
X15184Y255068D01*
Y253397D01*
X14750Y252909D01*
X13220D01*
X13093Y252909D01*
X12720Y253215D01*
Y263518D01*
X12922Y263721D01*
X13391D01*
X13440Y263699D01*
X13616Y263695D01*
X13754Y263685D01*
X13864Y263669D01*
X13940Y263652D01*
Y263305D01*
X14379D01*
X14449Y263276D01*
X14483Y263290D01*
X14519Y263281D01*
X14563Y263305D01*
X16837D01*
X16881Y263281D01*
X16917Y263290D01*
X16951Y263276D01*
X17020Y263305D01*
X17460D01*
Y263652D01*
X17527Y263667D01*
X17792Y263695D01*
X17960Y263699D01*
X18009Y263721D01*
X18368D01*
X18416Y263699D01*
X18592Y263695D01*
X18727Y263683D01*
X18832Y263665D01*
X18906Y263646D01*
X18918Y263641D01*
Y263181D01*
X18918Y263059D01*
Y262681D01*
X18918Y262559D01*
Y261500D01*
X21387D01*
X23855D01*
Y262559D01*
X23855Y262681D01*
Y263059D01*
X23855Y263181D01*
Y266421D01*
X18918D01*
Y265839D01*
X18906Y265834D01*
X18832Y265815D01*
X18727Y265797D01*
X18592Y265786D01*
X18416Y265781D01*
X18368Y265760D01*
X18010D01*
X17962Y265781D01*
X17787Y265786D01*
X17652Y265797D01*
X17547Y265815D01*
X17473Y265834D01*
X17460Y265840D01*
Y266431D01*
X13940D01*
X13720Y266840D01*
Y267862D01*
X14182Y268053D01*
X15017Y267217D01*
X15400Y267059D01*
X15400Y267059D01*
X23200Y267059D01*
X23200Y267059D01*
X23583Y267217D01*
X23583Y267217D01*
X24951Y268586D01*
X24992Y268685D01*
X25069Y268761D01*
Y268869D01*
X25110Y268969D01*
X25071Y269062D01*
X25108Y269179D01*
X25416Y269529D01*
X25480Y269581D01*
X25559Y269597D01*
X25700Y269690D01*
X25731Y269737D01*
X25783Y269758D01*
X25843Y269903D01*
X25847Y269910D01*
X26347Y269763D01*
X26347Y269763D01*
Y269119D01*
X27332D01*
Y270800D01*
Y272481D01*
X26347D01*
X25941Y272708D01*
Y273000D01*
X25783Y273383D01*
X25783Y273383D01*
X25568Y273598D01*
X25475Y273636D01*
X25406Y273709D01*
X24981Y273899D01*
X24866Y273903D01*
X24760Y273947D01*
Y274468D01*
X23000D01*
Y274969D01*
X22500D01*
Y276532D01*
X21240D01*
X21036Y276947D01*
Y280413D01*
X21424Y280684D01*
X21995D01*
X22137Y280336D01*
X22170Y280184D01*
X21816Y279656D01*
X21686Y279000D01*
X21816Y278344D01*
X22188Y277788D01*
X22744Y277416D01*
X23400Y277286D01*
X24056Y277416D01*
X24612Y277788D01*
X24984Y278344D01*
X25109Y278972D01*
X25122Y279004D01*
X25124Y279133D01*
X25131Y279239D01*
X25143Y279333D01*
X25159Y279417D01*
X25179Y279489D01*
X25201Y279551D01*
X25216Y279584D01*
X29600D01*
X29600Y279584D01*
X29912Y279646D01*
X30177Y279823D01*
X30494Y280140D01*
X33956D01*
X33956Y280140D01*
X34268Y280202D01*
X34532Y280379D01*
X36777Y282623D01*
X36777Y282623D01*
X36954Y282888D01*
X37016Y283200D01*
X37016Y283200D01*
Y288876D01*
X37295Y289099D01*
X37772Y288889D01*
D02*
G37*
G36*
X38179Y279228D02*
X38171Y279242D01*
X38156Y279254D01*
X38135Y279265D01*
X38107Y279274D01*
X38072Y279282D01*
X38031Y279289D01*
X37929Y279297D01*
X37800Y279300D01*
Y279900D01*
X37868Y279901D01*
X38031Y279911D01*
X38072Y279918D01*
X38107Y279926D01*
X38135Y279935D01*
X38156Y279946D01*
X38171Y279958D01*
X38179Y279972D01*
Y279228D01*
D02*
G37*
G36*
X24921Y280097D02*
X24855Y280023D01*
X24796Y279942D01*
X24745Y279853D01*
X24700Y279756D01*
X24662Y279652D01*
X24632Y279539D01*
X24609Y279419D01*
X24592Y279291D01*
X24583Y279155D01*
X24581Y279012D01*
X23412Y280181D01*
X23555Y280183D01*
X23691Y280192D01*
X23819Y280208D01*
X23939Y280232D01*
X24052Y280262D01*
X24156Y280300D01*
X24253Y280345D01*
X24342Y280396D01*
X24423Y280455D01*
X24497Y280521D01*
X24921Y280097D01*
D02*
G37*
G36*
X41118Y284772D02*
X41776D01*
X41914Y284471D01*
X41961Y284272D01*
X41616Y283756D01*
X41486Y283100D01*
X41616Y282444D01*
X41988Y281888D01*
X42544Y281516D01*
X43200Y281386D01*
X43856Y281516D01*
X44412Y281888D01*
X44784Y282444D01*
X44864Y282846D01*
X44883Y282849D01*
X44957Y282856D01*
X45066Y282859D01*
X45114Y282880D01*
X45175D01*
X45194Y282878D01*
X45197Y282880D01*
X48057D01*
X48116Y282868D01*
X48118Y282870D01*
X48122Y282869D01*
X48138Y282880D01*
X48278D01*
X51406Y279752D01*
Y275601D01*
X51384Y275552D01*
X51380Y275377D01*
X51368Y275242D01*
X51350Y275136D01*
X51331Y275062D01*
X51326Y275050D01*
X50508D01*
Y271841D01*
X49941D01*
Y273200D01*
X49783Y273583D01*
X49783Y273583D01*
X48375Y274991D01*
X48275Y275032D01*
X48199Y275108D01*
X48092D01*
X47992Y275149D01*
X47957Y275135D01*
X47809Y275108D01*
X47785D01*
X47766Y275100D01*
X47492Y275050D01*
X47492Y275050D01*
X43657D01*
Y274652D01*
X43498Y274470D01*
X43241Y274303D01*
X43116Y274266D01*
X42986Y274269D01*
X42925Y274210D01*
X42844Y274187D01*
X42561Y273960D01*
X42546Y273932D01*
X42517Y273920D01*
X42448Y273754D01*
X42362Y273597D01*
X42371Y273567D01*
X42359Y273538D01*
Y269737D01*
X41859Y269423D01*
X41400Y269514D01*
X40744Y269384D01*
X40502Y269222D01*
X40437Y269209D01*
X40403Y269205D01*
X40358Y269207D01*
X40302Y269216D01*
X40236Y269239D01*
X40106Y269317D01*
X39947Y269451D01*
X39944Y269489D01*
X39941Y269593D01*
X39920Y269641D01*
Y273869D01*
X39941Y273917D01*
X39946Y274092D01*
X39957Y274226D01*
X39975Y274332D01*
X39994Y274405D01*
X40000Y274419D01*
X40453D01*
Y277781D01*
X40453D01*
X40352Y278281D01*
X40512Y278388D01*
X40884Y278944D01*
X41014Y279600D01*
X40884Y280256D01*
X40512Y280812D01*
X39956Y281184D01*
X39529Y281269D01*
X39467Y281331D01*
X39287Y281770D01*
X39287Y281788D01*
X39354Y281888D01*
X39416Y282200D01*
X39416Y282200D01*
Y287959D01*
X39441Y288016D01*
X39444Y288115D01*
X39444Y288118D01*
X41118D01*
Y284772D01*
D02*
G37*
G36*
X66746Y278827D02*
X66849Y278737D01*
X66951Y278658D01*
X67053Y278590D01*
X67154Y278532D01*
X67254Y278484D01*
X67354Y278447D01*
X67453Y278421D01*
X67553Y278405D01*
X67651Y278400D01*
Y277800D01*
X67553Y277795D01*
X67453Y277779D01*
X67354Y277753D01*
X67254Y277716D01*
X67154Y277668D01*
X67053Y277610D01*
X66951Y277542D01*
X66849Y277463D01*
X66746Y277373D01*
X66644Y277273D01*
Y277706D01*
X66611Y277725D01*
X66544Y277752D01*
X66464Y277773D01*
X66373Y277788D01*
X66268Y277797D01*
X66152Y277800D01*
Y278400D01*
X66268Y278403D01*
X66373Y278412D01*
X66464Y278427D01*
X66544Y278448D01*
X66611Y278475D01*
X66644Y278494D01*
Y278927D01*
X66746Y278827D01*
D02*
G37*
G36*
X35335Y277753D02*
X35344Y277649D01*
X35359Y277557D01*
X35379Y277477D01*
X35407Y277410D01*
X35440Y277355D01*
X35478Y277312D01*
X35524Y277282D01*
X35574Y277263D01*
X35631Y277257D01*
X34431D01*
X34488Y277263D01*
X34539Y277282D01*
X34585Y277312D01*
X34624Y277355D01*
X34657Y277410D01*
X34683Y277477D01*
X34705Y277557D01*
X34719Y277649D01*
X34729Y277753D01*
X34732Y277869D01*
X35331D01*
X35335Y277753D01*
D02*
G37*
G36*
X57764Y276969D02*
X57754Y277063D01*
X57724Y277149D01*
X57673Y277223D01*
X57602Y277289D01*
X57511Y277344D01*
X57400Y277389D01*
X57268Y277424D01*
X57117Y277449D01*
X56944Y277464D01*
X56752Y277468D01*
Y278468D01*
X56944Y278473D01*
X57117Y278488D01*
X57268Y278514D01*
X57400Y278549D01*
X57511Y278593D01*
X57602Y278648D01*
X57673Y278713D01*
X57724Y278788D01*
X57754Y278873D01*
X57764Y278969D01*
Y276969D01*
D02*
G37*
G36*
X34071Y275500D02*
X34065Y275557D01*
X34047Y275608D01*
X34016Y275653D01*
X33973Y275692D01*
X33918Y275725D01*
X33851Y275752D01*
X33771Y275773D01*
X33680Y275788D01*
X33575Y275797D01*
X33459Y275800D01*
Y276400D01*
X33575Y276403D01*
X33680Y276412D01*
X33771Y276427D01*
X33851Y276448D01*
X33918Y276475D01*
X33973Y276508D01*
X34016Y276547D01*
X34047Y276592D01*
X34065Y276643D01*
X34071Y276700D01*
Y275500D01*
D02*
G37*
G36*
X31947Y276643D02*
X31965Y276592D01*
X31995Y276547D01*
X32037Y276508D01*
X32091Y276475D01*
X32157Y276448D01*
X32235Y276427D01*
X32325Y276412D01*
X32427Y276403D01*
X32541Y276400D01*
Y275800D01*
X32427Y275797D01*
X32325Y275788D01*
X32235Y275773D01*
X32157Y275752D01*
X32091Y275725D01*
X32037Y275692D01*
X31995Y275653D01*
X31965Y275608D01*
X31947Y275557D01*
X31941Y275500D01*
Y276700D01*
X31947Y276643D01*
D02*
G37*
G36*
X52930Y275346D02*
X52945Y275174D01*
X52970Y275022D01*
X53005Y274891D01*
X53050Y274779D01*
X53105Y274688D01*
X53170Y274618D01*
X53245Y274567D01*
X53330Y274536D01*
X53425Y274526D01*
X51425D01*
X51520Y274536D01*
X51605Y274567D01*
X51680Y274618D01*
X51745Y274688D01*
X51800Y274779D01*
X51845Y274891D01*
X51880Y275022D01*
X51905Y275174D01*
X51920Y275346D01*
X51925Y275538D01*
X52925D01*
X52930Y275346D01*
D02*
G37*
G36*
X81543Y274931D02*
X81492Y274913D01*
X81447Y274882D01*
X81408Y274839D01*
X81375Y274784D01*
X81348Y274717D01*
X81327Y274638D01*
X81312Y274546D01*
X81303Y274442D01*
X81300Y274325D01*
X80700D01*
X80697Y274442D01*
X80688Y274546D01*
X80673Y274638D01*
X80652Y274717D01*
X80625Y274784D01*
X80592Y274839D01*
X80553Y274882D01*
X80508Y274913D01*
X80457Y274931D01*
X80400Y274937D01*
X81600D01*
X81543Y274931D01*
D02*
G37*
G36*
X39805Y274932D02*
X39720Y274901D01*
X39645Y274851D01*
X39580Y274780D01*
X39525Y274688D01*
X39480Y274577D01*
X39445Y274446D01*
X39420Y274294D01*
X39405Y274123D01*
X39400Y273931D01*
X38400D01*
X38396Y274121D01*
X38364Y274441D01*
X38335Y274571D01*
X38299Y274681D01*
X38255Y274771D01*
X38202Y274841D01*
X38142Y274891D01*
X38073Y274921D01*
X37996Y274931D01*
X39900Y274943D01*
X39805Y274932D01*
D02*
G37*
G36*
X49400Y273200D02*
Y271200D01*
X49500Y271300D01*
X50508D01*
Y270350D01*
X54343D01*
Y271300D01*
X56364D01*
X56744Y271010D01*
Y269239D01*
X60000D01*
Y268239D01*
X56744D01*
Y267941D01*
X52300D01*
X51917Y267783D01*
X51759Y267400D01*
Y266693D01*
X51754Y266195D01*
X51297Y266195D01*
X51163D01*
Y264317D01*
X50163D01*
Y266195D01*
X50092D01*
X49775Y266582D01*
X49818Y266800D01*
X49688Y267456D01*
X49316Y268012D01*
X48760Y268384D01*
X48104Y268514D01*
X47448Y268384D01*
X46892Y268012D01*
X46521Y267456D01*
X46390Y266800D01*
X46521Y266144D01*
X46867Y265627D01*
X46880Y265589D01*
X46925Y265541D01*
X46949Y265509D01*
X46971Y265473D01*
X46992Y265432D01*
X47011Y265384D01*
X47014Y265376D01*
Y262439D01*
Y258148D01*
Y254605D01*
X47594D01*
X47606Y254595D01*
X47649Y254600D01*
X47686Y254579D01*
X47776Y254605D01*
X47850D01*
X47869Y254593D01*
X47924Y254555D01*
X48103Y254404D01*
X48184Y254325D01*
Y253581D01*
X47532D01*
Y251900D01*
X46532D01*
Y253581D01*
X45547D01*
Y253581D01*
X45053D01*
Y253581D01*
X42084D01*
Y250219D01*
X41710Y249916D01*
X41490D01*
X41116Y250219D01*
X41116Y250416D01*
Y251400D01*
X39632D01*
X38147D01*
Y250416D01*
X38147Y250219D01*
X37773Y249916D01*
X35032D01*
Y250800D01*
X33468D01*
Y251300D01*
X32969D01*
Y253060D01*
X32364D01*
X32354Y253112D01*
X32177Y253377D01*
X30475Y255079D01*
X30682Y255579D01*
X31713D01*
Y257260D01*
X32213D01*
Y257760D01*
X34682D01*
Y258941D01*
X34682D01*
Y259319D01*
X34682D01*
Y260500D01*
X32213D01*
Y261500D01*
X34682D01*
Y262681D01*
X35153Y262750D01*
X37744D01*
Y262467D01*
X44256D01*
Y267010D01*
X43450D01*
X43056Y267510D01*
X43114Y267800D01*
X42984Y268456D01*
X42900Y268581D01*
Y273538D01*
X43183Y273764D01*
X43657Y273556D01*
Y273200D01*
X45575D01*
X47492D01*
Y274401D01*
X47992Y274608D01*
X49400Y273200D01*
D02*
G37*
G36*
X37880Y273120D02*
Y269641D01*
X37859Y269593D01*
X37856Y269489D01*
X37849Y269408D01*
X37838Y269336D01*
X37824Y269272D01*
X37807Y269216D01*
X37788Y269168D01*
X37767Y269127D01*
X37745Y269091D01*
X37721Y269059D01*
X37676Y269011D01*
X37662Y268973D01*
X37316Y268456D01*
X37186Y267800D01*
X37316Y267144D01*
X37662Y266627D01*
X37676Y266589D01*
X37721Y266541D01*
X37728Y266531D01*
X37715Y266498D01*
X37744Y266428D01*
Y263291D01*
X35153D01*
X34948Y263380D01*
X34682Y263610D01*
Y266421D01*
X33692D01*
X33387Y266921D01*
X33483Y267400D01*
X33352Y268056D01*
X32996Y268588D01*
X32983Y268621D01*
X33073Y268949D01*
X33201Y269117D01*
X33204Y269119D01*
X33253D01*
Y272481D01*
X33751Y272484D01*
X36200D01*
X36200Y272484D01*
X36512Y272546D01*
X36777Y272723D01*
X37380Y273327D01*
X37880Y273120D01*
D02*
G37*
G36*
X81303Y272332D02*
X81312Y272228D01*
X81327Y272136D01*
X81348Y272056D01*
X81375Y271989D01*
X81408Y271934D01*
X81447Y271891D01*
X81492Y271860D01*
X81543Y271842D01*
X81600Y271836D01*
X80400D01*
X80457Y271842D01*
X80508Y271860D01*
X80553Y271891D01*
X80592Y271934D01*
X80625Y271989D01*
X80652Y272056D01*
X80673Y272136D01*
X80688Y272228D01*
X80697Y272332D01*
X80700Y272448D01*
X81300D01*
X81303Y272332D01*
D02*
G37*
G36*
X14633Y280894D02*
X14564Y280413D01*
X14564D01*
Y278642D01*
X17800D01*
Y278142D01*
X18300D01*
Y275870D01*
X21036D01*
X21240Y275455D01*
Y273406D01*
X24760D01*
X24760Y273406D01*
Y273406D01*
X25185Y273215D01*
X25400Y273000D01*
Y270141D01*
X25260Y270047D01*
X24760Y270316D01*
Y270532D01*
X23500D01*
Y269468D01*
X24361D01*
X24568Y268969D01*
X23200Y267600D01*
X15400Y267600D01*
X13720Y269280D01*
Y281200D01*
X14376D01*
X14633Y280894D01*
D02*
G37*
G36*
X39403Y269459D02*
X39413Y269344D01*
X39429Y269236D01*
X39452Y269134D01*
X39482Y269037D01*
X39518Y268947D01*
X39560Y268862D01*
X39609Y268783D01*
X39665Y268710D01*
X39727Y268643D01*
X38073D01*
X38135Y268710D01*
X38191Y268783D01*
X38240Y268862D01*
X38282Y268947D01*
X38318Y269037D01*
X38348Y269134D01*
X38371Y269236D01*
X38387Y269344D01*
X38397Y269459D01*
X38400Y269579D01*
X39400D01*
X39403Y269459D01*
D02*
G37*
G36*
X40556Y268303D02*
X40559Y268303D01*
X40679Y268300D01*
Y267300D01*
X40559Y267297D01*
X40556Y267297D01*
Y266973D01*
X40490Y267035D01*
X40417Y267091D01*
X40338Y267140D01*
X40253Y267182D01*
X40163Y267218D01*
X40150Y267222D01*
X40137Y267218D01*
X40047Y267182D01*
X39962Y267140D01*
X39883Y267091D01*
X39810Y267035D01*
X39744Y266973D01*
Y267297D01*
X39741Y267297D01*
X39621Y267300D01*
Y268300D01*
X39741Y268303D01*
X39744Y268303D01*
Y268627D01*
X39810Y268565D01*
X39883Y268509D01*
X39962Y268460D01*
X40047Y268418D01*
X40137Y268382D01*
X40150Y268378D01*
X40163Y268382D01*
X40253Y268418D01*
X40338Y268460D01*
X40417Y268509D01*
X40490Y268565D01*
X40556Y268627D01*
Y268303D01*
D02*
G37*
G36*
X32311Y269637D02*
X32261Y269618D01*
X32215Y269588D01*
X32177Y269545D01*
X32144Y269490D01*
X32116Y269423D01*
X32096Y269343D01*
X32081Y269251D01*
X32073Y269165D01*
X32074Y269152D01*
X32090Y269054D01*
X32116Y268954D01*
X32153Y268854D01*
X32200Y268754D01*
X32258Y268653D01*
X32327Y268551D01*
X32406Y268449D01*
X32495Y268347D01*
X32595Y268244D01*
X30942D01*
X31042Y268347D01*
X31131Y268449D01*
X31210Y268551D01*
X31279Y268653D01*
X31337Y268754D01*
X31384Y268854D01*
X31421Y268954D01*
X31447Y269054D01*
X31463Y269152D01*
X31464Y269165D01*
X31457Y269251D01*
X31442Y269343D01*
X31420Y269423D01*
X31394Y269490D01*
X31361Y269545D01*
X31321Y269588D01*
X31277Y269618D01*
X31225Y269637D01*
X31168Y269643D01*
X32368D01*
X32311Y269637D01*
D02*
G37*
G36*
X73400Y261800D02*
X63256D01*
Y263333D01*
X56744D01*
Y261800D01*
X54313D01*
Y262439D01*
X54313D01*
Y263817D01*
X53222D01*
Y264317D01*
X52722D01*
Y266195D01*
X52300D01*
Y267400D01*
X56744D01*
Y266467D01*
X63256D01*
Y267400D01*
X73400D01*
Y261800D01*
D02*
G37*
G36*
X41905Y267308D02*
X41920Y267138D01*
X41945Y266988D01*
X41954Y266956D01*
X42227D01*
X42165Y266890D01*
X42109Y266817D01*
X42060Y266738D01*
X42047Y266712D01*
X42080Y266658D01*
X42145Y266588D01*
X42220Y266538D01*
X42305Y266508D01*
X42400Y266498D01*
X41962D01*
X41952Y266466D01*
X41929Y266364D01*
X41913Y266255D01*
X41903Y266141D01*
X41900Y266021D01*
X40900D01*
X40897Y266141D01*
X40887Y266255D01*
X40871Y266364D01*
X40848Y266466D01*
X40838Y266498D01*
X40400D01*
X40495Y266508D01*
X40580Y266538D01*
X40655Y266588D01*
X40720Y266658D01*
X40753Y266712D01*
X40740Y266738D01*
X40691Y266817D01*
X40635Y266890D01*
X40573Y266956D01*
X40846D01*
X40855Y266988D01*
X40880Y267138D01*
X40895Y267308D01*
X40900Y267498D01*
X41900D01*
X41905Y267308D01*
D02*
G37*
G36*
X39405D02*
X39420Y267138D01*
X39445Y266988D01*
X39454Y266956D01*
X39727D01*
X39665Y266890D01*
X39609Y266817D01*
X39560Y266738D01*
X39547Y266712D01*
X39580Y266658D01*
X39645Y266588D01*
X39720Y266538D01*
X39805Y266508D01*
X39900Y266498D01*
X39462D01*
X39452Y266466D01*
X39429Y266364D01*
X39413Y266255D01*
X39403Y266141D01*
X39400Y266021D01*
X38400D01*
X38397Y266141D01*
X38387Y266255D01*
X38371Y266364D01*
X38348Y266466D01*
X38338Y266498D01*
X38256D01*
X38283Y266508D01*
X38308Y266538D01*
X38318Y266562D01*
X38318Y266563D01*
X38282Y266653D01*
X38240Y266738D01*
X38191Y266817D01*
X38135Y266890D01*
X38073Y266956D01*
X38383D01*
X38394Y267138D01*
X38400Y267498D01*
X39400D01*
X39405Y267308D01*
D02*
G37*
G36*
X32495Y266454D02*
X32406Y266351D01*
X32327Y266249D01*
X32258Y266147D01*
X32200Y266047D01*
X32176Y265996D01*
X32177Y265995D01*
X32215Y265952D01*
X32261Y265922D01*
X32311Y265903D01*
X32368Y265897D01*
X32135D01*
X32116Y265846D01*
X32090Y265746D01*
X32074Y265648D01*
X32068Y265549D01*
X31468D01*
X31463Y265648D01*
X31447Y265746D01*
X31421Y265846D01*
X31402Y265897D01*
X31168D01*
X31225Y265903D01*
X31277Y265922D01*
X31321Y265952D01*
X31361Y265995D01*
X31361Y265996D01*
X31337Y266047D01*
X31279Y266147D01*
X31210Y266249D01*
X31131Y266351D01*
X31042Y266454D01*
X30942Y266557D01*
X32595D01*
X32495Y266454D01*
D02*
G37*
G36*
X48605Y266267D02*
X48623Y265956D01*
X48931D01*
X48869Y265890D01*
X48813Y265817D01*
X48764Y265738D01*
X48722Y265653D01*
X48686Y265563D01*
X48656Y265466D01*
X48634Y265364D01*
X48617Y265255D01*
X48608Y265141D01*
X48604Y265021D01*
X47604D01*
X47601Y265141D01*
X47591Y265255D01*
X47575Y265364D01*
X47552Y265466D01*
X47523Y265563D01*
X47487Y265653D01*
X47444Y265738D01*
X47395Y265817D01*
X47340Y265890D01*
X47278Y265956D01*
X47591D01*
X47597Y266037D01*
X47604Y266404D01*
X48604D01*
X48605Y266267D01*
D02*
G37*
G36*
X13213Y265384D02*
X13226Y265211D01*
X13234Y265153D01*
X13243Y265114D01*
X13254Y265094D01*
X12700Y264940D01*
X11493Y264440D01*
X11627Y264584D01*
X11748Y264735D01*
X11853Y264891D01*
X11945Y265053D01*
X12023Y265220D01*
X12087Y265394D01*
X12136Y265574D01*
X12172Y265759D01*
X12193Y265950D01*
X12200Y266147D01*
X13200D01*
X13213Y265384D01*
D02*
G37*
G36*
X16947Y265645D02*
X16977Y265560D01*
X17028Y265485D01*
X17099Y265420D01*
X17190Y265365D01*
X17302Y265320D01*
X17433Y265285D01*
X17584Y265260D01*
X17756Y265245D01*
X17948Y265240D01*
Y264240D01*
X17758Y264236D01*
X17438Y264202D01*
X17308Y264173D01*
X17198Y264135D01*
X17108Y264088D01*
X17038Y264033D01*
X16988Y263970D01*
X16958Y263898D01*
X16948Y263818D01*
X16936Y265740D01*
X16947Y265645D01*
D02*
G37*
G36*
X14452Y263818D02*
X14442Y263898D01*
X14412Y263970D01*
X14362Y264033D01*
X14292Y264088D01*
X14202Y264135D01*
X14092Y264173D01*
X13962Y264202D01*
X13812Y264223D01*
X13642Y264236D01*
X13452Y264240D01*
Y265240D01*
X13644Y265245D01*
X13815Y265260D01*
X13967Y265285D01*
X14098Y265320D01*
X14210Y265365D01*
X14301Y265420D01*
X14372Y265485D01*
X14423Y265560D01*
X14454Y265645D01*
X14464Y265740D01*
X14452Y263818D01*
D02*
G37*
G36*
X19442Y263740D02*
X19432Y263835D01*
X19402Y263920D01*
X19351Y263995D01*
X19280Y264060D01*
X19189Y264115D01*
X19078Y264160D01*
X18946Y264195D01*
X18794Y264220D01*
X18622Y264235D01*
X18430Y264240D01*
Y265240D01*
X18622Y265245D01*
X18794Y265260D01*
X18946Y265285D01*
X19078Y265320D01*
X19189Y265365D01*
X19280Y265420D01*
X19351Y265485D01*
X19402Y265560D01*
X19432Y265645D01*
X19442Y265740D01*
Y263740D01*
D02*
G37*
G36*
X80200Y262137D02*
X82960D01*
X82955Y262165D01*
X82920Y262297D01*
X82875Y262408D01*
X82820Y262499D01*
X82755Y262570D01*
X82680Y262620D01*
X82595Y262651D01*
X82500Y262661D01*
X84500D01*
X84405Y262651D01*
X84320Y262620D01*
X84245Y262570D01*
X84180Y262499D01*
X84125Y262408D01*
X84080Y262297D01*
X84045Y262165D01*
X84040Y262137D01*
X85326D01*
X85326Y255263D01*
X73688D01*
Y249735D01*
X73700D01*
Y247100D01*
X65300Y238700D01*
X57441D01*
Y249000D01*
X63256D01*
Y258790D01*
Y261259D01*
X73400D01*
X73783Y261417D01*
X73941Y261800D01*
Y262137D01*
X75460D01*
X75455Y262165D01*
X75420Y262297D01*
X75375Y262408D01*
X75320Y262499D01*
X75255Y262570D01*
X75180Y262620D01*
X75095Y262651D01*
X75000Y262661D01*
X77000D01*
X76905Y262651D01*
X76820Y262620D01*
X76745Y262570D01*
X76680Y262499D01*
X76625Y262408D01*
X76580Y262297D01*
X76545Y262165D01*
X76540Y262137D01*
X79200D01*
Y264901D01*
X80200D01*
Y262137D01*
D02*
G37*
G36*
X16727Y256053D02*
X16637Y255951D01*
X16558Y255849D01*
X16490Y255748D01*
X16432Y255646D01*
X16384Y255546D01*
X16347Y255446D01*
X16321Y255346D01*
X16305Y255247D01*
X16300Y255149D01*
X15700D01*
X15695Y255247D01*
X15679Y255346D01*
X15653Y255446D01*
X15616Y255546D01*
X15568Y255646D01*
X15510Y255748D01*
X15442Y255849D01*
X15363Y255951D01*
X15273Y256053D01*
X15173Y256156D01*
X16827D01*
X16727Y256053D01*
D02*
G37*
G36*
X48646Y255810D02*
X48627Y255760D01*
X48625Y255700D01*
X48641Y255631D01*
X48674Y255552D01*
X48726Y255464D01*
X48794Y255367D01*
X48881Y255260D01*
X49107Y255017D01*
X48583Y254693D01*
X48466Y254805D01*
X48254Y254984D01*
X48160Y255050D01*
X48073Y255101D01*
X47993Y255135D01*
X47921Y255154D01*
X47857Y255157D01*
X47799Y255145D01*
X47750Y255117D01*
X48683Y255851D01*
X48646Y255810D01*
D02*
G37*
G36*
X51189Y255111D02*
X51142Y255093D01*
X51100Y255063D01*
X51064Y255021D01*
X51033Y254967D01*
X51008Y254901D01*
X50988Y254823D01*
X50974Y254733D01*
X50966Y254631D01*
X50963Y254517D01*
X50363D01*
X50361Y254631D01*
X50352Y254733D01*
X50338Y254823D01*
X50319Y254901D01*
X50294Y254967D01*
X50263Y255021D01*
X50227Y255063D01*
X50185Y255093D01*
X50138Y255111D01*
X50085Y255117D01*
X51242D01*
X51189Y255111D01*
D02*
G37*
G36*
X50966Y253553D02*
X50975Y253449D01*
X50990Y253357D01*
X51011Y253277D01*
X51038Y253210D01*
X51071Y253155D01*
X51110Y253112D01*
X51155Y253082D01*
X51206Y253063D01*
X51263Y253057D01*
X50063D01*
X50120Y253063D01*
X50171Y253082D01*
X50216Y253112D01*
X50255Y253155D01*
X50288Y253210D01*
X50315Y253277D01*
X50336Y253357D01*
X50351Y253449D01*
X50360Y253553D01*
X50363Y253669D01*
X50963D01*
X50966Y253553D01*
D02*
G37*
G36*
X16303Y252881D02*
X16312Y252777D01*
X16327Y252685D01*
X16348Y252606D01*
X16375Y252538D01*
X16408Y252483D01*
X16447Y252440D01*
X16492Y252410D01*
X16543Y252391D01*
X16600Y252385D01*
X15400D01*
X15457Y252391D01*
X15508Y252410D01*
X15553Y252440D01*
X15592Y252483D01*
X15625Y252538D01*
X15652Y252606D01*
X15673Y252685D01*
X15688Y252777D01*
X15697Y252881D01*
X15700Y252997D01*
X16300D01*
X16303Y252881D01*
D02*
G37*
G36*
X53571Y251300D02*
X53565Y251357D01*
X53547Y251408D01*
X53516Y251453D01*
X53473Y251492D01*
X53418Y251525D01*
X53351Y251552D01*
X53271Y251573D01*
X53180Y251588D01*
X53075Y251597D01*
X52959Y251600D01*
Y252200D01*
X53075Y252203D01*
X53180Y252212D01*
X53271Y252227D01*
X53351Y252248D01*
X53418Y252275D01*
X53473Y252308D01*
X53516Y252347D01*
X53547Y252392D01*
X53565Y252443D01*
X53571Y252500D01*
Y251300D01*
D02*
G37*
G36*
X51947Y252443D02*
X51965Y252392D01*
X51995Y252347D01*
X52037Y252308D01*
X52091Y252275D01*
X52157Y252248D01*
X52235Y252227D01*
X52325Y252212D01*
X52427Y252203D01*
X52541Y252200D01*
Y251600D01*
X52427Y251597D01*
X52325Y251588D01*
X52235Y251573D01*
X52157Y251552D01*
X52091Y251525D01*
X52037Y251492D01*
X51995Y251453D01*
X51965Y251408D01*
X51947Y251357D01*
X51941Y251300D01*
Y252500D01*
X51947Y252443D01*
D02*
G37*
G36*
X17524Y251968D02*
X17542Y251917D01*
X17572Y251872D01*
X17614Y251833D01*
X17668Y251800D01*
X17734Y251773D01*
X17812Y251752D01*
X17902Y251737D01*
X18004Y251728D01*
X18118Y251725D01*
Y251125D01*
X18004Y251122D01*
X17902Y251113D01*
X17812Y251098D01*
X17734Y251077D01*
X17668Y251050D01*
X17614Y251017D01*
X17572Y250978D01*
X17542Y250933D01*
X17524Y250882D01*
X17518Y250825D01*
Y252025D01*
X17524Y251968D01*
D02*
G37*
G36*
X6894Y252074D02*
X6914Y251982D01*
X6945Y251887D01*
X6990Y251787D01*
X7047Y251683D01*
X7117Y251575D01*
X7200Y251463D01*
X7403Y251225D01*
X7524Y251100D01*
X7312Y250464D01*
X7232Y250540D01*
X7159Y250599D01*
X7096Y250642D01*
X7041Y250667D01*
X6994Y250676D01*
X6956Y250667D01*
X6926Y250642D01*
X6905Y250599D01*
X6892Y250540D01*
X6888Y250464D01*
Y252161D01*
X6894Y252074D01*
D02*
G37*
G36*
X56744Y258790D02*
X59500D01*
Y261061D01*
X60500D01*
Y258790D01*
X62715D01*
Y249541D01*
X57441D01*
X57171Y249429D01*
X56900Y249541D01*
X49946D01*
X49816Y249700D01*
X49816Y249700D01*
Y250219D01*
X52453D01*
Y250432D01*
X52750Y250604D01*
X53047Y250432D01*
Y250219D01*
X56016D01*
Y253581D01*
X53047D01*
Y253368D01*
X52750Y253196D01*
X52453Y253368D01*
Y253581D01*
X51507D01*
X51507Y253583D01*
X51504Y253683D01*
X51479Y253740D01*
Y254219D01*
X51754Y254605D01*
X52132D01*
Y254605D01*
X52722D01*
Y256483D01*
X53222D01*
Y256983D01*
X54313D01*
Y258361D01*
X54313D01*
Y259900D01*
X50663D01*
Y260900D01*
X54313D01*
Y261259D01*
X56744D01*
Y258790D01*
D02*
G37*
G36*
X44111Y250737D02*
X44061Y250718D01*
X44015Y250688D01*
X43977Y250645D01*
X43944Y250590D01*
X43916Y250523D01*
X43896Y250443D01*
X43881Y250351D01*
X43872Y250247D01*
X43868Y250131D01*
X43268D01*
X43266Y250247D01*
X43257Y250351D01*
X43242Y250443D01*
X43220Y250523D01*
X43194Y250590D01*
X43161Y250645D01*
X43121Y250688D01*
X43077Y250718D01*
X43025Y250737D01*
X42968Y250743D01*
X44168D01*
X44111Y250737D01*
D02*
G37*
G36*
X20042Y250855D02*
X20251Y250680D01*
X20345Y250615D01*
X20434Y250565D01*
X20515Y250530D01*
X20590Y250511D01*
X20659Y250506D01*
X20721Y250516D01*
X20776Y250541D01*
X19731Y249889D01*
X19774Y249927D01*
X19798Y249975D01*
X19803Y250034D01*
X19789Y250103D01*
X19756Y250183D01*
X19704Y250273D01*
X19633Y250373D01*
X19543Y250484D01*
X19307Y250738D01*
X19928Y250965D01*
X20042Y250855D01*
D02*
G37*
G36*
X56900Y238700D02*
X35700D01*
Y248284D01*
X43500D01*
X43500Y248284D01*
X43500Y248284D01*
X48400D01*
X48400Y248284D01*
X48712Y248346D01*
X48977Y248523D01*
X49453Y249000D01*
X56900D01*
Y238700D01*
D02*
G37*
G36*
X13004Y249104D02*
X13418Y248745D01*
X13476Y248707D01*
X13527Y248679D01*
X13570Y248662D01*
X13605Y248657D01*
Y246712D01*
X13594Y246794D01*
X13563Y246890D01*
X13510Y246999D01*
X13435Y247123D01*
X13340Y247259D01*
X13085Y247574D01*
X12746Y247943D01*
X12544Y248149D01*
X12898Y249209D01*
X13004Y249104D01*
D02*
G37*
G36*
X19743Y245200D02*
X19737Y245257D01*
X19718Y245308D01*
X19688Y245353D01*
X19645Y245392D01*
X19590Y245425D01*
X19523Y245452D01*
X19443Y245473D01*
X19351Y245488D01*
X19247Y245497D01*
X19131Y245500D01*
Y246100D01*
X19247Y246103D01*
X19351Y246112D01*
X19443Y246127D01*
X19523Y246148D01*
X19590Y246175D01*
X19645Y246208D01*
X19688Y246247D01*
X19718Y246292D01*
X19737Y246343D01*
X19743Y246400D01*
Y245200D01*
D02*
G37*
G36*
X8180Y246586D02*
X8198Y246484D01*
X8228Y246394D01*
X8270Y246316D01*
X8324Y246250D01*
X8390Y246196D01*
X8468Y246154D01*
X8558Y246124D01*
X8660Y246106D01*
X8774Y246100D01*
Y245500D01*
X8660Y245494D01*
X8558Y245476D01*
X8468Y245446D01*
X8390Y245404D01*
X8324Y245350D01*
X8270Y245284D01*
X8228Y245206D01*
X8198Y245116D01*
X8180Y245014D01*
X8174Y244900D01*
X7574Y245800D01*
X8174Y246700D01*
X8180Y246586D01*
D02*
G37*
G36*
X8177Y239448D02*
X8186Y239344D01*
X8201Y239252D01*
X8222Y239173D01*
X8249Y239105D01*
X8282Y239050D01*
X8321Y239007D01*
X8366Y238977D01*
X8417Y238959D01*
X8474Y238952D01*
X7274D01*
X7331Y238959D01*
X7382Y238977D01*
X7427Y239007D01*
X7466Y239050D01*
X7499Y239105D01*
X7526Y239173D01*
X7547Y239252D01*
X7562Y239344D01*
X7571Y239448D01*
X7574Y239564D01*
X8174D01*
X8177Y239448D01*
D02*
G37*
G36*
X8374Y232965D02*
X9752D01*
Y233900D01*
X12842D01*
X12900Y233829D01*
Y219949D01*
X13015Y219370D01*
X13343Y218879D01*
X13834Y218551D01*
X14413Y218436D01*
X71955D01*
Y208711D01*
X14413D01*
X13834Y208596D01*
X13343Y208268D01*
X13015Y207777D01*
X12900Y207198D01*
Y194446D01*
X13015Y193867D01*
X13343Y193376D01*
X13834Y193048D01*
X14413Y192933D01*
X71955D01*
Y183208D01*
X14413D01*
X13834Y183092D01*
X13343Y182764D01*
X13015Y182273D01*
X12900Y181694D01*
Y168943D01*
X13015Y168363D01*
X13343Y167873D01*
X13834Y167544D01*
X14413Y167429D01*
X71955D01*
Y157704D01*
X14413D01*
X13834Y157589D01*
X13343Y157261D01*
X13015Y156770D01*
X12900Y156191D01*
Y143439D01*
X13015Y142860D01*
X13343Y142369D01*
X13834Y142041D01*
X14413Y141926D01*
X71955D01*
Y132201D01*
X14413D01*
X13834Y132086D01*
X13343Y131758D01*
X13015Y131267D01*
X12900Y130688D01*
Y117936D01*
X13015Y117357D01*
X13343Y116866D01*
X13834Y116538D01*
X14413Y116422D01*
X71955D01*
Y106697D01*
X14413D01*
X13834Y106582D01*
X13343Y106254D01*
X13015Y105763D01*
X12900Y105184D01*
Y92432D01*
X13015Y91853D01*
X13343Y91362D01*
X13834Y91034D01*
X14413Y90919D01*
X71955D01*
Y81194D01*
X14413D01*
X13834Y81079D01*
X13343Y80751D01*
X13015Y80260D01*
X12900Y79681D01*
Y66929D01*
X13015Y66350D01*
X13343Y65859D01*
X13834Y65531D01*
X14413Y65416D01*
X70687D01*
Y55691D01*
X24610D01*
X24031Y55576D01*
X23540Y55247D01*
X23212Y54757D01*
X23097Y54177D01*
Y41426D01*
X23212Y40847D01*
X23540Y40356D01*
X24031Y40028D01*
X24610Y39912D01*
X52830D01*
Y30187D01*
X23576D01*
X7251Y53503D01*
X7192Y53567D01*
X6127Y55306D01*
X5211Y57516D01*
X4653Y59842D01*
X4478Y62059D01*
X4500Y62227D01*
X4500Y232942D01*
X4844Y233390D01*
X5055Y233900D01*
X5996D01*
Y232965D01*
X7374D01*
Y236221D01*
X8374D01*
Y232965D01*
D02*
G37*
%LPC*%
G36*
X67792Y337750D02*
X66375D01*
Y335900D01*
X67792D01*
Y337750D01*
D02*
G37*
G36*
X65375D02*
X63958D01*
Y335900D01*
X65375D01*
Y337750D01*
D02*
G37*
G36*
X67792Y334900D02*
X66375D01*
Y333050D01*
X67792D01*
Y334900D01*
D02*
G37*
G36*
X65375D02*
X63958D01*
Y333050D01*
X65375D01*
Y334900D01*
D02*
G37*
G36*
X80460Y333026D02*
X76940D01*
Y330483D01*
X76911Y330412D01*
X76920Y330391D01*
X76940Y329900D01*
D01*
X77058Y329400D01*
X77019Y329153D01*
X77004Y328763D01*
X77014Y328700D01*
X76990Y328641D01*
X77019Y328570D01*
Y326184D01*
X78473D01*
X78700Y326139D01*
X78927Y326184D01*
X80381D01*
Y328570D01*
X80410Y328641D01*
X80386Y328700D01*
X80396Y328763D01*
X80381Y329153D01*
X80382Y329421D01*
X80460Y329900D01*
X80480Y330391D01*
X80489Y330412D01*
X80460Y330483D01*
Y333026D01*
D02*
G37*
G36*
X33053Y319130D02*
X32357Y318434D01*
X33192Y317599D01*
X33888Y318295D01*
X33053Y319130D01*
D02*
G37*
G36*
X45695Y317460D02*
X44631D01*
Y316200D01*
X45695D01*
Y317460D01*
D02*
G37*
G36*
X43632D02*
X42568D01*
Y316200D01*
X43632D01*
Y317460D01*
D02*
G37*
G36*
X31650Y317727D02*
X30954Y317031D01*
X31789Y316196D01*
X32485Y316892D01*
X31650Y317727D01*
D02*
G37*
G36*
X34595Y317588D02*
X33899Y316892D01*
X34734Y316057D01*
X35430Y316753D01*
X34595Y317588D01*
D02*
G37*
G36*
X73532Y317260D02*
X72469D01*
Y316000D01*
X73532D01*
Y317260D01*
D02*
G37*
G36*
X71469D02*
X70406D01*
Y316000D01*
X71469D01*
Y317260D01*
D02*
G37*
G36*
X33192Y316185D02*
X32496Y315489D01*
X33331Y314654D01*
X34027Y315350D01*
X33192Y316185D01*
D02*
G37*
G36*
X45695Y315200D02*
X44631D01*
Y313940D01*
X45695D01*
Y315200D01*
D02*
G37*
G36*
X43632D02*
X42568D01*
Y313940D01*
X43632D01*
Y315200D01*
D02*
G37*
G36*
X73532Y315000D02*
X72469D01*
Y313740D01*
X73532D01*
Y315000D01*
D02*
G37*
G36*
X71469D02*
X70406D01*
Y313740D01*
X71469D01*
Y315000D01*
D02*
G37*
G36*
X75760Y310531D02*
X74500D01*
Y309469D01*
X75760D01*
Y310531D01*
D02*
G37*
G36*
X73500D02*
X72240D01*
Y309469D01*
X73500D01*
Y310531D01*
D02*
G37*
G36*
X75760Y308469D02*
X74500D01*
Y307405D01*
X75760D01*
Y308469D01*
D02*
G37*
G36*
X73500D02*
X72240D01*
Y307405D01*
X73500D01*
Y308469D01*
D02*
G37*
G36*
X82563Y295760D02*
X81500D01*
Y294500D01*
X82563D01*
Y295760D01*
D02*
G37*
G36*
X80500D02*
X79437D01*
Y294500D01*
X80500D01*
Y295760D01*
D02*
G37*
G36*
X82563Y293500D02*
X81500D01*
Y292240D01*
X82563D01*
Y293500D01*
D02*
G37*
G36*
X80500D02*
X79437D01*
Y292240D01*
X80500D01*
Y293500D01*
D02*
G37*
G36*
X67961Y288221D02*
X67469D01*
Y287335D01*
X67961D01*
Y288221D01*
D02*
G37*
G36*
X81650Y289587D02*
X79386D01*
Y286831D01*
X81650D01*
Y289587D01*
D02*
G37*
%LPD*%
G36*
X79701Y330412D02*
X79948D01*
X79901Y330392D01*
X79859Y330332D01*
X79821Y330232D01*
X79789Y330092D01*
X79762Y329912D01*
X79742Y329674D01*
X79808Y328721D01*
X79837Y328661D01*
X79869Y328641D01*
X79705D01*
X79700Y328412D01*
X77700D01*
X77698Y328641D01*
X77531D01*
X77563Y328661D01*
X77592Y328721D01*
X77617Y328821D01*
X77639Y328961D01*
X77658Y329141D01*
X77664Y329288D01*
X77611Y330092D01*
X77579Y330232D01*
X77541Y330332D01*
X77499Y330392D01*
X77452Y330412D01*
X77698D01*
X77700Y330641D01*
X79700D01*
X79701Y330412D01*
D02*
G37*
%LPC*%
G36*
X4932Y319836D02*
Y319453D01*
X5314D01*
X5161Y319682D01*
X4932Y319836D01*
D02*
G37*
G36*
X29594Y301800D02*
X28532D01*
Y301779D01*
X28535Y301659D01*
X28545Y301544D01*
X28561Y301436D01*
X28584Y301334D01*
X28613Y301237D01*
X28649Y301147D01*
X28691Y301064D01*
X29032D01*
X28936Y301054D01*
X28852Y301024D01*
X28776Y300973D01*
X28761Y300956D01*
X28796Y300910D01*
X28858Y300844D01*
X28574Y300553D01*
X28572Y300540D01*
X29594D01*
Y301800D01*
D02*
G37*
G36*
X27531D02*
X26469D01*
Y300540D01*
X27491D01*
X27489Y300553D01*
X27205Y300844D01*
X27267Y300910D01*
X27302Y300956D01*
X27286Y300973D01*
X27211Y301024D01*
X27127Y301054D01*
X27031Y301064D01*
X27372D01*
X27414Y301147D01*
X27450Y301237D01*
X27479Y301334D01*
X27502Y301436D01*
X27518Y301544D01*
X27528Y301659D01*
X27531Y301779D01*
D01*
Y301800D01*
D02*
G37*
G36*
X29594Y299560D02*
X28572D01*
X28576Y299532D01*
X28609Y299411D01*
X28858Y299156D01*
X28810Y299104D01*
X28852Y299076D01*
X28936Y299046D01*
X29032Y299036D01*
X28755D01*
X28741Y299017D01*
X28692Y298938D01*
X28649Y298853D01*
X28613Y298763D01*
X28584Y298666D01*
X28561Y298564D01*
X28545Y298456D01*
X28535Y298341D01*
X28534Y298300D01*
X29594D01*
Y299560D01*
D02*
G37*
G36*
X27491D02*
X26469D01*
Y298300D01*
X27529D01*
X27528Y298341D01*
X27518Y298456D01*
X27502Y298564D01*
X27479Y298666D01*
X27450Y298763D01*
X27414Y298853D01*
X27371Y298938D01*
X27322Y299017D01*
X27308Y299036D01*
X27031D01*
X27127Y299046D01*
X27211Y299076D01*
X27253Y299104D01*
X27205Y299156D01*
X27455Y299411D01*
X27487Y299532D01*
X27491Y299560D01*
D02*
G37*
G36*
X11394Y301532D02*
X10853D01*
Y300990D01*
X11394D01*
Y301532D01*
D02*
G37*
G36*
X20968Y310260D02*
X19906D01*
Y309000D01*
X20968D01*
Y310260D01*
D02*
G37*
G36*
Y308000D02*
X19906D01*
Y306740D01*
X20968D01*
Y308000D01*
D02*
G37*
G36*
X23031Y305760D02*
X21969D01*
Y304500D01*
X23031D01*
Y305760D01*
D02*
G37*
G36*
X20968D02*
X19906D01*
Y304500D01*
X20968D01*
Y305760D01*
D02*
G37*
G36*
X23031Y303500D02*
X21969D01*
Y302240D01*
X23031D01*
Y303500D01*
D02*
G37*
G36*
X20968D02*
X19906D01*
Y302240D01*
X20968D01*
Y303500D01*
D02*
G37*
G36*
Y301260D02*
X19906D01*
Y300000D01*
X20968D01*
Y301260D01*
D02*
G37*
G36*
X3947Y301532D02*
X3406D01*
Y300990D01*
X3947D01*
Y301532D01*
D02*
G37*
G36*
X7417Y273500D02*
X5500D01*
Y271583D01*
X5963Y271675D01*
X6780Y272220D01*
X7325Y273037D01*
X7417Y273500D01*
D02*
G37*
G36*
X4500D02*
X2583D01*
X2675Y273037D01*
X3220Y272220D01*
X4037Y271675D01*
X4500Y271583D01*
Y273500D01*
D02*
G37*
G36*
X7468Y266469D02*
X2531D01*
Y261531D01*
X3446D01*
X3597Y261032D01*
X3220Y260780D01*
X2675Y259963D01*
X2483Y259000D01*
X2675Y258037D01*
X3220Y257220D01*
X4037Y256675D01*
X5000Y256483D01*
X5963Y256675D01*
X6780Y257220D01*
X7325Y258037D01*
X7517Y259000D01*
X7325Y259963D01*
X6780Y260780D01*
X6403Y261032D01*
X6555Y261531D01*
X7468D01*
Y266469D01*
D02*
G37*
G36*
X4431Y249169D02*
X2463D01*
Y248185D01*
X4431D01*
Y249169D01*
D02*
G37*
G36*
Y247185D02*
X2463D01*
Y246200D01*
X4431D01*
Y247185D01*
D02*
G37*
G36*
X29594Y288000D02*
X28532D01*
Y286740D01*
X29594D01*
Y288000D01*
D02*
G37*
G36*
X27531D02*
X26469D01*
Y286740D01*
X27531D01*
Y288000D01*
D02*
G37*
G36*
X78614Y280925D02*
X76350D01*
Y278169D01*
X78614D01*
Y280925D01*
D02*
G37*
G36*
X75350D02*
X73087D01*
Y278169D01*
X75350D01*
Y280925D01*
D02*
G37*
G36*
X69760Y275594D02*
X68500D01*
Y274532D01*
X69760D01*
Y275594D01*
D02*
G37*
G36*
X65260D02*
X64000D01*
Y274532D01*
X65260D01*
Y275594D01*
D02*
G37*
G36*
X60760D02*
X59500D01*
Y274532D01*
X60760D01*
Y275594D01*
D02*
G37*
G36*
X67500D02*
X66240D01*
Y274532D01*
X67500D01*
Y275594D01*
D02*
G37*
G36*
X63000D02*
X61740D01*
Y274532D01*
X63000D01*
Y275594D01*
D02*
G37*
G36*
X58500D02*
X57240D01*
Y274532D01*
X58500D01*
Y275594D01*
D02*
G37*
G36*
X78614Y277169D02*
X76350D01*
Y274413D01*
X78614D01*
Y277169D01*
D02*
G37*
G36*
X75350D02*
X73087D01*
Y274413D01*
X75350D01*
Y277169D01*
D02*
G37*
G36*
X69760Y273532D02*
X68500D01*
Y272468D01*
X69760D01*
Y273532D01*
D02*
G37*
G36*
X67500D02*
X66240D01*
Y272468D01*
X67500D01*
Y273532D01*
D02*
G37*
G36*
X65260D02*
X64000D01*
Y272468D01*
X65260D01*
Y273532D01*
D02*
G37*
G36*
X63000D02*
X61740D01*
Y272468D01*
X63000D01*
Y273532D01*
D02*
G37*
G36*
X60760D02*
X59500D01*
Y272468D01*
X60760D01*
Y273532D01*
D02*
G37*
G36*
X58500D02*
X57240D01*
Y272468D01*
X58500D01*
Y273532D01*
D02*
G37*
G36*
X78594Y272360D02*
X77531D01*
Y271100D01*
X78594D01*
Y272360D01*
D02*
G37*
G36*
X76531D02*
X75468D01*
Y271100D01*
X76531D01*
Y272360D01*
D02*
G37*
G36*
X78594Y270100D02*
X77531D01*
Y268840D01*
X78594D01*
Y270100D01*
D02*
G37*
G36*
X76531D02*
X75468D01*
Y268840D01*
X76531D01*
Y270100D01*
D02*
G37*
G36*
X28516Y277781D02*
X27531D01*
Y276600D01*
X28516D01*
Y277781D01*
D02*
G37*
G36*
X26531D02*
X25547D01*
Y276600D01*
X26531D01*
Y277781D01*
D02*
G37*
G36*
X23500Y276532D02*
Y275468D01*
X24760D01*
Y276532D01*
X23500D01*
D02*
G37*
G36*
X28516Y275600D02*
X27531D01*
Y274419D01*
X28516D01*
Y275600D01*
D02*
G37*
G36*
X26531D02*
X25547D01*
Y274419D01*
X26531D01*
Y275600D01*
D02*
G37*
G36*
X17460Y262494D02*
X16200D01*
Y261432D01*
X17460D01*
Y262494D01*
D02*
G37*
G36*
X15200D02*
X13940D01*
Y261432D01*
X15200D01*
Y262494D01*
D02*
G37*
G36*
X17460Y260432D02*
X16200D01*
Y259368D01*
X17460D01*
Y260432D01*
D02*
G37*
G36*
X15200D02*
X13940D01*
Y259368D01*
X15200D01*
Y260432D01*
D02*
G37*
G36*
X23855Y260500D02*
X21387D01*
X18918D01*
Y259441D01*
X18918Y259319D01*
Y258941D01*
X18918Y258819D01*
Y255579D01*
X23855D01*
Y258819D01*
X23855Y258941D01*
Y259319D01*
X23855Y259441D01*
Y260500D01*
D02*
G37*
G36*
X29032Y250800D02*
X27968D01*
Y249540D01*
X29032D01*
Y250800D01*
D02*
G37*
G36*
X80618Y239476D02*
X79240D01*
Y236720D01*
X80618D01*
Y239476D01*
D02*
G37*
G36*
X78240D02*
X76862D01*
Y236720D01*
X78240D01*
Y239476D01*
D02*
G37*
G36*
X80618Y235720D02*
X79240D01*
Y232965D01*
X80618D01*
Y233200D01*
Y235720D01*
D02*
G37*
G36*
X78240D02*
X76862D01*
Y233900D01*
D01*
Y232965D01*
X78240D01*
Y235720D01*
D02*
G37*
G36*
X47492Y272200D02*
X46075D01*
Y270350D01*
X47492D01*
Y272200D01*
D02*
G37*
G36*
X45075D02*
X43657D01*
Y270350D01*
X45075D01*
Y272200D01*
D02*
G37*
G36*
X42700Y260814D02*
X42044Y260684D01*
X41488Y260312D01*
X41228Y259923D01*
X41208Y259915D01*
X40692D01*
X40672Y259923D01*
X40412Y260312D01*
X39856Y260684D01*
X39200Y260814D01*
X38544Y260684D01*
X37988Y260312D01*
X37616Y259756D01*
X37486Y259100D01*
X37616Y258444D01*
X37744Y258253D01*
Y254790D01*
X44256D01*
Y258403D01*
X44284Y258444D01*
X44414Y259100D01*
X44284Y259756D01*
X43912Y260312D01*
X43356Y260684D01*
X42700Y260814D01*
D02*
G37*
G36*
X34682Y256760D02*
X32713D01*
Y255579D01*
X34682D01*
Y256760D01*
D02*
G37*
G36*
X41116Y253581D02*
X40132D01*
Y252400D01*
X41116D01*
Y253581D01*
D02*
G37*
G36*
X39132D02*
X38147D01*
Y252400D01*
X39132D01*
Y253581D01*
D02*
G37*
G36*
X35032Y253060D02*
X33968D01*
Y251800D01*
X35032D01*
Y253060D01*
D02*
G37*
G36*
X17300Y277642D02*
X14564D01*
Y275870D01*
X16459D01*
X16455Y275892D01*
X16420Y276022D01*
X16375Y276132D01*
X16320Y276222D01*
X16255Y276292D01*
X16180Y276342D01*
X16095Y276372D01*
X16000Y276382D01*
X17300D01*
Y277642D01*
D02*
G37*
G36*
X24760Y272594D02*
X23500D01*
Y271532D01*
X24760D01*
Y272594D01*
D02*
G37*
G36*
X22500D02*
X21240D01*
Y271572D01*
X21268Y271576D01*
X21400Y271611D01*
X21511Y271656D01*
X21602Y271711D01*
X21673Y271777D01*
X21724Y271851D01*
X21754Y271936D01*
X21764Y272031D01*
Y271532D01*
X22500D01*
Y272594D01*
D02*
G37*
G36*
Y270532D02*
X21764D01*
Y270031D01*
X21754Y270127D01*
X21724Y270212D01*
X21673Y270286D01*
X21602Y270352D01*
X21511Y270407D01*
X21400Y270451D01*
X21268Y270486D01*
X21240Y270491D01*
Y269468D01*
X22500D01*
Y270532D01*
D02*
G37*
G36*
X72347Y266728D02*
X69000D01*
Y265350D01*
X72347D01*
Y266728D01*
D02*
G37*
G36*
X68000D02*
X64653D01*
Y265350D01*
X68000D01*
Y266728D01*
D02*
G37*
G36*
X54313Y266195D02*
X53722D01*
Y264817D01*
X54313D01*
Y266195D01*
D02*
G37*
G36*
X72347Y264350D02*
X69000D01*
Y262972D01*
X72347D01*
Y264350D01*
D02*
G37*
G36*
X68000D02*
X64653D01*
Y262972D01*
X68000D01*
Y264350D01*
D02*
G37*
G36*
X72347Y260428D02*
X69000D01*
Y259050D01*
X72347D01*
Y260428D01*
D02*
G37*
G36*
X68000D02*
X64653D01*
Y259050D01*
X68000D01*
Y260428D01*
D02*
G37*
G36*
X72347Y258050D02*
X69000D01*
Y256672D01*
X72347D01*
Y258050D01*
D02*
G37*
G36*
X68000D02*
X64653D01*
Y256672D01*
X68000D01*
Y258050D01*
D02*
G37*
G36*
X62124Y248288D02*
X60943D01*
Y247500D01*
X62124D01*
Y248288D01*
D02*
G37*
G36*
X59943D02*
X58762D01*
Y247500D01*
X59943D01*
Y248288D01*
D02*
G37*
G36*
X62124Y246500D02*
X60943D01*
Y245713D01*
X62124D01*
Y246500D01*
D02*
G37*
G36*
X59943D02*
X58762D01*
Y245713D01*
X59943D01*
Y246500D01*
D02*
G37*
G36*
X54313Y255983D02*
X53722D01*
Y254605D01*
X54313D01*
Y255983D01*
D02*
G37*
G36*
X59953Y253581D02*
X58969D01*
Y252400D01*
X59953D01*
Y253581D01*
D02*
G37*
G36*
X57968D02*
X56984D01*
Y252400D01*
X57968D01*
Y253581D01*
D02*
G37*
G36*
X59953Y251400D02*
X58969D01*
Y250219D01*
X59953D01*
Y251400D01*
D02*
G37*
G36*
X57968D02*
X56984D01*
Y250219D01*
X57968D01*
Y251400D01*
D02*
G37*
G36*
X55038Y248287D02*
X53857D01*
Y247500D01*
X55038D01*
Y248287D01*
D02*
G37*
G36*
X52857D02*
X51676D01*
Y247500D01*
X52857D01*
Y248287D01*
D02*
G37*
G36*
X55038Y246500D02*
X53857D01*
Y245713D01*
X55038D01*
Y246500D01*
D02*
G37*
G36*
X52857D02*
X51676D01*
Y245713D01*
X52857D01*
Y246500D01*
D02*
G37*
%LPD*%
D14*
X4447Y305968D02*
X5232D01*
X7200Y304000D02*
X10353D01*
X5232Y305968D02*
X7200Y304000D01*
X29869Y290600D02*
X31969Y288500D01*
X24900Y290600D02*
X29869D01*
X14100Y288200D02*
X14600Y288700D01*
X14100Y282700D02*
Y288200D01*
Y282700D02*
X15300Y281500D01*
X14600Y288700D02*
X17200D01*
X6775Y251425D02*
X7874Y250326D01*
X4932Y251425D02*
X6775D01*
X7874Y245800D02*
Y250326D01*
X49984Y305350D02*
Y312116D01*
X48068Y314032D02*
X49984Y312116D01*
X48068Y314032D02*
Y315700D01*
X31300Y312200D02*
X39400D01*
X29650Y313850D02*
X31300Y312200D01*
X14769Y323200D02*
X21500Y316469D01*
X3800Y323200D02*
X14769D01*
X2800Y322200D02*
X3800Y323200D01*
X18400Y325100D02*
X29650Y313850D01*
X6100Y325100D02*
X18400D01*
X4101Y327099D02*
X6100Y325100D01*
X27400Y313000D02*
X30200Y310200D01*
X46000D01*
X48000Y308200D01*
Y305366D02*
Y308200D01*
X46047Y305350D02*
Y307500D01*
X27500Y310000D02*
X28400Y309100D01*
X44447D01*
X46047Y307500D01*
X4101Y336300D02*
Y337400D01*
Y327099D02*
Y336300D01*
X49000Y249700D02*
Y254700D01*
X48400Y249100D02*
X49000Y249700D01*
X43500Y249100D02*
X48400D01*
X43500D02*
X43569Y249168D01*
Y251900D01*
X29400Y268200D02*
X29800Y268600D01*
X29400Y255000D02*
Y268200D01*
X31769Y265185D02*
Y267400D01*
X32380D01*
X31769D02*
Y270800D01*
Y265185D02*
X32213Y264740D01*
X29400Y255000D02*
X31600Y252800D01*
X32214Y249100D02*
X43500D01*
X48104Y255596D02*
X49000Y254700D01*
X48104Y255596D02*
Y256483D01*
X31605Y249709D02*
X32214Y249100D01*
X31600Y250500D02*
Y252800D01*
Y250500D02*
X31605Y250495D01*
Y249709D02*
Y250495D01*
X55600Y318400D02*
X58300Y315700D01*
Y312700D02*
Y315700D01*
Y312700D02*
X61000Y310000D01*
X55600Y318400D02*
Y319100D01*
X62400Y301000D02*
Y310400D01*
X59500Y313300D02*
X62400Y310400D01*
X59500Y313300D02*
Y317400D01*
X55890Y305350D02*
Y307500D01*
X57490Y309100D02*
X58900D01*
X55890Y307500D02*
X57490Y309100D01*
X36200Y289279D02*
X38000Y291079D01*
X36200Y283200D02*
Y289279D01*
X33956Y280956D02*
X36200Y283200D01*
X30156Y280956D02*
X33956D01*
X24800Y280400D02*
X29600D01*
X30156Y280956D01*
X15300Y281500D02*
X29000D01*
X33500Y282056D02*
X35000Y283556D01*
X29000Y281500D02*
X29556Y282056D01*
X33500D01*
X23400Y279000D02*
X24800Y280400D01*
X2800Y313000D02*
Y322200D01*
X6416Y307002D02*
X7000Y307586D01*
Y313047D02*
X8369D01*
X7000D02*
Y319600D01*
Y307586D02*
Y313047D01*
Y319600D02*
X8000Y320600D01*
X15300D01*
X17500Y318400D01*
X2800Y313000D02*
X4384D01*
X17500Y316469D02*
Y318400D01*
X75850Y284750D02*
Y286331D01*
X75100Y284000D02*
X75850Y284750D01*
X54700Y284000D02*
X75100D01*
X73255Y282775D02*
X78446D01*
X73230Y282800D02*
X73255Y282775D01*
X53700Y282800D02*
X73230D01*
X62300Y281600D02*
X63500Y280400D01*
X53000Y281600D02*
X62300D01*
X7874Y236221D02*
Y245800D01*
X20731D01*
X20900Y245632D01*
X50968Y251900D02*
X54532D01*
X50663Y252205D02*
X50968Y251900D01*
X50663Y252205D02*
Y256483D01*
X37800Y279600D02*
X39300D01*
X37000Y278800D02*
X37800Y279600D01*
X37000Y274100D02*
Y278800D01*
X36200Y273300D02*
X37000Y274100D01*
X30900Y273300D02*
X36200D01*
X29800Y272200D02*
X30900Y273300D01*
X29800Y268600D02*
Y272200D01*
X15561Y251425D02*
X19044D01*
X20900Y249569D01*
Y249468D02*
Y249569D01*
X16000Y251864D02*
Y257000D01*
X17200Y288700D02*
X19500Y291000D01*
X35000Y293702D02*
X36327Y295028D01*
X35000Y283556D02*
Y293702D01*
X33900Y290431D02*
Y295900D01*
X31969Y288500D02*
X33900Y290431D01*
Y295900D02*
X36953Y298953D01*
X37980Y295016D02*
X39650D01*
X37968Y295028D02*
X37980Y295016D01*
X36327Y295028D02*
X37968D01*
X44079Y305350D02*
Y307021D01*
X43200Y307900D02*
X44079Y307021D01*
X26500Y307900D02*
X43200D01*
X25400Y309000D02*
X26500Y307900D01*
X36100Y306800D02*
X37550Y305350D01*
X26000Y306800D02*
X36100D01*
X37550Y305350D02*
X42110D01*
X24200Y308600D02*
X26000Y306800D01*
X65800Y278100D02*
X67869D01*
X68000Y277969D01*
X38600Y282200D02*
Y289110D01*
X39650D01*
X35032Y278631D02*
X38600Y282200D01*
X49984Y284616D02*
X53000Y281600D01*
X81000Y270000D02*
Y277669D01*
X82150D01*
X35032Y276100D02*
Y278631D01*
X30968Y276100D02*
X35032D01*
X61000Y301700D02*
Y310000D01*
X56139Y286400D02*
X58781D01*
X55890Y286650D02*
X56139Y286400D01*
X49984Y284616D02*
Y286650D01*
X63500Y277969D02*
Y280400D01*
X78471Y282800D02*
X79529D01*
X78446Y282775D02*
X78471Y282800D01*
X80375Y282775D02*
X82150Y281000D01*
X79554Y282775D02*
X80375D01*
X79529Y282800D02*
X79554Y282775D01*
X51953Y284547D02*
X53700Y282800D01*
X53921Y284779D02*
X54700Y284000D01*
X53921Y284779D02*
Y286650D01*
X32184Y297716D02*
X35240Y300771D01*
X2800Y304600D02*
Y313000D01*
X4384D02*
X4431Y313047D01*
X2800Y304600D02*
X3400Y304000D01*
X42110Y305350D02*
Y306190D01*
X24200Y308600D02*
Y313600D01*
X25400Y309000D02*
Y314200D01*
X23100Y316500D02*
X25400Y314200D01*
X21531Y316500D02*
X23100D01*
X19468Y314500D02*
X23300D01*
X24200Y313600D01*
X58350Y298953D02*
X58403Y298900D01*
X60300D01*
X62400Y301000D01*
X60221Y300921D02*
X61000Y301700D01*
X58350Y300921D02*
X60221D01*
X58350Y302890D02*
X58500Y303039D01*
Y305700D01*
X3400Y304000D02*
X4047D01*
X38000Y291079D02*
X39650D01*
X82150Y277669D02*
Y281000D01*
X51953Y284547D02*
Y286650D01*
X77063Y287543D02*
Y294000D01*
X75850Y286331D02*
X77063Y287543D01*
X19500Y291000D02*
Y291032D01*
X17500Y316469D02*
X19468Y314500D01*
X21500Y316469D02*
X21531Y316500D01*
X58350Y293047D02*
X58398Y293000D01*
X64500D01*
X65000Y292500D01*
Y291280D02*
Y292500D01*
X68000Y305047D02*
X73984D01*
X68000Y310953D02*
Y315469D01*
X68032Y315500D01*
X73984Y305047D02*
X74000Y305031D01*
X64000Y298000D02*
Y310000D01*
X62984Y296984D02*
X64000Y298000D01*
X58350Y296984D02*
X62984D01*
X64000Y310000D02*
X64953Y310953D01*
X66547Y305047D02*
X68000D01*
X66000Y304500D02*
X66547Y305047D01*
X66000Y298000D02*
Y304500D01*
X64953Y310953D02*
X68000D01*
X15561Y251425D02*
X16000Y251864D01*
X63016Y295016D02*
X66000Y298000D01*
X58350Y295016D02*
X63016D01*
X36953Y298953D02*
X39650D01*
X31969Y284000D02*
Y288500D01*
X48000Y305366D02*
X48016Y305350D01*
D15*
X12900Y264740D02*
X21387D01*
X11700Y263940D02*
X12700Y264940D01*
X11700Y249700D02*
Y263940D01*
Y249700D02*
X13715Y247685D01*
X12700Y264940D02*
X12900Y264740D01*
X12700Y264940D02*
Y299200D01*
X18900Y272100D02*
X19969Y271031D01*
X51953Y305350D02*
Y314333D01*
X51886Y313800D02*
Y314266D01*
X51953Y314333D01*
X31969Y302300D02*
X34000D01*
X31969Y297500D02*
X32184Y297716D01*
X5000Y295000D02*
X10000D01*
X31600Y293831D02*
X32200Y293232D01*
X41400Y265139D02*
Y267800D01*
X41000Y264739D02*
X41400Y265139D01*
X38900Y267800D02*
X41400D01*
X38900Y264739D02*
Y267800D01*
Y264739D02*
X41000D01*
X38969Y276100D02*
X39068Y276200D01*
X38900Y267800D02*
Y275431D01*
X17000Y274000D02*
Y278142D01*
X17550Y273450D02*
X18900Y272100D01*
X17000Y274000D02*
X17550Y273450D01*
X48700Y283900D02*
X52400Y280200D01*
X48016Y283900D02*
X48700D01*
X48016D02*
Y286650D01*
X44000Y283900D02*
X48016D01*
X43200Y283100D02*
X44000Y283900D01*
X52400Y280200D02*
X54000D01*
X52400D02*
X52425Y280175D01*
X26000Y268300D02*
Y268969D01*
X13800Y315016D02*
X15016D01*
X8369D02*
X13800D01*
Y317400D01*
X15016Y315016D02*
X17500Y312531D01*
X27931Y293100D02*
X28032Y293000D01*
X26500Y293100D02*
X27931D01*
X23531Y297832D02*
X24600Y298900D01*
X23531Y297826D02*
Y297832D01*
X22946Y297240D02*
X23531Y297826D01*
X22940Y297240D02*
X22946D01*
X22200Y296500D02*
X22940Y297240D01*
X24600Y298900D02*
Y303600D01*
X22200Y287358D02*
Y296500D01*
X28032Y297800D02*
Y302300D01*
X10000Y295000D02*
X10719D01*
X17531Y304000D02*
Y306500D01*
Y308500D01*
X10884Y306500D02*
X17531D01*
X10353Y305968D02*
X10884Y306500D01*
X16831Y309200D02*
X17531Y308500D01*
X10582Y309200D02*
X16831D01*
X8384Y307002D02*
X10582Y309200D01*
X17500Y312531D02*
X17531Y312500D01*
Y308500D02*
Y312500D01*
X17500Y312531D02*
X21500D01*
X83500Y259100D02*
Y265000D01*
X76000Y259100D02*
Y264901D01*
Y259100D02*
X83500D01*
X76000Y264901D02*
X79700D01*
X25200Y284000D02*
X28032D01*
X52425Y272700D02*
Y280175D01*
X38900Y275431D02*
X39268Y275800D01*
X48104Y264317D02*
Y266404D01*
X17531Y299500D02*
Y304000D01*
X12700Y299200D02*
X17232D01*
X7100D02*
X12700D01*
X13715Y247685D02*
X15561D01*
X31600Y295400D02*
Y296669D01*
X24400Y295400D02*
X31600D01*
Y293831D02*
Y295400D01*
X35200Y305300D02*
X37610Y302890D01*
X26300Y305300D02*
X35200D01*
X24600Y303600D02*
X26300Y305300D01*
X33300Y302600D02*
X33700D01*
X34000Y302300D01*
X56231Y277969D02*
X59000D01*
X54000Y280200D02*
X56231Y277969D01*
X31600Y296669D02*
X32200Y297269D01*
X31969Y297500D02*
X32200Y297269D01*
X31969Y293000D02*
X32200Y293232D01*
X6416Y299884D02*
X7100Y299200D01*
X6416Y299884D02*
Y300998D01*
X17232Y299200D02*
X17531Y299500D01*
X35090Y300921D02*
X39650D01*
X31969Y297800D02*
X35090Y300921D01*
X20700Y285858D02*
X22200Y287358D01*
X17000Y285858D02*
X20700D01*
X19969Y271031D02*
X23000D01*
X37610Y302890D02*
X39650D01*
D16*
X86639Y387820D02*
X86550Y388846D01*
X86283Y389840D01*
X85848Y390773D01*
X85258Y391616D01*
X84530Y392344D01*
X83686Y392935D01*
X82753Y393370D01*
X81759Y393636D01*
X80734Y393726D01*
X5931D02*
X4905Y393636D01*
X3911Y393370D01*
X2978Y392935D01*
X2135Y392344D01*
X1407Y391616D01*
X816Y390773D01*
X381Y389840D01*
X115Y388846D01*
X25Y387820D01*
Y62227D02*
X51Y61225D01*
X127Y60226D01*
X254Y59232D01*
X432Y58246D01*
X659Y57270D01*
X936Y56307D01*
X1262Y55360D01*
X1635Y54430D01*
X2055Y53520D01*
X2521Y52633D01*
X3031Y51771D01*
X3585Y50936D01*
X36882Y3383D02*
X37511Y2596D01*
X38236Y1897D01*
X39044Y1295D01*
X39922Y802D01*
X40855Y425D01*
X41830Y170D01*
X42829Y41D01*
X43836D01*
X44835Y170D01*
X45809Y425D01*
X46743Y802D01*
X47621Y1295D01*
X48428Y1897D01*
X49153Y2596D01*
X49782Y3383D01*
X83079Y50936D02*
X83633Y51771D01*
X84143Y52633D01*
X84609Y53520D01*
X85029Y54430D01*
X85403Y55360D01*
X85728Y56307D01*
X86005Y57270D01*
X86233Y58246D01*
X86410Y59232D01*
X86537Y60226D01*
X86614Y61225D01*
X86639Y62227D01*
X84696Y237000D02*
X83704Y236748D01*
X82973Y236032D01*
X82700Y235045D01*
X82959Y234055D01*
X83680Y233329D01*
X84668Y233063D01*
X2000D02*
X2988Y233329D01*
X3709Y234055D01*
X3968Y235045D01*
X3696Y236032D01*
X2965Y236748D01*
X1973Y237000D01*
X5931Y393726D02*
X80734D01*
X3585Y50936D02*
X36882Y3383D01*
X49782D02*
X83079Y50936D01*
X86639Y237000D02*
X86639Y387820D01*
X84668Y233063D02*
X86637D01*
X84696Y237000D02*
X86664D01*
X86637Y62227D02*
X86637Y233063D01*
X25D02*
X25Y62227D01*
X4Y237000D02*
X1973D01*
X0Y233063D02*
X1969D01*
X4Y387820D02*
X4Y237000D01*
D44*
X49000Y296000D02*
D03*
D45*
X55890Y286650D02*
D03*
X53921D02*
D03*
X51953D02*
D03*
X49984D02*
D03*
X48016D02*
D03*
X46047D02*
D03*
X44079D02*
D03*
X42110D02*
D03*
Y305350D02*
D03*
X44079D02*
D03*
X46047D02*
D03*
X48016D02*
D03*
X49984D02*
D03*
X51953D02*
D03*
X53921D02*
D03*
X55890D02*
D03*
D46*
X39650Y289110D02*
D03*
Y291079D02*
D03*
Y293047D02*
D03*
Y295016D02*
D03*
Y296984D02*
D03*
Y298953D02*
D03*
Y300921D02*
D03*
Y302890D02*
D03*
X58350D02*
D03*
Y300921D02*
D03*
Y298953D02*
D03*
Y296984D02*
D03*
Y295016D02*
D03*
Y293047D02*
D03*
Y291079D02*
D03*
Y289110D02*
D03*
D47*
X4932Y251425D02*
D03*
Y247685D02*
D03*
Y243945D02*
D03*
X15561Y251425D02*
D03*
Y247685D02*
D03*
Y243945D02*
D03*
D48*
X7874Y236221D02*
D03*
X78740D02*
D03*
D49*
Y341300D02*
D03*
X5000Y259000D02*
D03*
Y274000D02*
D03*
Y279000D02*
D03*
Y284000D02*
D03*
Y289000D02*
D03*
D50*
X8369Y313047D02*
D03*
X4431D02*
D03*
X8369Y315016D02*
D03*
X4431D02*
D03*
X8369Y316984D02*
D03*
X4431D02*
D03*
X8369Y318953D02*
D03*
X4431D02*
D03*
D51*
X66969Y288720D02*
D03*
X63032Y288720D02*
D03*
X65000D02*
D03*
Y291280D02*
D03*
X63032D02*
D03*
X66969Y291280D02*
D03*
D52*
X82150Y286331D02*
D03*
X75850D02*
D03*
X82150Y277669D02*
D03*
X75850D02*
D03*
D53*
X68000Y305047D02*
D03*
Y310953D02*
D03*
D54*
X38969Y276100D02*
D03*
X35032D02*
D03*
X30968D02*
D03*
X27031D02*
D03*
X31769Y270800D02*
D03*
X27832D02*
D03*
X28032Y284000D02*
D03*
X50968Y251900D02*
D03*
X47032D02*
D03*
X43569D02*
D03*
X39632D02*
D03*
X58469D02*
D03*
X54532D02*
D03*
D55*
X19500Y294969D02*
D03*
Y291032D02*
D03*
X15000Y291032D02*
D03*
Y294969D02*
D03*
X21500Y312531D02*
D03*
Y316469D02*
D03*
X17500Y312531D02*
D03*
Y316469D02*
D03*
X31969Y284000D02*
D03*
X20900Y245632D02*
D03*
Y249569D02*
D03*
X78700Y327668D02*
D03*
Y323731D02*
D03*
D56*
X72725Y335400D02*
D03*
X65875D02*
D03*
X45575Y272700D02*
D03*
X52425D02*
D03*
D57*
X31969Y302300D02*
D03*
X28032D02*
D03*
X48068Y315700D02*
D03*
X44131D02*
D03*
X21468Y304000D02*
D03*
X17531D02*
D03*
X21468Y299500D02*
D03*
X17531D02*
D03*
X28032Y293000D02*
D03*
X31969D02*
D03*
X28032Y297800D02*
D03*
X31969D02*
D03*
X31969Y288500D02*
D03*
X28032D02*
D03*
X77031Y270600D02*
D03*
X80968D02*
D03*
X81000Y294000D02*
D03*
X77063D02*
D03*
X17531Y308500D02*
D03*
X21468D02*
D03*
X71969Y315500D02*
D03*
X68032D02*
D03*
X29531Y251300D02*
D03*
X33468D02*
D03*
D58*
X23000Y274969D02*
D03*
Y271031D02*
D03*
X68000Y274031D02*
D03*
Y277969D02*
D03*
X63500Y274031D02*
D03*
Y277969D02*
D03*
X59000Y274031D02*
D03*
Y277969D02*
D03*
X15700Y260931D02*
D03*
Y264868D02*
D03*
X74000Y308968D02*
D03*
Y305031D02*
D03*
X78700Y335400D02*
D03*
Y331463D02*
D03*
D59*
X17800Y278142D02*
D03*
Y285858D02*
D03*
D60*
X4447Y305968D02*
D03*
X6416Y307002D02*
D03*
X8384D02*
D03*
X10353Y305968D02*
D03*
X4447Y304000D02*
D03*
X10353D02*
D03*
X4447Y302031D02*
D03*
X6416Y300998D02*
D03*
X8384D02*
D03*
X10353Y302031D02*
D03*
D61*
X79700Y264901D02*
D03*
Y252499D02*
D03*
D62*
X60000Y268739D02*
D03*
Y261061D02*
D03*
X41000Y264739D02*
D03*
Y257061D02*
D03*
D63*
X68500Y264850D02*
D03*
Y258550D02*
D03*
D64*
X50663Y260400D02*
D03*
D65*
X48104Y256483D02*
D03*
X50663D02*
D03*
X53222D02*
D03*
X48104Y264317D02*
D03*
X50663D02*
D03*
X53222D02*
D03*
D66*
X32213Y264740D02*
D03*
Y257260D02*
D03*
X21387D02*
D03*
Y261000D02*
D03*
Y264740D02*
D03*
X32213Y261000D02*
D03*
D67*
X60443Y247000D02*
D03*
X53357Y247000D02*
D03*
D68*
X30408Y314108D02*
D03*
X33192Y316892D02*
D03*
D69*
X7874Y365316D02*
Y389332D01*
X15748Y365316D02*
Y389332D01*
X23622Y365316D02*
Y389332D01*
X31496Y365316D02*
Y389332D01*
X39370Y365316D02*
Y389332D01*
X47244Y365316D02*
Y389332D01*
X55118Y365316D02*
Y389332D01*
X62992Y365316D02*
Y389332D01*
X70866Y365316D02*
Y389332D01*
X78740Y341300D02*
Y389332D01*
D70*
X37147Y293047D02*
X39650D01*
X19500Y294969D02*
X19500Y294969D01*
X15000Y294969D02*
X19500D01*
D71*
X78700Y327668D02*
Y331463D01*
Y335400D02*
Y341200D01*
X72725Y335400D02*
X78700D01*
X66992Y291280D02*
X67000Y291287D01*
Y293500D01*
X78700Y305200D01*
Y323731D01*
D72*
X58350Y291079D02*
X62831D01*
X63032Y291280D01*
X58350Y289110D02*
X62642D01*
X63032Y288720D01*
D73*
X5000Y264000D02*
D03*
Y294000D02*
D03*
D74*
X4101Y336300D02*
D03*
X16699D02*
D03*
D75*
X44669Y300331D02*
D03*
X49000D02*
D03*
X53331D02*
D03*
X44669Y296000D02*
D03*
X49000D02*
D03*
X53331D02*
D03*
X44669Y291669D02*
D03*
X49000D02*
D03*
X53331D02*
D03*
X78740Y389332D02*
D03*
X70866Y365316D02*
D03*
Y389332D02*
D03*
X62992D02*
D03*
X55118D02*
D03*
X47244D02*
D03*
X39370D02*
D03*
X31496D02*
D03*
X23622D02*
D03*
X15748D02*
D03*
X7874Y365316D02*
D03*
X15748D02*
D03*
X23622D02*
D03*
X31496D02*
D03*
X39370D02*
D03*
X47244D02*
D03*
X55118D02*
D03*
X62992D02*
D03*
X14100Y259500D02*
D03*
X3800Y240100D02*
D03*
X8800Y253700D02*
D03*
X24800Y252500D02*
D03*
X58200Y236400D02*
D03*
X43200D02*
D03*
X50200Y319400D02*
D03*
X56400Y311100D02*
D03*
X51886Y313800D02*
D03*
X39700Y334500D02*
D03*
X46900Y325689D02*
D03*
X46800Y334500D02*
D03*
X37800Y241600D02*
D03*
X43300Y244800D02*
D03*
X48800Y241600D02*
D03*
X39800Y325689D02*
D03*
X37800Y244800D02*
D03*
X43300Y241600D02*
D03*
X48800Y244800D02*
D03*
X43300Y330095D02*
D03*
X39400Y312200D02*
D03*
X27400Y313000D02*
D03*
X27500Y310000D02*
D03*
X76200Y247500D02*
D03*
X41400Y267800D02*
D03*
X38900D02*
D03*
X31769Y267400D02*
D03*
X60800Y337200D02*
D03*
X42400Y277000D02*
D03*
X49700D02*
D03*
X83800Y291600D02*
D03*
X2600Y300700D02*
D03*
X73200Y237700D02*
D03*
X28125D02*
D03*
X13100D02*
D03*
X83400Y247500D02*
D03*
X72300Y292900D02*
D03*
X82900Y306600D02*
D03*
X27000Y322800D02*
D03*
X16800Y328100D02*
D03*
X57100Y325900D02*
D03*
X71500Y323000D02*
D03*
X82900Y321600D02*
D03*
X83000Y337000D02*
D03*
X47000Y312200D02*
D03*
X26933Y337200D02*
D03*
X10000D02*
D03*
X31300Y320200D02*
D03*
X43300D02*
D03*
X63000Y314200D02*
D03*
X54900Y314700D02*
D03*
X55600Y319100D02*
D03*
X59500Y317400D02*
D03*
X46600Y281600D02*
D03*
X58900Y309100D02*
D03*
X43200Y283100D02*
D03*
X25800Y265000D02*
D03*
X33000Y278900D02*
D03*
X18600Y274500D02*
D03*
Y271800D02*
D03*
X22300Y283600D02*
D03*
X25200Y284000D02*
D03*
X5200Y321200D02*
D03*
X4900Y310900D02*
D03*
X10500Y317900D02*
D03*
X13800Y317400D02*
D03*
X28032Y300000D02*
D03*
X24900Y290600D02*
D03*
X26500Y293100D02*
D03*
X16300Y292200D02*
D03*
X24400Y295400D02*
D03*
X71700Y286200D02*
D03*
X65300Y286100D02*
D03*
X55700Y273500D02*
D03*
X71400Y269700D02*
D03*
Y280100D02*
D03*
X12900Y301600D02*
D03*
X14600Y304000D02*
D03*
X21500Y301800D02*
D03*
Y306300D02*
D03*
X55800Y257300D02*
D03*
X61100D02*
D03*
Y251800D02*
D03*
X18600Y269100D02*
D03*
X48104Y266800D02*
D03*
X68950Y251300D02*
D03*
X72100D02*
D03*
Y254600D02*
D03*
X68950D02*
D03*
X65800D02*
D03*
X48900Y260400D02*
D03*
X52400D02*
D03*
X42700Y259100D02*
D03*
X39200D02*
D03*
X39300Y279600D02*
D03*
X10000Y295000D02*
D03*
X31600Y295400D02*
D03*
X37147Y293047D02*
D03*
X33300Y302600D02*
D03*
X65800Y278100D02*
D03*
X23400Y279000D02*
D03*
X58781Y286400D02*
D03*
X58500Y305700D02*
D03*
X16000Y257000D02*
D03*
X51252Y21500D02*
D03*
X35504D02*
D03*
X51252Y34500D02*
D03*
X35504D02*
D03*
X51252Y47500D02*
D03*
X35504D02*
D03*
X66858Y226000D02*
D03*
X51110D02*
D03*
X35362D02*
D03*
X19614D02*
D03*
X19756Y201000D02*
D03*
Y188000D02*
D03*
Y175500D02*
D03*
Y162500D02*
D03*
Y150000D02*
D03*
Y137000D02*
D03*
Y124500D02*
D03*
Y111500D02*
D03*
Y98500D02*
D03*
Y86000D02*
D03*
Y73500D02*
D03*
Y60500D02*
D03*
X35504Y201000D02*
D03*
Y188000D02*
D03*
Y175500D02*
D03*
Y162500D02*
D03*
Y150000D02*
D03*
Y137000D02*
D03*
Y124500D02*
D03*
Y111500D02*
D03*
Y98500D02*
D03*
Y86000D02*
D03*
Y73500D02*
D03*
Y60500D02*
D03*
X51252Y201000D02*
D03*
Y188000D02*
D03*
Y175500D02*
D03*
Y162500D02*
D03*
Y150000D02*
D03*
Y137000D02*
D03*
Y124500D02*
D03*
Y111500D02*
D03*
Y98500D02*
D03*
Y86000D02*
D03*
Y73500D02*
D03*
Y60500D02*
D03*
X67000D02*
D03*
Y73500D02*
D03*
Y86000D02*
D03*
Y98500D02*
D03*
Y111500D02*
D03*
Y124500D02*
D03*
Y137000D02*
D03*
Y150000D02*
D03*
Y162500D02*
D03*
Y175500D02*
D03*
Y188000D02*
D03*
Y201000D02*
D03*
X19685Y213500D02*
D03*
X35433D02*
D03*
X51181D02*
D03*
X66929D02*
D03*
M02*
