G04*
G04 #@! TF.GenerationSoftware,Altium Limited,Altium Designer,19.0.15 (446)*
G04*
G04 Layer_Color=8388736*
%FSLAX25Y25*%
%MOIN*%
G70*
G01*
G75*
%ADD16C,0.00050*%
%ADD17R,0.14386X0.14386*%
%ADD18R,0.01984X0.03756*%
%ADD19R,0.03756X0.01984*%
%ADD20R,0.04937X0.02969*%
%ADD21C,0.02024*%
%ADD22R,0.01984X0.02772*%
%ADD23R,0.05528X0.06512*%
%ADD24R,0.06512X0.03756*%
%ADD25R,0.02969X0.03362*%
%ADD26R,0.03362X0.02969*%
%ADD27R,0.03835X0.04701*%
%ADD28R,0.03126X0.03520*%
%ADD29R,0.03520X0.03126*%
%ADD30R,0.06472X0.04543*%
%ADD31R,0.02083X0.02083*%
%ADD32R,0.12024X0.05528*%
%ADD33R,0.06512X0.04543*%
%ADD34R,0.07693X0.03756*%
%ADD35R,0.07299X0.04504*%
%ADD36R,0.02181X0.03756*%
%ADD37R,0.04937X0.03362*%
%ADD38R,0.03362X0.02575*%
G04:AMPARAMS|DCode=39|XSize=33.62mil|YSize=29.69mil|CornerRadius=0mil|HoleSize=0mil|Usage=FLASHONLY|Rotation=315.000|XOffset=0mil|YOffset=0mil|HoleType=Round|Shape=Rectangle|*
%AMROTATEDRECTD39*
4,1,4,-0.02238,0.00139,-0.00139,0.02238,0.02238,-0.00139,0.00139,-0.02238,-0.02238,0.00139,0.0*
%
%ADD39ROTATEDRECTD39*%

%ADD40R,0.04937X0.04937*%
%ADD41C,0.04937*%
%ADD42O,0.04937X0.06512*%
%ADD43C,0.03362*%
D16*
X86639Y387820D02*
X86550Y388846D01*
X86283Y389840D01*
X85848Y390773D01*
X85258Y391616D01*
X84530Y392344D01*
X83686Y392935D01*
X82753Y393370D01*
X81759Y393636D01*
X80734Y393726D01*
X5931D02*
X4905Y393636D01*
X3911Y393370D01*
X2978Y392935D01*
X2135Y392344D01*
X1407Y391616D01*
X816Y390773D01*
X381Y389840D01*
X115Y388846D01*
X25Y387820D01*
Y62227D02*
X51Y61225D01*
X127Y60226D01*
X254Y59232D01*
X432Y58246D01*
X659Y57270D01*
X936Y56307D01*
X1262Y55360D01*
X1635Y54430D01*
X2055Y53520D01*
X2521Y52633D01*
X3031Y51771D01*
X3585Y50936D01*
X36882Y3383D02*
X37511Y2596D01*
X38236Y1897D01*
X39044Y1295D01*
X39922Y802D01*
X40855Y425D01*
X41830Y170D01*
X42829Y41D01*
X43836D01*
X44835Y170D01*
X45809Y425D01*
X46743Y802D01*
X47621Y1295D01*
X48428Y1897D01*
X49153Y2596D01*
X49782Y3383D01*
X83079Y50936D02*
X83633Y51771D01*
X84143Y52633D01*
X84609Y53520D01*
X85029Y54430D01*
X85403Y55360D01*
X85728Y56307D01*
X86005Y57270D01*
X86233Y58246D01*
X86410Y59232D01*
X86537Y60226D01*
X86614Y61225D01*
X86639Y62227D01*
X84696Y237000D02*
X83704Y236748D01*
X82973Y236032D01*
X82700Y235045D01*
X82959Y234055D01*
X83680Y233329D01*
X84668Y233063D01*
X2000D02*
X2988Y233329D01*
X3709Y234055D01*
X3968Y235045D01*
X3696Y236032D01*
X2965Y236748D01*
X1973Y237000D01*
X5931Y393726D02*
X80734D01*
X3585Y50936D02*
X36882Y3383D01*
X49782D02*
X83079Y50936D01*
X86639Y237000D02*
X86639Y387820D01*
X84668Y233063D02*
X86637D01*
X84696Y237000D02*
X86664D01*
X86637Y62227D02*
X86637Y233063D01*
X25D02*
X25Y62227D01*
X4Y237000D02*
X1973D01*
X0Y233063D02*
X1969D01*
X4Y387820D02*
X4Y237000D01*
D17*
X49000Y296000D02*
D03*
D18*
X55890Y286650D02*
D03*
X53921D02*
D03*
X51953D02*
D03*
X49984D02*
D03*
X48016D02*
D03*
X46047D02*
D03*
X44079D02*
D03*
X42110D02*
D03*
Y305350D02*
D03*
X44079D02*
D03*
X46047D02*
D03*
X48016D02*
D03*
X49984D02*
D03*
X51953D02*
D03*
X53921D02*
D03*
X55890D02*
D03*
D19*
X39650Y289110D02*
D03*
Y291079D02*
D03*
Y293047D02*
D03*
Y295016D02*
D03*
Y296984D02*
D03*
Y298953D02*
D03*
Y300921D02*
D03*
Y302890D02*
D03*
X58350D02*
D03*
Y300921D02*
D03*
Y298953D02*
D03*
Y296984D02*
D03*
Y295016D02*
D03*
Y293047D02*
D03*
Y291079D02*
D03*
Y289110D02*
D03*
D20*
X4932Y251425D02*
D03*
Y247685D02*
D03*
Y243945D02*
D03*
X15561Y251425D02*
D03*
Y247685D02*
D03*
Y243945D02*
D03*
D21*
X8369Y313047D02*
D03*
X4431D02*
D03*
X8369Y315016D02*
D03*
X4431D02*
D03*
X8369Y316984D02*
D03*
X4431D02*
D03*
X8369Y318953D02*
D03*
X4431D02*
D03*
D22*
X66969Y288720D02*
D03*
X63032Y288720D02*
D03*
X65000D02*
D03*
Y291280D02*
D03*
X63032D02*
D03*
X66969Y291280D02*
D03*
D23*
X82150Y286331D02*
D03*
X75850D02*
D03*
X82150Y277669D02*
D03*
X75850D02*
D03*
D24*
X68000Y305047D02*
D03*
Y310953D02*
D03*
D25*
X38969Y276100D02*
D03*
X35032D02*
D03*
X30968D02*
D03*
X27031D02*
D03*
X31769Y270800D02*
D03*
X27832D02*
D03*
X28032Y284000D02*
D03*
X50968Y251900D02*
D03*
X47032D02*
D03*
X43569D02*
D03*
X39632D02*
D03*
X58469D02*
D03*
X54532D02*
D03*
D26*
X19500Y294969D02*
D03*
Y291032D02*
D03*
X15000Y291032D02*
D03*
Y294969D02*
D03*
X21500Y312531D02*
D03*
Y316469D02*
D03*
X17500Y312531D02*
D03*
Y316469D02*
D03*
X31969Y284000D02*
D03*
X20900Y245632D02*
D03*
Y249569D02*
D03*
X78700Y327668D02*
D03*
Y323731D02*
D03*
D27*
X72725Y335400D02*
D03*
X65875D02*
D03*
X45575Y272700D02*
D03*
X52425D02*
D03*
D28*
X31969Y302300D02*
D03*
X28032D02*
D03*
X48068Y315700D02*
D03*
X44131D02*
D03*
X21468Y304000D02*
D03*
X17531D02*
D03*
X21468Y299500D02*
D03*
X17531D02*
D03*
X28032Y293000D02*
D03*
X31969D02*
D03*
X28032Y297800D02*
D03*
X31969D02*
D03*
X31969Y288500D02*
D03*
X28032D02*
D03*
X77031Y270600D02*
D03*
X80968D02*
D03*
X81000Y294000D02*
D03*
X77063D02*
D03*
X17531Y308500D02*
D03*
X21468D02*
D03*
X71969Y315500D02*
D03*
X68032D02*
D03*
X29531Y251300D02*
D03*
X33468D02*
D03*
D29*
X23000Y274969D02*
D03*
Y271031D02*
D03*
X68000Y274031D02*
D03*
Y277969D02*
D03*
X63500Y274031D02*
D03*
Y277969D02*
D03*
X59000Y274031D02*
D03*
Y277969D02*
D03*
X15700Y260931D02*
D03*
Y264868D02*
D03*
X74000Y308968D02*
D03*
Y305031D02*
D03*
X78700Y335400D02*
D03*
Y331463D02*
D03*
D30*
X17800Y278142D02*
D03*
Y285858D02*
D03*
D31*
X4447Y305968D02*
D03*
X6416Y307002D02*
D03*
X8384D02*
D03*
X10353Y305968D02*
D03*
X4447Y304000D02*
D03*
X10353D02*
D03*
X4447Y302031D02*
D03*
X6416Y300998D02*
D03*
X8384D02*
D03*
X10353Y302031D02*
D03*
D32*
X79700Y264901D02*
D03*
Y252499D02*
D03*
D33*
X60000Y268739D02*
D03*
Y261061D02*
D03*
X41000Y264739D02*
D03*
Y257061D02*
D03*
D34*
X68500Y264850D02*
D03*
Y258550D02*
D03*
D35*
X50663Y260400D02*
D03*
D36*
X48104Y256483D02*
D03*
X50663D02*
D03*
X53222D02*
D03*
X48104Y264317D02*
D03*
X50663D02*
D03*
X53222D02*
D03*
D37*
X32213Y264740D02*
D03*
Y257260D02*
D03*
X21387D02*
D03*
Y261000D02*
D03*
Y264740D02*
D03*
X32213Y261000D02*
D03*
D38*
X60443Y247000D02*
D03*
X53357Y247000D02*
D03*
D39*
X30408Y314108D02*
D03*
X33192Y316892D02*
D03*
D40*
X5000Y264000D02*
D03*
Y294000D02*
D03*
D41*
Y259000D02*
D03*
Y274000D02*
D03*
Y279000D02*
D03*
Y284000D02*
D03*
Y289000D02*
D03*
D42*
X4101Y336300D02*
D03*
X16699D02*
D03*
D43*
X44669Y300331D02*
D03*
X49000D02*
D03*
X53331D02*
D03*
X44669Y296000D02*
D03*
X49000D02*
D03*
X53331D02*
D03*
X44669Y291669D02*
D03*
X49000D02*
D03*
X53331D02*
D03*
X51886Y313800D02*
D03*
X39400Y312200D02*
D03*
M02*
