G04*
G04 #@! TF.GenerationSoftware,Altium Limited,Altium Designer,19.1.5 (86)*
G04*
G04 Layer_Physical_Order=2*
G04 Layer_Color=16711680*
%FSLAX25Y25*%
%MOIN*%
G70*
G01*
G75*
%ADD14C,0.00600*%
%ADD15C,0.00050*%
%ADD67C,0.03937*%
%ADD68C,0.01000*%
%ADD72C,0.03937*%
%ADD73R,0.03937X0.03937*%
%ADD74C,0.05906*%
%ADD75R,0.05906X0.05906*%
%ADD76O,0.05512X0.03937*%
%ADD77C,0.02362*%
%ADD78R,0.10236X0.11811*%
%ADD79R,0.14173X0.11811*%
G36*
X62580Y293366D02*
Y290664D01*
X62248Y290523D01*
X62080Y290486D01*
X61556Y290836D01*
X60900Y290967D01*
X60244Y290836D01*
X59688Y290465D01*
X59423Y290068D01*
X57953D01*
X57641Y290006D01*
X57376Y289829D01*
X57376Y289829D01*
X53281Y285735D01*
X52820Y285926D01*
Y291280D01*
X58400D01*
X58790Y291358D01*
X59121Y291579D01*
X60873Y293331D01*
X61100Y293286D01*
X61756Y293416D01*
X62080Y293633D01*
X62580Y293366D01*
D02*
G37*
G36*
X47579Y286168D02*
X47486Y285700D01*
X47616Y285044D01*
X47988Y284488D01*
X48544Y284116D01*
X48620Y284101D01*
X48765Y283623D01*
X48162Y283020D01*
X46741D01*
X46612Y283212D01*
X46056Y283584D01*
X45400Y283714D01*
X44744Y283584D01*
X44188Y283212D01*
X43816Y282656D01*
X43686Y282000D01*
X43816Y281344D01*
X44188Y280788D01*
X44409Y280640D01*
X44266Y280188D01*
X43814Y280138D01*
X38916Y285036D01*
Y289323D01*
X39312Y289588D01*
X39684Y290144D01*
X39814Y290800D01*
X39684Y291456D01*
X39312Y292012D01*
X38904Y292284D01*
X39056Y292784D01*
X40962D01*
X47579Y286168D01*
D02*
G37*
G36*
X25379Y286368D02*
X25286Y285900D01*
X25416Y285244D01*
X25788Y284688D01*
X26344Y284316D01*
X27000Y284186D01*
X27656Y284316D01*
X28212Y284688D01*
X28480Y285090D01*
X28980Y284938D01*
Y255271D01*
X28729Y255020D01*
X28631D01*
X28240Y254942D01*
X27910Y254721D01*
X21893Y248704D01*
X13359D01*
X13230Y248897D01*
X12674Y249268D01*
X12018Y249399D01*
X11362Y249268D01*
X10806Y248897D01*
X10435Y248341D01*
X10304Y247685D01*
X10435Y247029D01*
X10806Y246473D01*
X11362Y246101D01*
X12018Y245971D01*
X12674Y246101D01*
X13230Y246473D01*
X13359Y246665D01*
X22315D01*
X22705Y246743D01*
X23036Y246964D01*
X29053Y252980D01*
X64491D01*
X70174Y247297D01*
X69996Y246401D01*
X70187Y245438D01*
X70733Y244621D01*
X71549Y244075D01*
X72513Y243884D01*
X74087D01*
X75051Y244075D01*
X75867Y244621D01*
X76413Y245438D01*
X76604Y246401D01*
X76426Y247297D01*
X81321Y252192D01*
X81542Y252523D01*
X81620Y252913D01*
Y271106D01*
Y275989D01*
X84159Y278529D01*
X84380Y278859D01*
X84458Y279250D01*
Y282021D01*
X84650Y282150D01*
X84827Y282414D01*
X85327Y282262D01*
Y235625D01*
X1313D01*
Y285114D01*
X1813Y285163D01*
X1816Y285144D01*
X2188Y284588D01*
X2744Y284216D01*
X3400Y284086D01*
X4056Y284216D01*
X4612Y284588D01*
X4984Y285144D01*
X5114Y285800D01*
X5021Y286267D01*
X7531Y288778D01*
X7992Y288532D01*
X7986Y288500D01*
X8116Y287844D01*
X8488Y287288D01*
X8680Y287159D01*
Y280214D01*
Y279222D01*
X8470Y279012D01*
X8249Y278681D01*
X8172Y278291D01*
Y266012D01*
X7979Y265883D01*
X7608Y265327D01*
X7477Y264671D01*
X7608Y264016D01*
X7979Y263459D01*
X8535Y263088D01*
X9191Y262957D01*
X9847Y263088D01*
X10403Y263459D01*
X10775Y264016D01*
X10905Y264671D01*
X10775Y265327D01*
X10403Y265883D01*
X10211Y266012D01*
Y277869D01*
X10421Y278079D01*
X10642Y278410D01*
X10720Y278800D01*
Y279180D01*
X14159D01*
X14288Y278988D01*
X14844Y278616D01*
X15500Y278486D01*
X16086Y278603D01*
X16365Y278463D01*
X16579Y278305D01*
X16600Y278020D01*
X16590Y277997D01*
X16229Y277456D01*
X16099Y276800D01*
X16229Y276144D01*
X16601Y275588D01*
X17157Y275216D01*
X17813Y275086D01*
X18469Y275216D01*
X19025Y275588D01*
X19396Y276144D01*
X19527Y276800D01*
X19396Y277456D01*
X19025Y278012D01*
X18832Y278141D01*
Y281587D01*
X18755Y281978D01*
X18533Y282308D01*
X17121Y283721D01*
X16790Y283942D01*
X16400Y284020D01*
X16041D01*
X15912Y284212D01*
X15356Y284584D01*
X14700Y284714D01*
X14044Y284584D01*
X13488Y284212D01*
X13116Y283656D01*
X12986Y283000D01*
X13116Y282344D01*
X13488Y281788D01*
X13590Y281720D01*
X13439Y281220D01*
X10720D01*
Y287159D01*
X10912Y287288D01*
X11284Y287844D01*
X11414Y288500D01*
X11284Y289156D01*
X11064Y289484D01*
X11331Y289984D01*
X21762D01*
X25379Y286368D01*
D02*
G37*
G36*
X85327Y284461D02*
X84827Y284310D01*
X84650Y284574D01*
X84094Y284946D01*
X83438Y285076D01*
X82782Y284946D01*
X82226Y284574D01*
X81854Y284018D01*
X81724Y283362D01*
X81854Y282706D01*
X82226Y282150D01*
X82419Y282021D01*
Y279672D01*
X80266Y277520D01*
X77541D01*
X77412Y277712D01*
X76856Y278084D01*
X76200Y278214D01*
X75544Y278084D01*
X74988Y277712D01*
X74616Y277156D01*
X74486Y276500D01*
X74616Y275844D01*
X74988Y275288D01*
X75544Y274916D01*
X76200Y274786D01*
X76856Y274916D01*
X77412Y275288D01*
X77541Y275480D01*
X79580D01*
Y272020D01*
X76141D01*
X76012Y272212D01*
X75456Y272584D01*
X74800Y272714D01*
X74144Y272584D01*
X73588Y272212D01*
X73216Y271656D01*
X73086Y271000D01*
X73216Y270344D01*
X73588Y269788D01*
X74144Y269416D01*
X74800Y269286D01*
X75456Y269416D01*
X76012Y269788D01*
X76141Y269980D01*
X79580D01*
Y253336D01*
X74984Y248739D01*
X74087Y248918D01*
X72513D01*
X71616Y248739D01*
X65634Y254721D01*
X65304Y254942D01*
X64913Y255020D01*
X31020D01*
Y270491D01*
X31520Y270524D01*
X31536Y270399D01*
X31884Y269559D01*
X32438Y268837D01*
X33159Y268284D01*
X33880Y267985D01*
Y264200D01*
X33958Y263810D01*
X34179Y263479D01*
X36054Y261604D01*
X36045Y261508D01*
X35673Y260952D01*
X35543Y260296D01*
X35673Y259640D01*
X36045Y259084D01*
X36601Y258713D01*
X37257Y258582D01*
X37913Y258713D01*
X38469Y259084D01*
X38840Y259640D01*
X38971Y260296D01*
X38840Y260952D01*
X38469Y261508D01*
X38276Y261637D01*
Y261843D01*
X38199Y262233D01*
X37978Y262564D01*
X35920Y264622D01*
Y267985D01*
X36641Y268284D01*
X37363Y268837D01*
X37916Y269559D01*
X38264Y270399D01*
X38383Y271300D01*
X38264Y272201D01*
X37916Y273041D01*
X37363Y273762D01*
X36641Y274316D01*
X35801Y274664D01*
X34900Y274782D01*
X33999Y274664D01*
X33159Y274316D01*
X32438Y273762D01*
X31884Y273041D01*
X31536Y272201D01*
X31520Y272076D01*
X31020Y272109D01*
Y290557D01*
X30942Y290947D01*
X30855Y291076D01*
X30911Y291359D01*
X30781Y292015D01*
X30601Y292284D01*
X30868Y292784D01*
X34481D01*
Y282504D01*
X34481Y282504D01*
X34543Y282192D01*
X34719Y281927D01*
X42679Y273968D01*
X42586Y273500D01*
X42716Y272844D01*
X43088Y272288D01*
X43644Y271916D01*
X44300Y271786D01*
X44956Y271916D01*
X45512Y272288D01*
X45884Y272844D01*
X46014Y273500D01*
X45884Y274156D01*
X45512Y274712D01*
X44956Y275084D01*
X44300Y275214D01*
X43832Y275121D01*
X36112Y282842D01*
Y289850D01*
X36612Y290001D01*
X36888Y289588D01*
X37284Y289323D01*
Y284698D01*
X37284Y284698D01*
X37346Y284386D01*
X37523Y284121D01*
X42911Y278733D01*
X42911Y278733D01*
X43176Y278556D01*
X43488Y278495D01*
X48010D01*
X48010Y278494D01*
X48322Y278556D01*
X48587Y278733D01*
X58291Y288437D01*
X59423D01*
X59688Y288041D01*
X60244Y287669D01*
X60641Y287590D01*
X60807Y287049D01*
X55679Y281921D01*
X55458Y281590D01*
X55380Y281200D01*
Y276836D01*
X55188Y276708D01*
X54816Y276151D01*
X54686Y275496D01*
X54816Y274840D01*
X55188Y274284D01*
X55744Y273912D01*
X56400Y273781D01*
X57056Y273912D01*
X57612Y274284D01*
X57984Y274840D01*
X58114Y275496D01*
X57984Y276151D01*
X57612Y276708D01*
X57420Y276836D01*
Y280778D01*
X64321Y287679D01*
X64542Y288010D01*
X64620Y288400D01*
Y296048D01*
X64812Y296177D01*
X65184Y296733D01*
X65314Y297389D01*
X65184Y298045D01*
X64812Y298601D01*
X64620Y298729D01*
Y300641D01*
X64542Y301031D01*
X64321Y301361D01*
X61241Y304441D01*
X61286Y304668D01*
X61156Y305324D01*
X60785Y305880D01*
X60228Y306252D01*
X59572Y306382D01*
X58916Y306252D01*
X58360Y305880D01*
X57989Y305324D01*
X57858Y304668D01*
X57989Y304012D01*
X58360Y303456D01*
X58916Y303084D01*
X59572Y302954D01*
X59799Y302999D01*
X62580Y300218D01*
Y298729D01*
X62388Y298601D01*
X62016Y298045D01*
X61886Y297389D01*
X61961Y297014D01*
X61948Y296988D01*
X61531Y296628D01*
X61100Y296714D01*
X60444Y296584D01*
X59888Y296212D01*
X59516Y295656D01*
X59386Y295000D01*
X59431Y294773D01*
X57978Y293320D01*
X45422D01*
X37821Y300921D01*
X37490Y301142D01*
X37100Y301220D01*
X35841D01*
X35712Y301412D01*
X35156Y301784D01*
X34500Y301914D01*
X33844Y301784D01*
X33288Y301412D01*
X32916Y300856D01*
X32786Y300200D01*
X32916Y299544D01*
X33288Y298988D01*
X33844Y298616D01*
X34500Y298486D01*
X35156Y298616D01*
X35712Y298988D01*
X35841Y299180D01*
X36678D01*
X40942Y294916D01*
X40735Y294416D01*
X11738D01*
X7242Y298912D01*
X7325Y299037D01*
X7517Y300000D01*
X7340Y300887D01*
X11738Y305284D01*
X18923D01*
X19188Y304888D01*
X19744Y304516D01*
X20400Y304386D01*
X21056Y304516D01*
X21612Y304888D01*
X21984Y305444D01*
X22114Y306100D01*
X21984Y306756D01*
X21612Y307312D01*
X21056Y307684D01*
X20400Y307814D01*
X19744Y307684D01*
X19188Y307312D01*
X18923Y306916D01*
X11400D01*
X11088Y306854D01*
X10823Y306677D01*
X10823Y306677D01*
X7410Y303263D01*
X7021Y303582D01*
X7325Y304037D01*
X7517Y305000D01*
X7325Y305963D01*
X6780Y306780D01*
X6117Y307222D01*
X6103Y307263D01*
Y307736D01*
X6117Y307778D01*
X6780Y308220D01*
X7325Y309037D01*
X7517Y310000D01*
X7325Y310963D01*
X6780Y311780D01*
X6403Y312032D01*
X6555Y312531D01*
X7468D01*
Y317469D01*
X2531D01*
Y312531D01*
X3446D01*
X3597Y312032D01*
X3220Y311780D01*
X2675Y310963D01*
X2483Y310000D01*
X2675Y309037D01*
X3220Y308220D01*
X3883Y307778D01*
X3897Y307736D01*
Y307263D01*
X3883Y307222D01*
X3220Y306780D01*
X2675Y305963D01*
X2483Y305000D01*
X2675Y304037D01*
X3220Y303220D01*
X3883Y302778D01*
X3897Y302736D01*
Y302263D01*
X3883Y302222D01*
X3220Y301780D01*
X2675Y300963D01*
X2483Y300000D01*
X2675Y299037D01*
X3220Y298220D01*
X3883Y297778D01*
X3897Y297737D01*
Y297264D01*
X3883Y297222D01*
X3220Y296780D01*
X2675Y295963D01*
X2583Y295500D01*
X5000D01*
X7417D01*
X7362Y295777D01*
X7823Y296023D01*
X10823Y293023D01*
X10823Y293023D01*
X11088Y292846D01*
X11400Y292784D01*
X11400Y292784D01*
X27527D01*
X27794Y292284D01*
X27614Y292015D01*
X27483Y291359D01*
X27614Y290703D01*
X27986Y290147D01*
X28542Y289776D01*
X28980Y289688D01*
Y286862D01*
X28480Y286710D01*
X28212Y287112D01*
X27656Y287484D01*
X27000Y287614D01*
X26533Y287521D01*
X22677Y291377D01*
X22412Y291554D01*
X22100Y291616D01*
X22100Y291616D01*
X8400D01*
X8400Y291616D01*
X8088Y291554D01*
X7823Y291377D01*
X7823Y291377D01*
X3867Y287421D01*
X3400Y287514D01*
X2744Y287384D01*
X2188Y287012D01*
X1816Y286456D01*
X1813Y286437D01*
X1313Y286486D01*
Y339159D01*
X85327D01*
Y284461D01*
D02*
G37*
G36*
X13859Y231851D02*
X13870Y231825D01*
X13861Y231798D01*
X13926Y231678D01*
X13769Y231574D01*
X13572Y231278D01*
X13502Y230929D01*
Y219949D01*
X13572Y219601D01*
X13769Y219305D01*
X14065Y219108D01*
X14413Y219038D01*
X72557D01*
Y208109D01*
X14413D01*
X14065Y208039D01*
X13769Y207842D01*
X13572Y207546D01*
X13502Y207198D01*
Y194446D01*
X13572Y194097D01*
X13769Y193802D01*
X14065Y193604D01*
X14413Y193535D01*
X72557D01*
Y182606D01*
X14413D01*
X14065Y182536D01*
X13769Y182339D01*
X13572Y182043D01*
X13502Y181694D01*
Y168943D01*
X13572Y168594D01*
X13769Y168298D01*
X14065Y168101D01*
X14413Y168031D01*
X72557D01*
Y157102D01*
X14413D01*
X14065Y157033D01*
X13769Y156835D01*
X13572Y156540D01*
X13502Y156191D01*
Y143439D01*
X13572Y143091D01*
X13769Y142795D01*
X14065Y142597D01*
X14413Y142528D01*
X72557D01*
Y131599D01*
X14413D01*
X14065Y131529D01*
X13769Y131332D01*
X13572Y131036D01*
X13502Y130688D01*
Y117936D01*
X13572Y117587D01*
X13769Y117292D01*
X14065Y117094D01*
X14413Y117025D01*
X72557D01*
Y106095D01*
X14413D01*
X14065Y106026D01*
X13769Y105828D01*
X13572Y105533D01*
X13502Y105184D01*
Y92432D01*
X13572Y92084D01*
X13769Y91788D01*
X14065Y91591D01*
X14413Y91521D01*
X72557D01*
Y80592D01*
X14413D01*
X14065Y80523D01*
X13769Y80325D01*
X13572Y80029D01*
X13502Y79681D01*
Y66929D01*
X13572Y66580D01*
X13769Y66285D01*
X14065Y66087D01*
X14413Y66018D01*
X71289D01*
Y55089D01*
X24610D01*
X24261Y55019D01*
X23966Y54822D01*
X23768Y54526D01*
X23699Y54177D01*
Y41426D01*
X23768Y41077D01*
X23966Y40781D01*
X24261Y40584D01*
X24610Y40515D01*
X53432D01*
Y29585D01*
X20562D01*
X20213Y29516D01*
X20195Y29503D01*
X4660Y51689D01*
X4677Y51700D01*
X3786Y53033D01*
X2723Y55190D01*
X1949Y57468D01*
X1480Y59827D01*
X1355Y61734D01*
X1338Y62227D01*
D01*
X1338Y62227D01*
X1313Y62716D01*
Y233900D01*
X13859D01*
Y231851D01*
D02*
G37*
G36*
X85327Y233900D02*
Y62227D01*
X85338Y62172D01*
X85184Y59827D01*
X84715Y57468D01*
X83942Y55190D01*
X82878Y53033D01*
X81987Y51700D01*
X81987Y51700D01*
X81987Y51700D01*
X81992Y51672D01*
X48707Y4136D01*
X48702Y4139D01*
X47976Y3255D01*
X46981Y2438D01*
X45846Y1831D01*
X44614Y1457D01*
X43332Y1331D01*
X42051Y1457D01*
X40819Y1831D01*
X39683Y2438D01*
X38688Y3255D01*
X37962Y4139D01*
X37957Y4136D01*
X21724Y27319D01*
X21955Y27763D01*
X54343D01*
X54692Y27832D01*
X54987Y28030D01*
X55185Y28325D01*
X55254Y28674D01*
Y41426D01*
X55185Y41774D01*
X54987Y42070D01*
X54692Y42268D01*
X54343Y42337D01*
X25521D01*
Y53266D01*
X72201D01*
X72549Y53336D01*
X72845Y53533D01*
X73043Y53829D01*
X73112Y54177D01*
Y66929D01*
X73043Y67278D01*
X72845Y67573D01*
X72549Y67771D01*
X72201Y67840D01*
X15325D01*
Y78770D01*
X73469D01*
X73817Y78839D01*
X74113Y79036D01*
X74310Y79332D01*
X74380Y79681D01*
Y92432D01*
X74310Y92781D01*
X74113Y93077D01*
X73817Y93274D01*
X73469Y93344D01*
X15325D01*
Y104273D01*
X73469D01*
X73817Y104342D01*
X74113Y104540D01*
X74310Y104835D01*
X74380Y105184D01*
Y117936D01*
X74310Y118285D01*
X74113Y118580D01*
X73817Y118778D01*
X73469Y118847D01*
X15325D01*
Y129776D01*
X73469D01*
X73817Y129846D01*
X74113Y130043D01*
X74310Y130339D01*
X74380Y130688D01*
Y143439D01*
X74310Y143788D01*
X74113Y144084D01*
X73817Y144281D01*
X73469Y144351D01*
X15325D01*
Y155280D01*
X73469D01*
X73817Y155349D01*
X74113Y155547D01*
X74310Y155842D01*
X74380Y156191D01*
Y168943D01*
X74310Y169291D01*
X74113Y169587D01*
X73817Y169784D01*
X73469Y169854D01*
X15325D01*
Y180783D01*
X73469D01*
X73817Y180852D01*
X74113Y181050D01*
X74310Y181346D01*
X74380Y181694D01*
Y194446D01*
X74310Y194795D01*
X74113Y195090D01*
X73817Y195288D01*
X73469Y195357D01*
X15325D01*
Y206287D01*
X73469D01*
X73817Y206356D01*
X74113Y206553D01*
X74310Y206849D01*
X74380Y207198D01*
Y219949D01*
X74310Y220298D01*
X74113Y220594D01*
X73817Y220791D01*
X73469Y220861D01*
X15325D01*
Y230929D01*
X15255Y231278D01*
X15058Y231574D01*
X14762Y231771D01*
X14413Y231840D01*
X14400Y231851D01*
Y233900D01*
X85327Y233900D01*
D02*
G37*
%LPC*%
G36*
X28353Y274753D02*
X21447D01*
Y268946D01*
X21428Y268847D01*
Y263973D01*
X20888Y263612D01*
X20516Y263056D01*
X20386Y262400D01*
X20516Y261744D01*
X20888Y261188D01*
X21444Y260816D01*
X22100Y260686D01*
X22756Y260816D01*
X23312Y261188D01*
X23684Y261744D01*
X23814Y262400D01*
X23684Y263056D01*
X23467Y263380D01*
Y267847D01*
X28353D01*
Y274753D01*
D02*
G37*
G36*
X18514Y256039D02*
X17858Y255908D01*
X17302Y255537D01*
X17037Y255140D01*
X11825D01*
X11825Y255140D01*
X11512Y255078D01*
X11248Y254901D01*
X9467Y253121D01*
X9000Y253214D01*
X8344Y253084D01*
X7788Y252712D01*
X7416Y252156D01*
X7286Y251500D01*
X7416Y250844D01*
X7788Y250288D01*
X8344Y249916D01*
X9000Y249786D01*
X9656Y249916D01*
X10212Y250288D01*
X10584Y250844D01*
X10714Y251500D01*
X10621Y251968D01*
X12162Y253509D01*
X17037D01*
X17302Y253113D01*
X17858Y252741D01*
X18514Y252611D01*
X19170Y252741D01*
X19726Y253113D01*
X20098Y253669D01*
X20228Y254325D01*
X20098Y254980D01*
X19726Y255537D01*
X19170Y255908D01*
X18514Y256039D01*
D02*
G37*
G36*
X50887Y252248D02*
X35713D01*
Y239437D01*
X50887D01*
Y252248D01*
D02*
G37*
G36*
X48918Y336500D02*
X43800D01*
Y330594D01*
X48918D01*
Y336500D01*
D02*
G37*
G36*
X42800D02*
X37682D01*
Y330594D01*
X42800D01*
Y336500D01*
D02*
G37*
G36*
X48918Y329594D02*
X43800D01*
Y323689D01*
X48918D01*
Y329594D01*
D02*
G37*
G36*
X42800D02*
X37682D01*
Y323689D01*
X42800D01*
Y329594D01*
D02*
G37*
G36*
X5000Y332517D02*
X4037Y332325D01*
X3220Y331780D01*
X2675Y330963D01*
X2483Y330000D01*
X2675Y329037D01*
X3220Y328220D01*
X3597Y327969D01*
X3446Y327468D01*
X2531D01*
Y322532D01*
X7468D01*
Y327468D01*
X6555D01*
X6403Y327969D01*
X6780Y328220D01*
X7325Y329037D01*
X7517Y330000D01*
X7325Y330963D01*
X6780Y331780D01*
X5963Y332325D01*
X5000Y332517D01*
D02*
G37*
G36*
X44300Y319142D02*
X42300D01*
X41917Y318983D01*
X41759Y318600D01*
Y312600D01*
X41917Y312218D01*
X42300Y312059D01*
X44300D01*
X44683Y312218D01*
X44841Y312600D01*
Y318600D01*
X44683Y318983D01*
X44300Y319142D01*
D02*
G37*
G36*
X40478Y307051D02*
X39822Y306921D01*
X39266Y306549D01*
X39001Y306153D01*
X25137D01*
X25137Y306153D01*
X24825Y306091D01*
X24560Y305914D01*
X24560Y305914D01*
X19367Y300721D01*
X18900Y300814D01*
X18244Y300684D01*
X17688Y300312D01*
X17316Y299756D01*
X17186Y299100D01*
X17316Y298444D01*
X17688Y297888D01*
X18244Y297516D01*
X18900Y297386D01*
X19556Y297516D01*
X20112Y297888D01*
X20484Y298444D01*
X20614Y299100D01*
X20521Y299568D01*
X25475Y304521D01*
X39001D01*
X39266Y304125D01*
X39822Y303754D01*
X40478Y303623D01*
X41134Y303754D01*
X41690Y304125D01*
X42061Y304681D01*
X42192Y305337D01*
X42061Y305993D01*
X41690Y306549D01*
X41134Y306921D01*
X40478Y307051D01*
D02*
G37*
G36*
X7417Y294500D02*
X5500D01*
Y292583D01*
X5963Y292675D01*
X6780Y293220D01*
X7325Y294037D01*
X7417Y294500D01*
D02*
G37*
G36*
X4500D02*
X2583D01*
X2675Y294037D01*
X3220Y293220D01*
X4037Y292675D01*
X4500Y292583D01*
Y294500D01*
D02*
G37*
G36*
X74087Y261516D02*
X72513D01*
X71549Y261325D01*
X70733Y260779D01*
X70187Y259962D01*
X69996Y258999D01*
X70187Y258036D01*
X70733Y257220D01*
X71549Y256674D01*
X72513Y256482D01*
X74087D01*
X75051Y256674D01*
X75867Y257220D01*
X76413Y258036D01*
X76604Y258999D01*
X76413Y259962D01*
X75867Y260779D01*
X75051Y261325D01*
X74087Y261516D01*
D02*
G37*
%LPD*%
D14*
X22100Y290800D02*
X27000Y285900D01*
X8400Y290800D02*
X22100D01*
X3400Y285800D02*
X8400Y290800D01*
X35296Y293600D02*
X41300D01*
X11400D02*
X35296D01*
Y282504D02*
Y293600D01*
Y282504D02*
X44300Y273500D01*
X57953Y289253D02*
X60900D01*
X48010Y279310D02*
X57953Y289253D01*
X43488Y279310D02*
X48010D01*
X38100Y284698D02*
X43488Y279310D01*
X11400Y306100D02*
X20400D01*
X5300Y300000D02*
X11400Y306100D01*
X5000Y300000D02*
X5300D01*
X25137Y305337D02*
X40478D01*
X18900Y299100D02*
X25137Y305337D01*
X9000Y251500D02*
X11825Y254325D01*
X18514D01*
X38100Y284698D02*
Y290800D01*
X41300Y293600D02*
X49200Y285700D01*
X5000Y300000D02*
X11400Y293600D01*
D15*
X83079Y50936D02*
X83633Y51771D01*
X84143Y52633D01*
X84609Y53520D01*
X85029Y54430D01*
X85403Y55360D01*
X85728Y56307D01*
X86005Y57270D01*
X86233Y58246D01*
X86410Y59232D01*
X86537Y60226D01*
X86614Y61225D01*
X86639Y62227D01*
X36882Y3383D02*
X37511Y2596D01*
X38236Y1897D01*
X39044Y1295D01*
X39922Y802D01*
X40855Y425D01*
X41830Y170D01*
X42829Y41D01*
X43836D01*
X44835Y170D01*
X45809Y425D01*
X46743Y802D01*
X47621Y1295D01*
X48428Y1897D01*
X49153Y2596D01*
X49782Y3383D01*
X25Y62227D02*
X51Y61225D01*
X127Y60226D01*
X254Y59232D01*
X432Y58246D01*
X659Y57270D01*
X936Y56307D01*
X1262Y55360D01*
X1635Y54430D01*
X2055Y53520D01*
X2521Y52633D01*
X3031Y51771D01*
X3585Y50936D01*
X5931Y393726D02*
X4905Y393636D01*
X3911Y393370D01*
X2978Y392935D01*
X2135Y392344D01*
X1407Y391616D01*
X816Y390773D01*
X381Y389840D01*
X115Y388846D01*
X25Y387820D01*
X86639Y387820D02*
X86550Y388846D01*
X86283Y389840D01*
X85848Y390773D01*
X85258Y391616D01*
X84530Y392344D01*
X83686Y392935D01*
X82753Y393370D01*
X81759Y393636D01*
X80734Y393726D01*
X86639Y62227D02*
Y387820D01*
X49782Y3383D02*
X83079Y50936D01*
X3585D02*
X36882Y3383D01*
X25Y62227D02*
Y387820D01*
X5931Y393726D02*
X80734D01*
D67*
X5000Y310000D02*
D03*
Y305000D02*
D03*
Y300000D02*
D03*
Y295000D02*
D03*
Y330000D02*
D03*
D68*
X9191Y278291D02*
X9700Y278800D01*
Y280214D01*
Y288500D01*
X9714Y280200D02*
X15500D01*
X9700Y280214D02*
X9714Y280200D01*
X80600Y276412D02*
X83438Y279250D01*
Y283362D01*
X14907Y283000D02*
X16400D01*
X17813Y281587D01*
Y276800D02*
Y281587D01*
X9191Y264671D02*
Y278291D01*
X48584Y282000D02*
X51800Y285215D01*
X45400Y282000D02*
X48584D01*
X51800Y285215D02*
Y291700D01*
X63600Y288400D02*
Y297389D01*
X56400Y281200D02*
X63600Y288400D01*
X56400Y275496D02*
Y281200D01*
X37257Y260296D02*
Y261843D01*
X34900Y264200D02*
X37257Y261843D01*
X34900Y264200D02*
Y271300D01*
X29197Y291359D02*
X30000Y290557D01*
Y254849D02*
Y290557D01*
X29151Y254000D02*
X30000Y254849D01*
X22100Y262400D02*
Y262769D01*
X22447Y263116D01*
Y268847D01*
X24900Y271300D01*
X37100Y300200D02*
X45000Y292300D01*
X34500Y300200D02*
X37100D01*
X58400Y292300D02*
X61100Y295000D01*
X45000Y292300D02*
X58400D01*
X63600Y297389D02*
Y300641D01*
X80600Y271106D02*
Y276412D01*
X80512Y276500D02*
X80600Y276412D01*
X76200Y276500D02*
X80512D01*
X29151Y254000D02*
X64913D01*
X28631D02*
X29151D01*
X64913D02*
X72513Y246401D01*
X22315Y247685D02*
X28631Y254000D01*
X72513Y246401D02*
X73300D01*
X12018Y247685D02*
X22315D01*
X80600Y252913D02*
Y271106D01*
X80494Y271000D02*
X80600Y271106D01*
X74800Y271000D02*
X80494D01*
X74087Y246401D02*
X80600Y252913D01*
X73300Y246401D02*
X74087D01*
X59572Y304668D02*
X63600Y300641D01*
D72*
X74763Y385295D02*
X78700Y389231D01*
X74763Y369153D02*
Y385295D01*
X70826Y365216D02*
X74763Y369153D01*
X66889Y385295D02*
X70826Y389231D01*
X66889Y369153D02*
Y385295D01*
X62952Y365216D02*
X66889Y369153D01*
X59015Y385295D02*
X62952Y389231D01*
X59015Y369153D02*
Y385295D01*
X55078Y365216D02*
X59015Y369153D01*
X51141Y385295D02*
X55078Y389231D01*
X51141Y369153D02*
Y385295D01*
X47204Y365216D02*
X51141Y369153D01*
X43267Y385295D02*
X47204Y389231D01*
X43267Y369153D02*
Y385295D01*
X39330Y365216D02*
X43267Y369153D01*
X35393Y385295D02*
X39330Y389231D01*
X35393Y369153D02*
Y385295D01*
X31456Y365216D02*
X35393Y369153D01*
X27519Y385295D02*
X31456Y389231D01*
X27519Y369153D02*
Y385295D01*
X23582Y365216D02*
X27519Y369153D01*
X19645Y385295D02*
X23582Y389231D01*
X19645Y369153D02*
Y385295D01*
X15708Y365216D02*
X19645Y369153D01*
X11771Y385295D02*
X15708Y389231D01*
X11771Y369153D02*
Y385295D01*
X7834Y365216D02*
X11771Y369153D01*
D73*
X5000Y315000D02*
D03*
Y325000D02*
D03*
D74*
X34900Y271300D02*
D03*
D75*
X24900D02*
D03*
D76*
X73300Y258999D02*
D03*
Y246401D02*
D03*
D77*
X63300Y261300D02*
D03*
X54500D02*
D03*
X7000Y275400D02*
D03*
X73400Y290300D02*
D03*
X83600Y275900D02*
D03*
X51700Y274640D02*
D03*
X14400Y288000D02*
D03*
X21500Y286900D02*
D03*
X57000Y306400D02*
D03*
X38700Y309400D02*
D03*
X83400Y237800D02*
D03*
X70100D02*
D03*
X56800D02*
D03*
X43500D02*
D03*
X30200D02*
D03*
X3600D02*
D03*
X16900D02*
D03*
X68500Y322600D02*
D03*
X49800Y314900D02*
D03*
X74100Y316300D02*
D03*
X65700D02*
D03*
X56000D02*
D03*
X15300Y317400D02*
D03*
X15700Y325700D02*
D03*
X52400Y321600D02*
D03*
X41900Y325200D02*
D03*
X32300D02*
D03*
X17800Y331600D02*
D03*
X27400D02*
D03*
X37000D02*
D03*
X46600D02*
D03*
X56200D02*
D03*
X65800D02*
D03*
X75400D02*
D03*
X82700Y316300D02*
D03*
X82800Y329300D02*
D03*
X83000Y335900D02*
D03*
X60900Y337200D02*
D03*
X51300D02*
D03*
X41700D02*
D03*
X32100D02*
D03*
X22500D02*
D03*
X12900D02*
D03*
X3300D02*
D03*
X51252Y21500D02*
D03*
X35504D02*
D03*
X51252Y34500D02*
D03*
X35504D02*
D03*
X51252Y47500D02*
D03*
X35504D02*
D03*
X9700Y288500D02*
D03*
X40200Y286200D02*
D03*
X44300Y273500D02*
D03*
X59400Y249800D02*
D03*
X25800Y254600D02*
D03*
X26200Y242100D02*
D03*
X5100Y256700D02*
D03*
X83600Y258400D02*
D03*
X83500Y264800D02*
D03*
X84100Y291800D02*
D03*
X81900Y296200D02*
D03*
X77300Y282900D02*
D03*
X66800Y278700D02*
D03*
X65500Y271500D02*
D03*
X69700Y268500D02*
D03*
X60900Y289253D02*
D03*
X83438Y283362D02*
D03*
X14700Y283000D02*
D03*
X17813Y276800D02*
D03*
X15500Y280200D02*
D03*
X43400Y245800D02*
D03*
X3400Y285800D02*
D03*
X9191Y264671D02*
D03*
X54030Y282169D02*
D03*
X45400Y282000D02*
D03*
X82700Y323100D02*
D03*
X75200Y322800D02*
D03*
X60800Y323000D02*
D03*
X60900Y310600D02*
D03*
X24900Y320000D02*
D03*
X4700Y319800D02*
D03*
X10500Y310600D02*
D03*
X19100Y310200D02*
D03*
X26300Y302800D02*
D03*
X12378Y298800D02*
D03*
X20700Y295600D02*
D03*
X45700Y261300D02*
D03*
X72400Y253700D02*
D03*
X65200Y286700D02*
D03*
X37257Y260296D02*
D03*
X20400Y306100D02*
D03*
X40478Y305337D02*
D03*
X18900Y299100D02*
D03*
X27000Y285900D02*
D03*
X22100Y262400D02*
D03*
X9000Y251500D02*
D03*
X18514Y254325D02*
D03*
X38100Y290800D02*
D03*
X34500Y300200D02*
D03*
X61100Y295000D02*
D03*
X63600Y297389D02*
D03*
X76200Y276500D02*
D03*
X74800Y271000D02*
D03*
X12018Y247685D02*
D03*
X29197Y291359D02*
D03*
X49200Y285700D02*
D03*
X56400Y275496D02*
D03*
X59572Y304668D02*
D03*
X66858Y226000D02*
D03*
X51110D02*
D03*
X35362D02*
D03*
X19614D02*
D03*
X47072Y294710D02*
D03*
Y299041D02*
D03*
X51403Y294710D02*
D03*
Y299041D02*
D03*
X19756Y201000D02*
D03*
Y188000D02*
D03*
Y175500D02*
D03*
Y162500D02*
D03*
Y150000D02*
D03*
Y137000D02*
D03*
Y124500D02*
D03*
Y111500D02*
D03*
Y98500D02*
D03*
Y86000D02*
D03*
Y73500D02*
D03*
Y60500D02*
D03*
X35504Y201000D02*
D03*
Y188000D02*
D03*
Y175500D02*
D03*
Y162500D02*
D03*
Y150000D02*
D03*
Y137000D02*
D03*
Y124500D02*
D03*
Y111500D02*
D03*
Y98500D02*
D03*
Y86000D02*
D03*
Y73500D02*
D03*
Y60500D02*
D03*
X51252Y201000D02*
D03*
Y188000D02*
D03*
Y175500D02*
D03*
Y162500D02*
D03*
Y150000D02*
D03*
Y137000D02*
D03*
Y124500D02*
D03*
Y111500D02*
D03*
Y98500D02*
D03*
Y86000D02*
D03*
Y73500D02*
D03*
Y60500D02*
D03*
X67000D02*
D03*
Y73500D02*
D03*
Y86000D02*
D03*
Y98500D02*
D03*
Y111500D02*
D03*
Y124500D02*
D03*
Y137000D02*
D03*
Y150000D02*
D03*
Y162500D02*
D03*
Y175500D02*
D03*
Y188000D02*
D03*
Y201000D02*
D03*
X19685Y213500D02*
D03*
X35433D02*
D03*
X51181D02*
D03*
X66929D02*
D03*
X62952Y365216D02*
D03*
X55078D02*
D03*
X47204D02*
D03*
X39330D02*
D03*
X31456D02*
D03*
X23582D02*
D03*
X15708D02*
D03*
X7834D02*
D03*
X15708Y389231D02*
D03*
X23582D02*
D03*
X31456D02*
D03*
X39330D02*
D03*
X47204D02*
D03*
X55078D02*
D03*
X62952D02*
D03*
X70826D02*
D03*
Y365216D02*
D03*
X78700Y389231D02*
D03*
D78*
X43300Y330095D02*
D03*
D79*
Y245843D02*
D03*
M02*
