M48
;Layer_Color=9474304
;FILE_FORMAT=2:5
INCH,TZ
;TYPE=PLATED
T1F00S00C0.01181
T2F00S00C0.02362
T3F00S00C0.02756
T4F00S00C0.03543
%
T01
X35504Y21500
Y34500
Y47500
Y60500
Y73500
Y86000
Y98500
Y111500
Y124500
Y137000
Y150000
X19756
Y137000
Y124500
Y111500
Y98500
Y86000
Y73500
Y60500
X51252
Y47500
Y34500
Y21500
Y73500
Y86000
Y98500
Y111500
Y124500
Y137000
Y150000
X67000
Y137000
Y124500
Y111500
Y98500
Y86000
Y73500
Y60500
Y162500
Y175500
Y188000
Y201000
X66929Y213500
X66858Y226000
X70100Y237800
X83400
X83600Y258400
X83500Y264800
X83600Y275900
X83438Y283362
X77300Y282900
X76200Y276500
X74800Y271000
X69700Y268500
X65500Y271500
X66800Y278700
X65200Y286700
X60900Y289253
X61100Y295000
X63600Y297389
X59572Y304668
X57000Y306400
X60900Y310600
X51403Y299041
X47072
Y294710
X51403
X49200Y285700
X45400Y282000
X54030Y282169
X56400Y275496
X51700Y274640
X44300Y273500
X45700Y261300
X54500
X63300
X59400Y249800
X56800Y237800
X43500
X43400Y245800
X37257Y260296
X25800Y254600
X18514Y254325
X22100Y262400
X9191Y264671
X5100Y256700
X9000Y251500
X12018Y247685
X16900Y237800
X30200
X26200Y242100
X19614Y226000
X19685Y213500
X19756Y201000
Y188000
Y175500
Y162500
X35504
Y175500
Y188000
Y201000
X35433Y213500
X35362Y226000
X51110
X51181Y213500
X51252Y201000
Y188000
Y175500
Y162500
X72400Y253700
X73400Y290300
X84100Y291800
X81900Y296200
X38100Y290800
X40200Y286200
X27000Y285900
X21500Y286900
X14400Y288000
X9700Y288500
X3400Y285800
X7000Y275400
X17813Y276800
X15500Y280200
X14700Y283000
X12378Y298800
X18900Y299100
X20700Y295600
X20400Y306100
X19100Y310200
X10500Y310600
X26300Y302800
X34500Y300200
X40478Y305337
X38700Y309400
X29197Y291359
X3600Y237800
X4700Y319800
X15300Y317400
X15700Y325700
X17800Y331600
X27400
X37000
X46600
X56200
X65800
X75400
X75200Y322800
X68500Y322600
X60800Y323000
X52400Y321600
X56000Y316300
X49800Y314900
X65700Y316300
X74100
X82700
Y323100
X82800Y329300
X83000Y335900
X60900Y337200
X51300
X41700
X32100
X22500
X12900
X3300
X7834Y365216
X15708
X23582
X31456
X39330
X47204
X55078
X62952
X70826
Y389231
X62952
X55078
X47204
X39330
X31456
X23582
X15708
X78700
X41900Y325200
X32300
X24900Y320000
T02
X73300Y246401
Y258999
T03
X5000Y295000
Y300000
Y305000
Y310000
Y315000
Y325000
Y330000
T04
X24900Y271300
X34900
M30
